<?xml version="1.0" encoding="utf-8"?>
<!-- Generator: Adobe Illustrator 21.1.0, SVG Export Plug-In . SVG Version: 6.00 Build 0)  -->
<svg version="1.1" id="_x31_" xmlns="http://www.w3.org/2000/svg" xmlns:xlink="http://www.w3.org/1999/xlink" x="0px" y="0px"
	 viewBox="0 0 26 26" style="enable-background:new 0 0 26 26;" xml:space="preserve">
<style type="text/css">
	.st0{opacity:0.5;fill:#FFFFFF;enable-background:new    ;}
	.st1{fill:#FFFFFF;}
</style>
<path id="_x32_" class="st0" d="M5,8h4v13H5V8z M5,5h16v2H5V5z"/>
<path id="_x30_" class="st1" d="M21,3H5C3.9,3,3,3.9,3,5v16c0,1.1,0.9,2,2,2h16c1.1,0,2-0.9,2-2V5C23,3.9,22.1,3,21,3z M9,21H5V8h4
	V21z M21,21H10V8h11V21z M21,7H5V5h16V7z"/>
</svg>
