<?xml version="1.0" encoding="utf-8"?>
<!-- Generator: Adobe Illustrator 24.1.2, SVG Export Plug-In . SVG Version: 6.00 Build 0)  -->
<svg version="1.1" id="_x31_" xmlns="http://www.w3.org/2000/svg" xmlns:xlink="http://www.w3.org/1999/xlink" x="0px" y="0px"
	 viewBox="0 0 16 16" style="enable-background:new 0 0 16 16;" xml:space="preserve">
<style type="text/css">
	.st0{fill-rule:evenodd;clip-rule:evenodd;}
</style>
<path id="_x32_" class="st0" d="M14,12v4l0,0l-2-1v-3l-2-2V8h3h3v2L14,12z M8,6v2v2v2v2H2c-1.1,0-2-0.9-2-2V2c0-1.1,0.9-2,2-2h10
	c1.1,0,2,0.9,2,2v4h-2H8z M6,2H2v2h4V2z M6,6H2v2h4V6z M6,10H2v2h4V10z M12,2H8v2h4V2z"/>
</svg>
