<?xml version="1.0" encoding="utf-8"?>
<!-- Generator: Adobe Illustrator 21.1.0, SVG Export Plug-In . SVG Version: 6.00 Build 0)  -->
<svg version="1.1" id="_x31_" xmlns="http://www.w3.org/2000/svg" xmlns:xlink="http://www.w3.org/1999/xlink" x="0px" y="0px"
	 viewBox="0 0 26 26" style="enable-background:new 0 0 26 26;" xml:space="preserve">
<style type="text/css">
	.st0{fill-rule:evenodd;clip-rule:evenodd;fill:#FFFFFF;}
	.st1{opacity:0.5;fill-rule:evenodd;clip-rule:evenodd;fill:#FFFFFF;}
	.st2{fill-rule:evenodd;clip-rule:evenodd;fill:#0F2161;}
</style>
<path class="st0" d="M22,23H4c-0.5,0-1-0.5-1-1v-7c0-0.6,0.5-1,1-1h18c0.5,0,1,0.4,1,1v7C23,22.5,22.5,23,22,23z"/>
<path class="st1" d="M22,12H4c-0.5,0-1-0.4-1-1V4c0-0.5,0.5-1,1-1h18c0.5,0,1,0.5,1,1v7C23,11.6,22.5,12,22,12z"/>
<rect x="5" y="16" class="st2" width="11" height="5"/>
<polygon class="st2" points="17,17 19.5,20 22,17 "/>
<rect x="5" y="5" class="st2" width="11" height="5"/>
<polygon class="st2" points="17,6 19.5,9 22,6 "/>
<rect x="6" y="17" class="st0" width="1" height="3"/>
<rect x="6" y="6" class="st1" width="1" height="3"/>
</svg>
