<?xml version="1.0" encoding="utf-8"?>
<!-- Generator: Adobe Illustrator 21.1.0, SVG Export Plug-In . SVG Version: 6.00 Build 0)  -->
<svg version="1.1" id="_x31_" xmlns="http://www.w3.org/2000/svg" xmlns:xlink="http://www.w3.org/1999/xlink" x="0px" y="0px"
	 viewBox="0 0 180 30" style="enable-background:new 0 0 180 30;" xml:space="preserve">
<style type="text/css">
	.st0{fill:#FFFFFF;}
</style>
<g id="_x31__1_">
	<path id="_x30__3_" class="st0" d="M42.1,4c-1.8,0-3.7,0.1-5.1,0.5v20.3c1,0.1,2.4,0.2,4.3,0.2c3.3,0,6.1-0.9,7.9-2.6
		c1.5-1.5,2.9-4,2.9-8.4c0-3.8-1-6.2-2.9-7.9C47.5,4.6,45.3,4,42.1,4z M42.2,21.7c-0.5,0-1,0-1.5-0.1V7.2C41.2,7,41.7,7,42.4,7
		c3.5,0,5.7,2.3,5.7,7C48.2,19.4,45.8,21.8,42.2,21.7z"/>
	<path id="_x30__4_" class="st0" d="M61.4,10c-4.1,0-6.4,3.5-6.4,7.7c0,4.5,2.5,7.3,6.7,7.3c1.7,0,3.3-0.4,4.6-0.8l-0.6-2.6
		c-0.9,0.4-2.1,0.6-3.4,0.6c-2.1,0-3.8-0.9-3.8-3.4h8.3c0.1-0.5,0.1-0.9,0.1-1.5C67,12.5,64.8,10,61.4,10z M58.5,16
		c0.1-1.4,0.8-3.3,2.6-3.3s2.4,1.9,2.4,3.3H58.5z"/>
	<path id="_x30__5_" class="st0" d="M78.2,10l-1.7,7.3c-0.3,1.4-0.6,2.6-0.8,3.8h-0.1c-0.2-1.4-0.5-2.6-0.8-3.8L73,10h-4l4.6,15h3.6
		L82,10H78.2z"/>
	<path id="_x30__6_" class="st0" d="M89.1,15.7h7.2v-3.2h-7.2V7.4h7.5V4H85v21h12v-3.5h-7.9V15.7z"/>
	<path id="_x30__7_" class="st0" d="M111,10h-4l-1.3,2.7c-0.3,0.7-0.7,1.6-1,2.4l0,0c-0.3-0.7-0.7-1.6-1-2.3l-1.4-2.7h-4.2l4.2,7.3
		L98,25h4.1l1.2-2.9c0.3-0.7,0.7-1.6,1-2.3l0,0c0.3,0.9,0.7,1.6,1,2.3l1.4,2.9h4.2l-4.1-7.8L111,10z"/>
	<path id="_x30__8_" class="st0" d="M121.2,9.4c-1.9,0-3.3,0.8-4.3,2.3l0,0l-0.2-2h-3.3L113,30l3.3,0l1-7.3l0,0
		c0.6,1,1.9,1.7,3.5,1.7c3,0,6-2.4,6-7.7C126.7,12.4,124.3,9.4,121.2,9.4z M119.8,21.5c-1.3,0-2.6-1.1-2.6-3.1v-2.7
		c0-1.8,1.2-3.2,2.6-3.2c1.9,0,2.9,1.9,2.9,4.5C122.8,19.5,121.8,21.5,119.8,21.5z"/>
	<path id="_x30__9_" class="st0" d="M132.5,13L132.5,13l-0.2-2.5H129c0,1.3,0.1,2.7,0.1,4.5v10h3.9v-7.6c0-2.5,1.3-3.7,3.1-3.7
		c0.4,0,0.7,0,0.9,0.1v-3.7c-0.2,0-0.5-0.1-0.8-0.1C134.8,10.1,133.2,11.1,132.5,13z"/>
	<path id="_x30__10_" class="st0" d="M145.4,10c-4.1,0-6.4,3.5-6.4,7.7c0,4.5,2.5,7.3,6.7,7.3c1.7,0,3.3-0.4,4.6-0.8l-0.6-2.6
		c-0.9,0.4-2.1,0.6-3.4,0.6c-2.1,0-3.7-0.9-3.8-3.4h8.3c0.1-0.5,0.1-0.9,0.1-1.5C151,12.5,148.8,10,145.4,10z M142.5,16
		c0.1-1.4,0.8-3.3,2.6-3.3c1.8,0,2.4,1.9,2.4,3.3H142.5z"/>
	<path id="_x30__11_" class="st0" d="M159.5,16.1c-1.7-0.7-2.3-1.1-2.3-1.9c0-0.8,0.6-1.4,1.8-1.4c1.1,0,2.2,0.4,2.8,0.7l0.7-2.7
		c-0.9-0.5-2.2-0.8-3.7-0.8c-3.3,0-5.5,2-5.5,4.6c0,1.5,1,3.1,3.8,4.3c1.6,0.7,2.2,1.2,2.2,2s-0.6,1.4-2.1,1.4
		c-1.2,0-2.7-0.5-3.5-0.9l-0.7,2.7c1,0.6,2.6,0.9,4.1,0.9c3.8,0,5.9-1.8,5.9-4.6C163.1,18.5,161.9,17.1,159.5,16.1z"/>
	<path id="_x30__12_" class="st0" d="M171.5,16.1c-1.7-0.7-2.3-1.1-2.3-1.9c0-0.8,0.6-1.4,1.8-1.4c1.1,0,2.2,0.4,2.8,0.7l0.7-2.7
		c-0.9-0.5-2.2-0.8-3.7-0.8c-3.3,0-5.5,2-5.5,4.6c0,1.5,1,3.1,3.8,4.3c1.6,0.7,2.2,1.2,2.2,2s-0.6,1.4-2.1,1.4
		c-1.2,0-2.7-0.5-3.5-0.9l-0.7,2.7c1,0.6,2.6,0.9,4.1,0.9c3.8,0,5.9-1.8,5.9-4.6C175.1,18.5,174,17.1,171.5,16.1z"/>
	<path id="_x30__13_" class="st0" d="M2,22.4c-0.7,0.9-1.3,1.6-1.6,2.5C0.2,25,0,25.6,0,25.9v0.5C0,27.3,0.7,28,1.6,28h24.7
		c0.9,0,1.6-0.7,1.6-1.6v-19C14.5,9.7,6.2,17,2,22.4z"/>
	<path id="_x30__2_" class="st0" d="M26.4,0H1.6C0.7,0,0,0.7,0,1.6v14.8C4.9,11.3,13.7,5.7,27,4.1c0.4,0,1.1-0.2,1.1-1.2V1.6
		C28,0.7,27.3,0,26.4,0z"/>
	<path id="_x30__1_" class="st0" d="M178.2,8.8L178.2,8.8c0.5-0.1,0.6-0.4,0.6-0.7c0-0.2-0.1-0.5-0.2-0.6c-0.1-0.1-0.5-0.2-0.7-0.2
		H177v2.6h0.5V8.8h0.2c0.1,0,0.2,0.1,0.4,0.4l0.2,0.7h0.6l-0.4-0.7C178.5,9,178.3,8.9,178.2,8.8z M177.7,8.6h-0.4V7.8h0.4
		c0.4,0,0.5,0.1,0.5,0.4c0,0.1,0,0.2-0.1,0.2C178.1,8.6,178,8.6,177.7,8.6z"/>
	<path id="_x30_" class="st0" d="M179.4,7.3c-0.4-0.4-1-0.6-1.5-0.6s-1.2,0.2-1.5,0.6c-0.5,0.4-0.6,1-0.6,1.5c0,0.6,0.2,1.1,0.6,1.5
		c0.4,0.4,1,0.6,1.5,0.6s1.1-0.2,1.5-0.6c0.5-0.4,0.6-1,0.6-1.5C180,8.1,179.8,7.6,179.4,7.3z M179,10c-0.4,0.4-0.8,0.5-1.3,0.5
		c-0.5,0-1-0.1-1.3-0.5S176,9.2,176,8.7c0-0.5,0.1-1,0.5-1.3s0.8-0.5,1.3-0.5c0.5,0,1,0.1,1.3,0.5c0.4,0.4,0.5,0.8,0.5,1.3
		C179.6,9.3,179.4,9.6,179,10z"/>
</g>
</svg>
