<?xml version="1.0" encoding="utf-8"?>
<!-- Generator: Adobe Illustrator 21.1.0, SVG Export Plug-In . SVG Version: 6.00 Build 0)  -->
<svg version="1.1" id="_x30_" xmlns="http://www.w3.org/2000/svg" xmlns:xlink="http://www.w3.org/1999/xlink" x="0px" y="0px"
	 viewBox="0 0 26 26" style="enable-background:new 0 0 26 26;" xml:space="preserve">
<style type="text/css">
	.st0{fill:#FFFFFF;}
</style>
<path id="_x32_" class="st0" d="M24,6H2C0.9,6,0,6.9,0,8v10c0,1.1,0.9,2,2,2h22c1.1,0,2-0.9,2-2V8C26,6.9,25.1,6,24,6z M6,16H4.7
	v-3.5c0-0.4,0-1.2,0-1.2l-0.9,1L3,11.5L4.8,10H6V16z M18,16c0,1.1-0.9,2-2,2h-5c-1.1,0-2-0.9-2-2v-6c0-1.1,0.9-2,2-2h5
	c1.1,0,2,0.9,2,2V16z M23.4,15.5c-0.4,0.3-1,0.5-1.7,0.5c-0.6,0-1.2-0.1-1.6-0.3v-1c0.2,0.1,0.5,0.2,0.7,0.3
	c0.3,0.1,0.5,0.1,0.7,0.1c0.4,0,0.7-0.1,0.9-0.2c0.2-0.1,0.3-0.4,0.3-0.7c0-0.6-0.5-0.9-1.4-0.9h-0.4v-0.8h0.4
	c0.4,0,0.7-0.1,0.9-0.2c0.2-0.1,0.3-0.4,0.3-0.7c0-0.2-0.1-0.4-0.2-0.5c-0.1-0.1-0.3-0.2-0.6-0.2c-0.4,0-0.7,0.1-1.1,0.4L20,10.6
	c0.5-0.4,1.1-0.6,1.9-0.6c0.6,0,1.1,0.1,1.5,0.4c0.4,0.3,0.5,0.6,0.5,1c0,1-1,1.3-1.4,1.4c0.5,0.1,0.8,0.2,1.1,0.5
	c0.3,0.3,0.4,0.5,0.4,0.9C24,14.7,23.8,15.2,23.4,15.5z"/>
<path id="_x31_" class="st0" d="M16,15h-3l0,0c1-0.8,1.6-1.3,1.8-1.5c1.1-0.8,1-1.6,1-1.8c0-0.5-0.2-0.9-0.6-1.2
	c-0.4-0.3-1-0.4-1.7-0.4c-1.5,0-2,0.5-2.4,0.9l1,0.6c0.3-0.2,0.9-0.6,1.7-0.4c0.7,0.3,0.1,1,0,1.2c-0.2,0.3-2.8,2.8-2.8,2.8V16h5V15
	z"/>
</svg>
