<?xml version="1.0" encoding="utf-8"?>
<!-- Generator: Adobe Illustrator 21.1.0, SVG Export Plug-In . SVG Version: 6.00 Build 0)  -->
<svg version="1.1" id="1" xmlns="http://www.w3.org/2000/svg" xmlns:xlink="http://www.w3.org/1999/xlink" x="0px" y="0px"
	 viewBox="0 0 26 26" style="enable-background:new 0 0 26 26;" xml:space="preserve">
<style type="text/css">
	.st0{fill-rule:evenodd;clip-rule:evenodd;fill:#FFFFFF;}
	.st1{fill-rule:evenodd;clip-rule:evenodd;fill:#0F2161;}
	.st2{opacity:0.5;fill-rule:evenodd;clip-rule:evenodd;fill:#0F2161;}
</style>
<path id="_x33_" class="st0" d="M5,3h16c1.1,0,2,0.9,2,2v16c0,1.1-0.9,2-2,2H5c-1.1,0-2-0.9-2-2V5C3,3.9,3.9,3,5,3z"/>
<path id="_x32_" class="st1" d="M20,7H6C5.4,7,5,6.6,5,6s0.4-1,1-1h14c0.6,0,1,0.4,1,1S20.6,7,20,7z"/>
<path id="_x31_" class="st2" d="M16,15v2 M16,12v2 M16,9v2 M5,15h7v2H5V15z M5,12h7v2H5V12z M5,9h7v2H5V9z"/>
<g id="_x30_">
	<path class="st1" d="M20,17h-7v-2l4-2l-4-2V9h7h1v1v1h-1v-1h-5l4,3l-4,3h5v-1h1v1v1H20z"/>
</g>
<rect id="p_2_" x="5" y="19" class="st1" width="2" height="2"/>
<rect id="p_1_" x="8" y="19" class="st1" width="2" height="2"/>
<rect id="p" x="11" y="19" class="st1" width="2" height="2"/>
</svg>
