<?xml version="1.0" encoding="utf-8"?>
<!-- Generator: Adobe Illustrator 21.1.0, SVG Export Plug-In . SVG Version: 6.00 Build 0)  -->
<svg version="1.1" id="_x31_" xmlns="http://www.w3.org/2000/svg" xmlns:xlink="http://www.w3.org/1999/xlink" x="0px" y="0px"
	 viewBox="0 0 26 26" style="enable-background:new 0 0 26 26;" xml:space="preserve">
<style type="text/css">
	.st0{opacity:0.5;fill:#FFFFFF;enable-background:new    ;}
	.st1{fill:#FFFFFF;}
</style>
<path id="_x31__1_" class="st0" d="M7,20v-1h14v1H7z M7,17h14v1H7V17z M7,15h14v1H7V15z M7,13h14v1H7V13z M7,11h14v1H7V11z M5,19h1
	v1H5V19z M5,17h1v1H5V17z M5,15h1v1H5V15z M5,13h1v1H5V13z M5,11h1v1H5V11z"/>
<path id="_x30_" class="st1" d="M21,3H5C3.9,3,3,3.9,3,5v16c0,1.1,0.9,2,2,2h16c1.1,0,2-0.9,2-2V5C23,3.9,22.1,3,21,3z M6,20H5v-1h1
	V20z M6,18H5v-1h1V18z M6,16H5v-1h1V16z M6,14H5v-1h1V14z M6,12H5v-1h1V12z M21,20H7v-1h14V20z M21,18H7v-1h14V18z M21,16H7v-1h14
	V16z M21,14H7v-1h14V14z M21,12H7v-1h14V12z M21,9h-7H5V8V7c0-1.1,0.9-2,2-2h5c1.1,0,2,0.9,2,2v1h7V9z"/>
</svg>
