<?xml version="1.0" encoding="utf-8"?>
<!-- Generator: Adobe Illustrator 21.1.0, SVG Export Plug-In . SVG Version: 6.00 Build 0)  -->
<svg version="1.1" id="_x31_" xmlns="http://www.w3.org/2000/svg" xmlns:xlink="http://www.w3.org/1999/xlink" x="0px" y="0px"
	 viewBox="0 0 26 26" style="enable-background:new 0 0 26 26;" xml:space="preserve">
<style type="text/css">
	.st0{fill-rule:evenodd;clip-rule:evenodd;fill:#FFFFFF;}
	.st1{opacity:0.5;}
</style>
<g id="_x35_">
	<path id="_x36_" class="st0" d="M22,25H4c-0.6,0-1-0.4-1-1v-5c0-0.6,0.4-1,1-1h18c0.6,0,1,0.4,1,1v5C23,24.6,22.6,25,22,25z M9,20
		c0-0.6-0.4-1-1-1H5c-0.6,0-1,0.4-1,1v3c0,0.6,0.4,1,1,1h3c0.6,0,1-0.4,1-1V20z M21,21c0-0.6-0.4-1-1-1h-8c-0.6,0-1,0.4-1,1v1
		c0,0.6,0.4,1,1,1h8c0.6,0,1-0.4,1-1V21z M7,23H6v-1H5v-1h1v-1h1v1h1v1H7V23z M9,16H7v-2h2V16z M7,10h2v2H7V10z M22,8H4
		C3.4,8,3,7.6,3,7V2c0-0.6,0.4-1,1-1h18c0.6,0,1,0.4,1,1v5C23,7.6,22.6,8,22,8z M9,3c0-0.6-0.4-1-1-1H5C4.4,2,4,2.4,4,3v3
		c0,0.6,0.4,1,1,1h3c0.6,0,1-0.4,1-1V3z M21,4c0-0.6-0.4-1-1-1h-8c-0.6,0-1,0.4-1,1v1c0,0.6,0.4,1,1,1h8c0.6,0,1-0.4,1-1V4z M5,4h3
		v1H5V4z"/>
</g>
<g id="_x32_" class="st1">
	<path id="_x34_" class="st0" d="M11,10h12v2H11V10z"/>
	<path id="_x33__1_" class="st0" d="M11,14h12v2H11V14z"/>
</g>
</svg>
