<?xml version="1.0" encoding="utf-8"?>
<!-- Generator: Adobe Illustrator 21.1.0, SVG Export Plug-In . SVG Version: 6.00 Build 0)  -->
<svg version="1.1" id="_x30_" xmlns="http://www.w3.org/2000/svg" xmlns:xlink="http://www.w3.org/1999/xlink" x="0px" y="0px"
	 viewBox="0 0 26 26" style="enable-background:new 0 0 26 26;" xml:space="preserve">
<style type="text/css">
	.st0{fill-rule:evenodd;clip-rule:evenodd;fill:#FFFFFF;}
	.st1{fill-rule:evenodd;clip-rule:evenodd;fill:#0F2161;}
	.st2{fill:#FFFFFF;}
</style>
<path id="_x33_" class="st0" d="M2,6h22c1.1,0,2,0.9,2,2v10c0,1.1-0.9,2-2,2H2c-1.1,0-2-0.9-2-2V8C0,6.9,0.9,6,2,6z"/>
<path id="_x32_" class="st1" d="M22.5,12.8L22.5,12.8c0.5,0.1,0.8,0.2,1.1,0.5s0.4,0.5,0.4,0.9c0,0.5-0.2,1-0.6,1.3
	c-0.4,0.3-1,0.5-1.7,0.5c-0.6,0-1.2-0.1-1.6-0.3v-1c0.2,0.1,0.5,0.2,0.7,0.3c0.3,0.1,0.5,0.1,0.7,0.1c0.4,0,0.7-0.1,0.9-0.2
	c0.2-0.1,0.3-0.4,0.3-0.7c0-0.6-0.5-0.9-1.4-0.9h-0.4v-0.8h0.4c0.4,0,0.7-0.1,0.9-0.2c0.2-0.1,0.3-0.4,0.3-0.7
	c0-0.2-0.1-0.4-0.2-0.5c-0.1-0.1-0.3-0.2-0.6-0.2c-0.4,0-0.7,0.1-1.1,0.4L20,10.6c0.5-0.4,1.1-0.6,1.9-0.6c0.6,0,1.1,0.1,1.5,0.4
	s0.5,0.6,0.5,1c0,0.4-0.1,0.7-0.3,0.9C23.2,12.6,22.9,12.7,22.5,12.8z M16,18h-5c-1.1,0-2-0.9-2-2v-6c0-1.1,0.9-2,2-2h5
	c1.1,0,2,0.9,2,2v6C18,17.1,17.1,18,16,18z M4.7,12.5c0-0.4,0-0.8,0.1-1.3c0,0-0.1,0.1-0.2,0.3c-0.1,0.1-0.4,0.4-0.8,0.8L3,11.5
	L4.8,10H6v6H4.7V12.5z"/>
<path id="_x31_" class="st2" d="M16,15h-3v0c1-0.8,1.6-1.3,1.8-1.5c0.2-0.2,0.4-0.4,0.6-0.6c0.2-0.2,0.3-0.4,0.3-0.6
	c0.1-0.2,0.1-0.4,0.1-0.6c0-0.5-0.2-0.9-0.6-1.2c-0.4-0.3-1-0.4-1.7-0.4c-0.4,0-0.8,0.1-1.2,0.2c-0.4,0.1-0.8,0.3-1.2,0.7l1,0.6
	c0.3-0.2,0.5-0.3,0.7-0.4C12.8,11,13,11,13.2,11c0.3,0,0.5,0.1,0.6,0.2c0.2,0.1,0.2,0.3,0.2,0.5c0,0.2,0,0.4-0.1,0.6
	c-0.1,0.2-0.2,0.4-0.4,0.6c-0.2,0.2-0.5,0.5-0.9,0.9L11,15.2V16H16V15z"/>
</svg>
