<?xml version="1.0" encoding="utf-8"?>
<!-- Generator: Adobe Illustrator 23.1.0, SVG Export Plug-In . SVG Version: 6.00 Build 0)  -->
<svg version="1.1" id="_x31_" xmlns="http://www.w3.org/2000/svg" xmlns:xlink="http://www.w3.org/1999/xlink" x="0px" y="0px"
	 viewBox="0 0 16 16" style="enable-background:new 0 0 16 16;" xml:space="preserve">
<path id="_x32_" d="M11.8,7.8c1-0.7,1.7-1.8,1.7-2.8c0-2.3-1.8-4-4.1-4H3v14h7.2c2.1,0,3.8-1.7,3.8-3.8C14,9.7,13.1,8.4,11.8,7.8z
	 M6,3h3.3C10.3,3,11,3.9,11,5c0,1.1-0.7,2-1.7,2H6V3z M9.5,13H6V9h3.5c0.8,0,1.5,0.9,1.5,2C11,12.1,10.3,13,9.5,13z"/>
</svg>
