<?xml version="1.0" encoding="utf-8"?>
<!-- Generator: Adobe Illustrator 24.2.1, SVG Export Plug-In . SVG Version: 6.00 Build 0)  -->
<svg version="1.1" id="_x31_" xmlns="http://www.w3.org/2000/svg" xmlns:xlink="http://www.w3.org/1999/xlink" x="0px" y="0px"
	 viewBox="0 0 18 18" style="enable-background:new 0 0 18 18;" xml:space="preserve">
<style type="text/css">
	.st0{fill:#010101;}
</style>
<path id="_x32_" class="st0" d="M10.5,11.5H6.9v-3h3.7c0.8,0,1.5,0.7,1.5,1.5S11.4,11.5,10.5,11.5 M6.9,2.5h3.2
	c0.8,0,1.5,0.7,1.5,1.5s-0.7,1.5-1.5,1.5H6.9V2.5z M12.7,6.8c1-0.7,1.7-1.8,1.7-2.8c0-2.3-1.9-4-4.2-4H4v14h7.1
	c2.2,0,3.9-1.7,3.9-3.8C15,8.7,14.1,7.4,12.7,6.8z"/>
</svg>
