<?xml version="1.0" encoding="utf-8"?>
<!-- Generator: Adobe Illustrator 21.1.0, SVG Export Plug-In . SVG Version: 6.00 Build 0)  -->
<svg version="1.1" id="_x31_" xmlns="http://www.w3.org/2000/svg" xmlns:xlink="http://www.w3.org/1999/xlink" x="0px" y="0px"
	 viewBox="0 0 26 26" style="enable-background:new 0 0 26 26;" xml:space="preserve">
<style type="text/css">
	.st0{fill-rule:evenodd;clip-rule:evenodd;fill:#FFFFFF;}
</style>
<path id="_x32_" class="st0" d="M21,18H5c-1.1,0-2-0.9-2-2v-6c0-1.1,0.9-2,2-2h16c1.1,0,2,0.9,2,2v6C23,17.1,22.1,18,21,18z M21,11
	c0-0.6-0.4-1-1-1H6c-0.6,0-1,0.4-1,1v4c0,0.6,0.4,1,1,1h14c0.6,0,1-0.4,1-1V11z M18,14h-6c-0.6,0-1-0.4-1-1c0-0.6,0.4-1,1-1h6
	c0.6,0,1,0.4,1,1C19,13.6,18.6,14,18,14z M8,14c-0.6,0-1-0.4-1-1c0-0.6,0.4-1,1-1s1,0.4,1,1C9,13.6,8.6,14,8,14z"/>
</svg>
