<?xml version="1.0" encoding="utf-8"?>
<!-- Generator: Adobe Illustrator 24.2.1, SVG Export Plug-In . SVG Version: 6.00 Build 0)  -->
<svg version="1.1" id="_x31_" xmlns="http://www.w3.org/2000/svg" xmlns:xlink="http://www.w3.org/1999/xlink" x="0px" y="0px"
	 viewBox="0 0 16 16" style="enable-background:new 0 0 16 16;" xml:space="preserve">
<style type="text/css">
	.st0{fill-rule:evenodd;clip-rule:evenodd;fill:#010101;}
</style>
<path id="_x32_" class="st0" d="M14,16H2c-1.1,0-2-0.9-2-2V4c0-1.1,0.9-2,2-2h1V0h2v2h6V0h2v2h1c1.1,0,2,0.9,2,2v10
	C16,15.1,15.1,16,14,16z M5,7H3v2h2V7z M5,11H3v2h2V11z M9,7H7v2h2V7z M9,11H7v2h2V11z M13,7h-2v2h2V7z M13,11h-2v2h2V11z"/>
</svg>
