<?xml version="1.0" encoding="utf-8"?>
<!-- Generator: Adobe Illustrator 21.1.0, SVG Export Plug-In . SVG Version: 6.00 Build 0)  -->
<svg version="1.1" id="_x31_" xmlns="http://www.w3.org/2000/svg" xmlns:xlink="http://www.w3.org/1999/xlink" x="0px" y="0px"
	 viewBox="0 0 26 26" style="enable-background:new 0 0 26 26;" xml:space="preserve">
<style type="text/css">
	.st0{fill-rule:evenodd;clip-rule:evenodd;fill:#FFFFFF;}
	.st1{fill-rule:evenodd;clip-rule:evenodd;fill:#0F2161;}
	.st2{opacity:0.5;fill-rule:evenodd;clip-rule:evenodd;fill:#0F2161;}
</style>
<path id="_x33_" class="st0" d="M5,3h16c1.1,0,2,0.9,2,2v16c0,1.1-0.9,2-2,2H5c-1.1,0-2-0.9-2-2V5C3,3.9,3.9,3,5,3z"/>
<path id="_x32_" class="st1" d="M20,21h-5c-0.6,0-1-0.4-1-1v-4h7v4C21,20.6,20.6,21,20,21z M20,12h-5c-0.6,0-1-0.4-1-1V7h7v4
	C21,11.6,20.6,12,20,12z M11,21H6c-0.6,0-1-0.4-1-1v-4h7v4C12,20.6,11.6,21,11,21z M11,12H6c-0.6,0-1-0.4-1-1V7h7v4
	C12,11.6,11.6,12,11,12z"/>
<path id="_x31__1_" class="st2" d="M14,16v-1c0-0.6,0.4-1,1-1h5c0.6,0,1,0.4,1,1v1H14z M14,6c0-0.6,0.4-1,1-1h5c0.6,0,1,0.4,1,1v1
	h-7V6z M5,15c0-0.6,0.4-1,1-1h5c0.6,0,1,0.4,1,1v1H5V15z M5,6c0-0.6,0.4-1,1-1h5c0.6,0,1,0.4,1,1v1H5V6z"/>
</svg>
