<?xml version="1.0" encoding="utf-8"?>
<!-- Generator: Adobe Illustrator 24.2.1, SVG Export Plug-In . SVG Version: 6.00 Build 0)  -->
<svg version="1.1" id="_x31_" xmlns="http://www.w3.org/2000/svg" xmlns:xlink="http://www.w3.org/1999/xlink" x="0px" y="0px"
	 viewBox="0 0 16 16" style="enable-background:new 0 0 16 16;" xml:space="preserve">
<style type="text/css">
	.st0{fill:#FFFFFF;}
</style>
<g id="_x32_">
	<path id="_x33_" class="st0" d="M0,5V3h2V2c0-1.1,0.9-2,2-2h4v7l2.5-1.5L13,7V0h1c1.1,0,2,0.9,2,2v12c0,1.1-0.9,2-2,2H4
		c-1,0-2-0.9-2-2v-1H0v-2h2V9H0V7h2V5H0 M4,7H2v2h2V7 M4,5V3H2v2H4 M4,13v-2H2v2H4z"/>
</g>
</svg>
