<svg width="16" height="16" viewBox="0 0 16 16" fill="none" xmlns="http://www.w3.org/2000/svg">
    <g clip-path="url(#clip0_707_4462)">
        <path d="M15.8 9.8C15.3 9.1 14.1 8.7 12.2 8.7C11.4 8.7 10.7 8.8 10.4 8.8C9.59997 8.3 9.09998 7.5 8.49998 6.3C8.99998 4.7 9.69998 2 8.79998 0.7C8.39998 0.2 7.89998 0 7.29998 0C6.69998 0 6.19998 0.2 5.89998 0.7C5.09998 1.9 5.99998 4.8 6.69998 6.3C6.19998 7.8 5.59998 9.2 4.99998 10.3H4.89998C2.99998 11.1 0.399976 12.3 -2.44156e-05 13.8C-0.100024 14.3 0.0999756 14.9 0.599976 15.3C1.09998 15.8 1.49998 16 2.09998 16C3.99998 16 5.59998 13.2 6.39998 11.5C7.09998 11.3 9.39998 10.6 10.1 10.5C11.3 11.8 12.9 12.6 14.1 12.6C15 12.6 15.7 12.1 15.9 11.3C16.1 10.7 16 10.2 15.8 9.8ZM14.5 10.6C14.5 10.8 14.3 11 13.9 11C13.2 11 12.1 10.5 11.5 10C11.8 10 12.2 10 12.5 10C13.9 10 14.3 10.2 14.4 10.4C14.5 10.4 14.5 10.5 14.5 10.6ZM7.39998 4.2C6.89998 3 6.79998 1.8 7.09998 1.3C7.19998 1.2 7.29998 1.1 7.39998 1.1C7.49998 1.1 7.59998 1.1 7.69998 1.3C7.99998 1.8 7.69998 3.2 7.39998 4.2ZM7.99998 8C8.19998 8.3 8.59998 8.8 8.99998 9.3C8.69998 9.3 8.09998 9.5 7.59998 9.6C7.49998 9.6 7.29998 9.7 7.19998 9.7C7.49998 9.3 7.79998 8.5 7.99998 8ZM1.39998 14.2C1.49998 13.6 2.89998 12.6 4.29998 11.9C3.49998 13.2 2.39998 14.5 1.69998 14.5C1.59998 14.5 1.49998 14.5 1.49998 14.4C1.39998 14.4 1.39998 14.3 1.39998 14.2Z" fill="#434343"/>
    </g>
    <defs>
        <clipPath id="clip0_707_4462">
            <rect width="16" height="16" fill="white"/>
        </clipPath>
    </defs>
</svg>
