<svg width="16" height="16" viewBox="0 0 16 16" fill="none" xmlns="http://www.w3.org/2000/svg">
    <path d="M4 12L6 9L6.94739 10.4211L9 7L12 12H4Z" fill="#424242"/>
    <path d="M6.5 7C7.32837 7 8 6.32843 8 5.5C8 4.67157 7.32837 4 6.5 4C5.67163 4 5 4.67157 5 5.5C5 6.32843 5.67163 7 6.5 7Z" fill="#424242"/>
    <path fill-rule="evenodd" clip-rule="evenodd" d="M0 2C0 0.895447 0.895386 0 2 0H14C15.1046 0 16 0.895447 16 2V14C16 15.1046 15.1046 16 14 16H2C0.895386 16 0 15.1046 0 14V2ZM2 2H14V14H2V2Z" fill="#424242"/>
</svg>
