<svg width="20" height="20" viewBox="0 0 20 20" fill="none" xmlns="http://www.w3.org/2000/svg">
    <path d="M13.416 20V19.7507V16.2936C13.416 15.1178 12.9869 14.3514 12.5174 13.9609C15.4349 13.6491 18.4998 12.5835 18.4998 7.74484C18.4998 6.36956 17.992 5.24519 17.1513 4.36333C17.2867 4.04629 17.7354 2.76444 17.0224 1.02907C17.0224 1.02907 15.924 0.691027 13.4225 2.32036C12.3754 2.04111 11.2541 1.90148 10.1403 1.89623C9.02663 1.90148 7.90637 2.04111 6.86144 2.32036C4.35777 0.691027 3.25716 1.02907 3.25716 1.02907C2.54526 2.76339 2.99402 4.04524 3.12941 4.36333C2.29194 5.24519 1.77985 6.36851 1.77985 7.74484C1.77985 12.5709 4.83929 13.6512 7.74914 13.9714C7.37353 14.2853 7.03396 14.8417 6.91713 15.6553C6.16919 15.9776 4.27261 16.534 3.1043 14.6086C3.1043 14.6086 2.41205 13.3982 1.09634 13.31C1.09634 13.31 -0.183343 13.2932 1.00571 14.0753C1.00571 14.0753 1.86502 14.4627 2.46118 15.9188C2.46118 15.9188 3.22004 18.1676 6.86472 17.4054V19.7507C6.86472 19.918 6.86472 20 6.86472 20C8.99976 20 11.4998 20 13.416 20Z" fill="white"/>
</svg>
