<?xml version="1.0" encoding="utf-8"?>
<!-- Generator: Adobe Illustrator 21.1.0, SVG Export Plug-In . SVG Version: 6.00 Build 0)  -->
<svg version="1.1" id="1" xmlns="http://www.w3.org/2000/svg" xmlns:xlink="http://www.w3.org/1999/xlink" x="0px" y="0px"
	 viewBox="0 0 26 26" style="enable-background:new 0 0 26 26;" xml:space="preserve">
<style type="text/css">
	.st0{fill-rule:evenodd;clip-rule:evenodd;fill:#FFFFFF;}
	.st1{fill-rule:evenodd;clip-rule:evenodd;fill:#0F2161;}
	.st2{opacity:0.5;fill-rule:evenodd;clip-rule:evenodd;fill:#0F2161;}
</style>
<path id="_x33_" class="st0" d="M5,3h16c1.1,0,2,0.9,2,2v16c0,1.1-0.9,2-2,2H5c-1.1,0-2-0.9-2-2V5C3,3.9,3.9,3,5,3z"/>
<path id="_x32_" class="st1" d="M20,7H6C5.4,7,5,6.6,5,6s0.4-1,1-1h14c0.6,0,1,0.4,1,1S20.6,7,20,7z M16,11h-6V9h6V11z M16,14h-6v-2
	h6V14z M16,17h-6v-2h6V17z M16,20h-6v-2h6V20z"/>
<path id="_x31_" class="st2" d="M17,20v-2h4v2H17z M17,15h4v2h-4V15z M17,12h4v2h-4V12z M17,9h4v2h-4V9z M5,18h4v2H5V18z M5,15h4v2
	H5V15z M5,12h4v2H5V12z M5,9h4v2H5V9z"/>
</svg>
