<?xml version="1.0" encoding="utf-8"?>
<!-- Generator: Adobe Illustrator 23.1.0, SVG Export Plug-In . SVG Version: 6.00 Build 0)  -->
<svg version="1.1" id="_x31_" xmlns="http://www.w3.org/2000/svg" xmlns:xlink="http://www.w3.org/1999/xlink" x="0px" y="0px"
	 viewBox="0 0 32 32" style="enable-background:new 0 0 32 32;" xml:space="preserve">
<style type="text/css">
	.st0{fill-rule:evenodd;clip-rule:evenodd;fill:#FFFFFF;}
</style>
<g id="_x32_">
	<path id="_x33_" class="st0" d="M23,32H9c-2.2,0-4-1.8-4-4V4c0-2.2,1.8-4,4-4h14c2.2,0,4,1.8,4,4v24C27,30.2,25.2,32,23,32z M25,4
		c0-1.1-0.9-2-2-2h-3c0,1.1-0.9,2-2,2h-4c-1.1,0-2-0.9-2-2H9C7.9,2,7,2.9,7,4v24c0,1.1,0.9,2,2,2h14c1.1,0,2-0.9,2-2V4z"/>
</g>
</svg>
