<?xml version="1.0" encoding="utf-8"?>
<!-- Generator: Adobe Illustrator 23.1.0, SVG Export Plug-In . SVG Version: 6.00 Build 0)  -->
<svg version="1.1" id="_x31_" xmlns="http://www.w3.org/2000/svg" xmlns:xlink="http://www.w3.org/1999/xlink" x="0px" y="0px"
	 viewBox="0 0 24 24" style="enable-background:new 0 0 24 24;" xml:space="preserve">
<style type="text/css">
	.st0{fill-rule:evenodd;clip-rule:evenodd;fill:#0B0B0C;}
</style>
<g id="_x32_">
	<g>
		<path class="st0" d="M5.2,9.7C5,9.9,4.9,10.1,4.9,10.3s0.1,0.4,0.2,0.6l1.8,1.8c0.3,0.3,0.5,0.8,0.5,1.3c-0.1,0.5-0.3,0.9-0.7,1.2
			C1.5,18.4,1,18.8,0.9,19c-1.1,1.1-1.1,3,0,4.1c1.1,1.1,3,1.1,4.1,0c0.2-0.2,0.6-0.6,3.9-5.8c0.3-0.4,0.7-0.7,1.2-0.7
			c0.5-0.1,0.9,0.1,1.3,0.5l1.8,1.8c0.3,0.3,0.8,0.3,1.1,0l1.9-1.9L7,7.9L5.2,9.7z M3.8,21.8c-0.4,0.4-1.2,0.4-1.6,0
			c-0.4-0.4-0.4-1.2,0-1.6c0.4-0.4,1.2-0.4,1.6,0C4.2,20.7,4.2,21.4,3.8,21.8z M23.8,8.2L22.6,7L20,9.6c-0.5,0.5-1.2,0.5-1.7,0
			s-0.5-1.2,0-1.7L21,5.4l-5.1-5.2c-0.3-0.3-0.8-0.3-1.1,0L8.2,6.7l9.1,9.1l6.4-6.4C24.1,9,24.1,8.5,23.8,8.2z"/>
	</g>
</g>
</svg>
