<svg width="16" height="16" viewBox="0 0 16 16" fill="none" xmlns="http://www.w3.org/2000/svg">
<g clip-path="url(#clip0_904_4828)">
<path fill-rule="evenodd" clip-rule="evenodd" d="M3.46669 6.46673C3.33335 6.60006 3.26669 6.7334 3.26669 6.86673C3.26669 7.00007 3.33335 7.1334 3.40002 7.26673L4.60002 8.46673C4.80002 8.66673 4.93335 9.00006 4.93335 9.3334C4.86669 9.66673 4.73335 9.9334 4.46669 10.1334C1.00002 12.2667 0.666685 12.5334 0.600018 12.6667C-0.133315 13.4001 -0.133315 14.6667 0.600018 15.4001C1.33335 16.1334 2.60002 16.1334 3.33335 15.4001C3.46669 15.2667 3.73335 15.0001 5.93335 11.5334C6.13335 11.2667 6.40002 11.0667 6.73335 11.0667C7.06669 11.0001 7.33335 11.1334 7.60002 11.4001L8.80002 12.6001C9.00002 12.8001 9.33335 12.8001 9.53335 12.6001L10.8 11.3334L4.66669 5.26673L3.46669 6.46673ZM2.53335 14.5334C2.26669 14.8001 1.73335 14.8001 1.46669 14.5334C1.20002 14.2667 1.20002 13.7334 1.46669 13.4667C1.73335 13.2001 2.26669 13.2001 2.53335 13.4667C2.80002 13.8001 2.80002 14.2667 2.53335 14.5334ZM15.8667 5.46673L15.0667 4.66673L13.3334 6.40007C13 6.7334 12.5334 6.7334 12.2 6.40007C11.8667 6.06673 11.8667 5.60007 12.2 5.26673L14 3.60007L10.6 0.133398C10.4 -0.0666016 10.0667 -0.0666016 9.86669 0.133398L5.46669 4.46673L11.5334 10.5334L15.8 6.26673C16.0667 6.00006 16.0667 5.66673 15.8667 5.46673Z" fill="black"/>
</g>
<defs>
<clipPath id="clip0_904_4828">
<rect width="16" height="16" fill="white"/>
</clipPath>
</defs>
</svg>
