<?xml version="1.0" encoding="utf-8"?>
<!-- Generator: Adobe Illustrator 21.1.0, SVG Export Plug-In . SVG Version: 6.00 Build 0)  -->
<svg version="1.1" id="_x31_" xmlns="http://www.w3.org/2000/svg" xmlns:xlink="http://www.w3.org/1999/xlink" x="0px" y="0px"
	 viewBox="0 0 26 26" style="enable-background:new 0 0 26 26;" xml:space="preserve">
<style type="text/css">
	.st0{fill-rule:evenodd;clip-rule:evenodd;fill:#FFFFFF;}
	.st1{opacity:0.5;}
</style>
<g>
	<path class="st0" d="M23,25H3c-0.6,0-1-0.4-1-1V14c0-0.6,0.4-1,1-1h7l3-4l3,4h7c0.6,0,1,0.4,1,1v10C24,24.6,23.6,25,23,25z M6,15H4
		v2h2V15z M6,18H4v2h2V18z M6,21H4v2h2V21z M22,15H8v2h14V15z M22,18H8v2h14V18z M22,21H8v2h14V21z M23,8h-4c-0.6,0-1-0.4-1-1V3
		c0-0.6,0.4-1,1-1h4c0.6,0,1,0.4,1,1v4C24,7.6,23.6,8,23,8z M7,8H3C2.4,8,2,7.6,2,7V3c0-0.6,0.4-1,1-1h4c0.6,0,1,0.4,1,1v4
		C8,7.6,7.6,8,7,8z"/>
</g>
<g class="st1">
	<path class="st0" d="M11,2h4c0.6,0,1,0.4,1,1v4c0,0.6-0.4,1-1,1h-4c-0.6,0-1-0.4-1-1V3C10,2.4,10.4,2,11,2z"/>
</g>
</svg>
