<?xml version="1.0" encoding="utf-8"?>
<!-- Generator: Adobe Illustrator 24.2.1, SVG Export Plug-In . SVG Version: 6.00 Build 0)  -->
<svg version="1.1" id="_x31_" xmlns="http://www.w3.org/2000/svg" xmlns:xlink="http://www.w3.org/1999/xlink" x="0px" y="0px"
	 viewBox="0 0 16 16" style="enable-background:new 0 0 16 16;" xml:space="preserve">
<style type="text/css">
	.st0{fill:#FFFFFF;}
</style>
<g id="_x32_">
	<path id="_x33_" class="st0" d="M8,13.8c-2,0-3.8-1-4.8-2.6c0-1.6,3.2-2.5,4.8-2.5c1.6,0,4.8,0.9,4.8,2.5C11.8,12.7,10,13.8,8,13.8
		 M8,2.4c1.3,0,2.4,1.1,2.4,2.4S9.3,7.2,8,7.2c-1.3,0-2.4-1.1-2.4-2.4S6.7,2.4,8,2.4 M8,0C3.6,0,0,3.6,0,8s3.6,8,8,8
		c4.4,0,8-3.6,8-8C16,3.6,12.4,0,8,0z"/>
</g>
</svg>
