<svg version="1.1" xmlns="http://www.w3.org/2000/svg" xmlns:xlink="http://www.w3.org/1999/xlink" width="182" height="33"><defs/><g><path fill="rgb(255,255,255)" stroke="none" paint-order="stroke fill markers" fill-rule="evenodd" d=" M 43.08076477050781 5.9848058223724365 C 41.233116149902344 5.9848058223724365 39.385353088378906 6.106903910636902 37.99958801269531 6.473255932331085 C 37.99958801269531 6.473255932331085 37.99958801269531 26.744079887866974 37.99958801269531 26.744079887866974 C 39.0389404296875 26.86617797613144 40.424705505371094 26.988276064395905 42.27246856689453 26.988276064395905 C 45.62146759033203 26.988276064395905 48.39299774169922 26.133473932743073 50.12517547607422 24.423927426338196 C 51.62652587890625 22.95857709646225 53.012290954589844 20.394170701503754 53.012290954589844 15.998119711875916 C 53.012290954589844 12.212616920471191 51.972938537597656 9.77030861377716 50.12517547607422 8.060762107372284 C 48.50846862792969 6.5953540205955505 46.314292907714844 5.9848058223724365 43.08076477050781 5.9848058223724365 Z M 43.19635009765625 23.69122338294983 C 42.734352111816406 23.69122338294983 42.15699768066406 23.69122338294983 41.69499969482422 23.569125294685364 C 41.69499969482422 23.569125294685364 41.69499969482422 9.159760415554047 41.69499969482422 9.159760415554047 C 42.15699768066406 9.037662327289581 42.734352111816406 9.037662327289581 43.42729187011719 9.037662327289581 C 46.891761779785156 9.037662327289581 49.0859375 11.35781478881836 49.0859375 15.998119711875916 C 49.20140838623047 21.37107092142105 46.77629089355469 23.813321471214294 43.19635009765625 23.69122338294983 Z M 62.3885498046875 12.007348895072937 C 58.27439880371094 12.007348895072937 55.988670349121094 15.546229720115662 55.988670349121094 19.674981772899628 C 55.988670349121094 24.15761035680771 58.50293731689453 26.988680362701416 62.731414794921875 26.988680362701416 C 64.44573974609375 26.988680362701416 66.04562377929688 26.6348038315773 67.3027572631836 26.16298770904541 C 67.3027572631836 26.16298770904541 66.73135375976562 23.567739129066467 66.73135375976562 23.567739129066467 C 65.81708526611328 23.92167341709137 64.67427825927734 24.15761035680771 63.302818298339844 24.15761035680771 C 61.24574279785156 24.15761035680771 59.531532287597656 23.213862597942352 59.531532287597656 20.73666912317276 C 59.531532287597656 20.73666912317276 67.87416076660156 20.73666912317276 67.87416076660156 20.73666912317276 C 67.98848724365234 20.264795243740082 67.98848724365234 19.792921364307404 67.98848724365234 19.20310789346695 C 67.98848724365234 14.484600126743317 65.81708526611328 12.007348895072937 62.3885498046875 12.007348895072937 Z M 59.531532287597656 18.02348095178604 C 59.64574432373047 16.607917070388794 60.33147430419922 14.720479309558868 62.160011291503906 14.720479309558868 C 63.988548278808594 14.720479309558868 64.55995178222656 16.607917070388794 64.55995178222656 18.02348095178604 C 64.55995178222656 18.02348095178604 59.531532287597656 18.02348095178604 59.531532287597656 18.02348095178604 Z M 79.15723419189453 11.99724143743515 C 79.15723419189453 11.99724143743515 77.46099090576172 19.248216032981873 77.46099090576172 19.248216032981873 C 77.12178802490234 20.60007405281067 76.89553833007812 21.829025387763977 76.66940307617188 23.058034479618073 C 76.66940307617188 23.058034479618073 76.55633544921875 23.058034479618073 76.55633544921875 23.058034479618073 C 76.3302001953125 21.70611870288849 76.10395050048828 20.47716736793518 75.7647476196289 19.248216032981873 C 75.7647476196289 19.248216032981873 73.955322265625 11.99724143743515 73.955322265625 11.99724143743515 C 73.955322265625 11.99724143743515 69.99738311767578 11.99724143743515 69.99738311767578 11.99724143743515 C 69.99738311767578 11.99724143743515 74.63384246826172 26.990701854228973 74.63384246826172 26.990701854228973 C 74.63384246826172 26.990701854228973 78.25257873535156 26.990701854228973 78.25257873535156 26.990701854228973 C 78.25257873535156 26.990701854228973 83.00210571289062 11.99724143743515 83.00210571289062 11.99724143743515 C 83.00210571289062 11.99724143743515 79.15723419189453 11.99724143743515 79.15723419189453 11.99724143743515 Z M 90.075927734375 17.68086701631546 C 90.075927734375 17.68086701631546 97.23374938964844 17.68086701631546 97.23374938964844 17.68086701631546 C 97.23374938964844 17.68086701631546 97.23374938964844 14.449310660362244 97.23374938964844 14.449310660362244 C 97.23374938964844 14.449310660362244 90.075927734375 14.449310660362244 90.075927734375 14.449310660362244 C 90.075927734375 14.449310660362244 90.075927734375 9.353361546993256 90.075927734375 9.353361546993256 C 90.075927734375 9.353361546993256 97.61712646484375 9.353361546993256 97.61712646484375 9.353361546993256 C 97.61712646484375 9.353361546993256 97.61712646484375 5.997512340545654 97.61712646484375 5.997512340545654 C 97.61712646484375 5.997512340545654 85.9856948852539 5.997512340545654 85.9856948852539 5.997512340545654 C 85.9856948852539 5.997512340545654 85.9856948852539 27.002657532691956 85.9856948852539 27.002657532691956 C 85.9856948852539 27.002657532691956 98.00061798095703 27.002657532691956 98.00061798095703 27.002657532691956 C 98.00061798095703 27.002657532691956 98.00061798095703 23.52251547574997 98.00061798095703 23.52251547574997 C 98.00061798095703 23.52251547574997 90.075927734375 23.52251547574997 90.075927734375 23.52251547574997 C 90.075927734375 23.52251547574997 90.075927734375 17.68086701631546 90.075927734375 17.68086701631546 Z M 111.99937438964844 11.99724143743515 C 111.99937438964844 11.99724143743515 108.04887390136719 11.99724143743515 108.04887390136719 11.99724143743515 C 108.04887390136719 11.99724143743515 106.77079772949219 14.681089103221893 106.77079772949219 14.681089103221893 C 106.42221069335938 15.413042306900024 106.07373809814453 16.267035841941833 105.72515106201172 17.120971620082855 C 105.72515106201172 17.120971620082855 105.72515106201172 17.120971620082855 105.72515106201172 17.120971620082855 C 105.3765640258789 16.389018416404724 105.0279769897461 15.535082638263702 104.67938995361328 14.803071677684784 C 104.67938995361328 14.803071677684784 103.28515625 12.11922401189804 103.28515625 12.11922401189804 C 103.28515625 12.11922401189804 99.10234069824219 12.11922401189804 99.10234069824219 12.11922401189804 C 99.10234069824219 12.11922401189804 103.28515625 19.438871562480927 103.28515625 19.438871562480927 C 103.28515625 19.438871562480927 98.9861831665039 27.002484261989594 98.9861831665039 27.002484261989594 C 98.9861831665039 27.002484261989594 103.05272674560547 27.002484261989594 103.05272674560547 27.002484261989594 C 103.05272674560547 27.002484261989594 104.21464538574219 24.07461369037628 104.21464538574219 24.07461369037628 C 104.563232421875 23.34266048669815 104.91181945800781 22.48872470855713 105.26040649414062 21.75671374797821 C 105.26040649414062 21.75671374797821 105.26040649414062 21.75671374797821 105.26040649414062 21.75671374797821 C 105.60887908935547 22.61070728302002 105.95746612548828 23.34266048669815 106.3060531616211 24.07461369037628 C 106.3060531616211 24.07461369037628 107.70028686523438 27.002484261989594 107.70028686523438 27.002484261989594 C 107.70028686523438 27.002484261989594 111.88310241699219 27.002484261989594 111.88310241699219 27.002484261989594 C 111.88310241699219 27.002484261989594 107.81655883789062 19.194848656654358 107.81655883789062 19.194848656654358 C 107.81655883789062 19.194848656654358 111.99937438964844 11.99724143743515 111.99937438964844 11.99724143743515 Z M 122.20361328125 11.395010232925415 C 120.29943084716797 11.395010232925415 118.87120819091797 12.228557825088501 117.91905975341797 13.657521307468414 C 117.91905975341797 13.657521307468414 117.91905975341797 13.657521307468414 117.91905975341797 13.657521307468414 C 117.91905975341797 13.657521307468414 117.68113708496094 11.633141934871674 117.68113708496094 11.633141934871674 C 117.68113708496094 11.633141934871674 114.3487319946289 11.633141934871674 114.3487319946289 11.633141934871674 C 114.3487319946289 11.633141934871674 113.99991607666016 31.999957859516144 113.99991607666016 31.999957859516144 C 113.99991607666016 31.999957859516144 117.27613067626953 31.995568335056305 117.27613067626953 31.995568335056305 C 117.27613067626953 31.995568335056305 118.27611541748047 24.73177170753479 118.27611541748047 24.73177170753479 C 118.27611541748047 24.73177170753479 118.27611541748047 24.73177170753479 118.27611541748047 24.73177170753479 C 118.87120819091797 25.6844140291214 120.18041229248047 26.398866891860962 121.7275390625 26.398866891860962 C 124.70288848876953 26.398866891860962 127.67823791503906 24.017318844795227 127.67823791503906 18.65880686044693 C 127.67823791503906 14.371974170207977 125.29798126220703 11.395010232925415 122.20361328125 11.395010232925415 Z M 120.775390625 23.540997684001923 C 119.46630096435547 23.540997684001923 118.15709686279297 22.469318389892578 118.15709686279297 20.444939017295837 C 118.15709686279297 20.444939017295837 118.15709686279297 17.70616453886032 118.15709686279297 17.70616453886032 C 118.15709686279297 15.919974625110626 119.34728240966797 14.4910688996315 120.775390625 14.4910688996315 C 122.6796875 14.4910688996315 123.63172149658203 16.39629578590393 123.63172149658203 19.01603329181671 C 123.75074005126953 21.51667606830597 122.7987060546875 23.540997684001923 120.775390625 23.540997684001923 Z M 133.52445220947266 14.975707054138184 C 133.52445220947266 14.975707054138184 133.52445220947266 14.975707054138184 133.52445220947266 14.975707054138184 C 133.52445220947266 14.975707054138184 133.288818359375 12.475064277648926 133.288818359375 12.475064277648926 C 133.288818359375 12.475064277648926 129.99085998535156 12.475064277648926 129.99085998535156 12.475064277648926 C 129.99085998535156 13.784933030605316 130.1086196899414 15.21389651298523 130.1086196899414 17.000028669834137 C 130.1086196899414 17.000028669834137 130.1086196899414 27.002657532691956 130.1086196899414 27.002657532691956 C 130.1086196899414 27.002657532691956 133.99549102783203 27.002657532691956 133.99549102783203 27.002657532691956 C 133.99549102783203 27.002657532691956 133.99549102783203 19.38163447380066 133.99549102783203 19.38163447380066 C 133.99549102783203 16.8809916973114 135.29119110107422 15.690217673778534 137.05792999267578 15.690217673778534 C 137.41132354736328 15.690217673778534 137.76471710205078 15.690217673778534 138.00023651123047 15.80925464630127 C 138.00023651123047 15.80925464630127 138.00023651123047 12.117837846279144 138.00023651123047 12.117837846279144 C 137.76471710205078 12.117837846279144 137.52908325195312 11.998743116855621 137.1758041381836 11.998743116855621 C 135.76234436035156 12.117837846279144 134.2311248779297 13.070480167865753 133.52445220947266 14.975707054138184 Z M 146.40111541748047 12.007348895072937 C 142.28684997558594 12.007348895072937 140.00123596191406 15.546229720115662 140.00123596191406 19.674981772899628 C 140.00123596191406 24.15761035680771 142.51538848876953 26.988680362701416 146.74398040771484 26.988680362701416 C 148.45819091796875 26.988680362701416 150.05818939208984 26.6348038315773 151.31532287597656 26.16298770904541 C 151.31532287597656 26.16298770904541 150.7439193725586 23.567739129066467 150.7439193725586 23.567739129066467 C 149.82965087890625 23.92167341709137 148.68672943115234 24.15761035680771 147.3153839111328 24.15761035680771 C 145.25830841064453 24.15761035680771 143.65830993652344 23.213862597942352 143.54398345947266 20.73666912317276 C 143.54398345947266 20.73666912317276 151.88672637939453 20.73666912317276 151.88672637939453 20.73666912317276 C 152.0010528564453 20.264795243740082 152.0010528564453 19.792921364307404 152.0010528564453 19.20310789346695 C 152.0010528564453 14.484600126743317 149.82965087890625 12.007348895072937 146.40111541748047 12.007348895072937 Z M 143.54398345947266 18.02348095178604 C 143.65830993652344 16.607917070388794 144.3440399169922 14.720479309558868 146.17257690429688 14.720479309558868 C 148.00111389160156 14.720479309558868 148.57251739501953 16.607917070388794 148.57251739501953 18.02348095178604 C 148.57251739501953 18.02348095178604 143.54398345947266 18.02348095178604 143.54398345947266 18.02348095178604 Z M 160.47071075439453 18.145636796951294 C 158.7627944946289 17.436382055282593 158.15282440185547 17.081754684448242 158.15282440185547 16.25427156686783 C 158.15282440185547 15.426788449287415 158.7627944946289 14.835762083530426 159.98273468017578 14.835762083530426 C 161.08068084716797 14.835762083530426 162.17862701416016 15.190389454364777 162.7885971069336 15.545016825199127 C 162.7885971069336 15.545016825199127 163.52056121826172 12.826226234436035 163.52056121826172 12.826226234436035 C 162.6666030883789 12.353370487689972 161.32466888427734 11.998743116855621 159.8607406616211 11.998743116855621 C 156.5670166015625 11.998743116855621 154.37112426757812 14.008278965950012 154.37112426757812 16.60889893770218 C 154.37112426757812 18.145636796951294 155.34707641601562 19.68231689929962 158.15282440185547 20.864427387714386 C 159.7387466430664 21.573682129383087 160.34871673583984 22.04653787612915 160.34871673583984 22.873963236808777 C 160.34871673583984 23.70144635438919 159.7387466430664 24.29247272014618 158.27481842041016 24.29247272014618 C 157.05487823486328 24.29247272014618 155.591064453125 23.819674730300903 154.7371063232422 23.34681898355484 C 154.7371063232422 23.34681898355484 154.00514221191406 26.06566733121872 154.00514221191406 26.06566733121872 C 154.98109436035156 26.656693696975708 156.5670166015625 27.01132106781006 158.15282440185547 27.01132106781006 C 161.93463897705078 27.01132106781006 164.00853729248047 25.238184213638306 164.00853729248047 22.4011652469635 C 164.13053131103516 20.509800016880035 162.91059112548828 19.091290533542633 160.47071075439453 18.145636796951294 Z M 172.45095825195312 18.145636796951294 C 170.7430419921875 17.436382055282593 170.13307189941406 17.081754684448242 170.13307189941406 16.25427156686783 C 170.13307189941406 15.426788449287415 170.7430419921875 14.835762083530426 171.96298217773438 14.835762083530426 C 173.06092834472656 14.835762083530426 174.15887451171875 15.190389454364777 174.7688446044922 15.545016825199127 C 174.7688446044922 15.545016825199127 175.5008087158203 12.826226234436035 175.5008087158203 12.826226234436035 C 174.6468505859375 12.353370487689972 173.30491638183594 11.998743116855621 171.8409881591797 11.998743116855621 C 168.54714965820312 11.998743116855621 166.35137176513672 14.008278965950012 166.35137176513672 16.60889893770218 C 166.35137176513672 18.145636796951294 167.32732391357422 19.68231689929962 170.13307189941406 20.864427387714386 C 171.718994140625 21.573682129383087 172.32896423339844 22.04653787612915 172.32896423339844 22.873963236808777 C 172.32896423339844 23.70144635438919 171.718994140625 24.29247272014618 170.25506591796875 24.29247272014618 C 169.03512573242188 24.29247272014618 167.5713119506836 23.819674730300903 166.71735382080078 23.34681898355484 C 166.71735382080078 23.34681898355484 165.98538970947266 26.06566733121872 165.98538970947266 26.06566733121872 C 166.96134185791016 26.656693696975708 168.54714965820312 27.01132106781006 170.13307189941406 27.01132106781006 C 173.91488647460938 27.01132106781006 175.98878479003906 25.238184213638306 175.98878479003906 22.4011652469635 C 176.11077880859375 20.509800016880035 175.01283264160156 19.091290533542633 172.45095825195312 18.145636796951294 Z M 2.984100341796875 24.4079287648201 C 2.2839508056640625 25.342088878154755 1.7004165649414062 26.04273784160614 1.350341796875 26.860113501548767 C 1.233612060546875 26.976897954940796 1.0002670288085938 27.560704708099365 1.0002670288085938 27.91105806827545 C 1.0002670288085938 27.91105806827545 1.0002670288085938 28.37813812494278 1.0002670288085938 28.37813812494278 C 1.0002670288085938 29.312298238277435 1.7004165649414062 30.012889444828033 2.6340255737304688 30.012889444828033 C 2.6340255737304688 30.012889444828033 27.373863220214844 30.012889444828033 27.373863220214844 30.012889444828033 C 28.307357788085938 30.012889444828033 29.00762176513672 29.312298238277435 29.00762176513672 28.37813812494278 C 29.00762176513672 28.37813812494278 29.00762176513672 9.344582498073578 29.00762176513672 9.344582498073578 C 15.470748901367188 11.679982781410217 7.1852264404296875 19.036479234695435 2.984100341796875 24.4079287648201 Z M 27.373863220214844 1.9880282878875732 C 27.373863220214844 1.9880282878875732 2.6340255737304688 1.9880282878875732 2.6340255737304688 1.9880282878875732 C 1.7004165649414062 1.9880282878875732 1.0002670288085938 2.6886772513389587 1.0002670288085938 3.6228373646736145 C 1.0002670288085938 3.6228373646736145 1.0002670288085938 18.452672481536865 1.0002670288085938 18.452672481536865 C 5.901542663574219 13.314791858196259 14.65386962890625 7.709773421287537 27.95728302001953 6.075022101402283 C 28.307357788085938 6.075022101402283 29.00762176513672 5.841453194618225 29.00762176513672 4.907293081283569 C 29.00762176513672 4.907293081283569 29.00762176513672 3.6228373646736145 29.00762176513672 3.6228373646736145 C 29.00762176513672 2.6886772513389587 28.307357788085938 1.9880282878875732 27.373863220214844 1.9880282878875732 Z M 179.2109832763672 10.799594342708588 C 179.2109832763672 10.799594342708588 179.2109832763672 10.799594342708588 179.2109832763672 10.799594342708588 C 179.68694305419922 10.680557370185852 179.80596160888672 10.442367911338806 179.80596160888672 10.085141479969025 C 179.80596160888672 9.847009778022766 179.68694305419922 9.60882031917572 179.56792449951172 9.489783346652985 C 179.44890594482422 9.370688617229462 179.0919647216797 9.251593887805939 178.8539276123047 9.251593887805939 C 178.8539276123047 9.251593887805939 178.0207977294922 9.251593887805939 178.0207977294922 9.251593887805939 C 178.0207977294922 9.251593887805939 178.0207977294922 11.87133139371872 178.0207977294922 11.87133139371872 C 178.0207977294922 11.87133139371872 178.4968719482422 11.87133139371872 178.4968719482422 11.87133139371872 C 178.4968719482422 11.87133139371872 178.4968719482422 10.799594342708588 178.4968719482422 10.799594342708588 C 178.4968719482422 10.799594342708588 178.7349090576172 10.799594342708588 178.7349090576172 10.799594342708588 C 178.8539276123047 10.799594342708588 178.9729461669922 10.91868907213211 179.0919647216797 11.156878530979156 C 179.0919647216797 11.156878530979156 179.32988739013672 11.87133139371872 179.32988739013672 11.87133139371872 C 179.32988739013672 11.87133139371872 179.92498016357422 11.87133139371872 179.92498016357422 11.87133139371872 C 179.92498016357422 11.87133139371872 179.56792449951172 11.156878530979156 179.56792449951172 11.156878530979156 C 179.44890594482422 11.037783801555634 179.32988739013672 10.91868907213211 179.2109832763672 10.799594342708588 Z M 178.7349090576172 10.561462640762329 C 178.7349090576172 10.561462640762329 178.3778533935547 10.561462640762329 178.3778533935547 10.561462640762329 C 178.3778533935547 10.561462640762329 178.3778533935547 9.847009778022766 178.3778533935547 9.847009778022766 C 178.3778533935547 9.847009778022766 178.7349090576172 9.847009778022766 178.7349090576172 9.847009778022766 C 179.0919647216797 9.847009778022766 179.2109832763672 9.966046750545502 179.2109832763672 10.204236209392548 C 179.2109832763672 10.32333093881607 179.2109832763672 10.442367911338806 179.0919647216797 10.442367911338806 C 179.0919647216797 10.561462640762329 178.9729461669922 10.561462640762329 178.7349090576172 10.561462640762329 Z M 180.40105438232422 9.251593887805939 C 180.04399871826172 8.894367456436157 179.44890594482422 8.656235754489899 178.8539276123047 8.656235754489899 C 178.2588348388672 8.656235754489899 177.6637420654297 8.894367456436157 177.3066864013672 9.251593887805939 C 176.8306121826172 9.60882031917572 176.7115936279297 10.204236209392548 176.7115936279297 10.799594342708588 C 176.7115936279297 11.395010232925415 176.9496307373047 11.87133139371872 177.3066864013672 12.347652554512024 C 177.6637420654297 12.704878985881805 178.2588348388672 12.943010687828064 178.8539276123047 12.943010687828064 C 179.44890594482422 12.943010687828064 179.92498016357422 12.704878985881805 180.40105438232422 12.347652554512024 C 180.87712860107422 11.990426123142242 180.99614715576172 11.395010232925415 180.99614715576172 10.799594342708588 C 180.99614715576172 10.085141479969025 180.75811004638672 9.60882031917572 180.40105438232422 9.251593887805939 Z M 180.04399871826172 11.990426123142242 C 179.68694305419922 12.347652554512024 179.2109832763672 12.46668952703476 178.7349090576172 12.46668952703476 C 178.2588348388672 12.46668952703476 177.7827606201172 12.347652554512024 177.4257049560547 11.990426123142242 C 177.0686492919922 11.633141934871674 176.9496307373047 11.156878530979156 176.9496307373047 10.680557370185852 C 176.9496307373047 10.204236209392548 177.0686492919922 9.727915048599243 177.4257049560547 9.370688617229462 C 177.7827606201172 9.01346218585968 178.2588348388672 8.894367456436157 178.7349090576172 8.894367456436157 C 179.2109832763672 8.894367456436157 179.68694305419922 9.01346218585968 180.04399871826172 9.370688617229462 C 180.40105438232422 9.727915048599243 180.52007293701172 10.204236209392548 180.52007293701172 10.680557370185852 C 180.63909149169922 11.275915503501892 180.40105438232422 11.633141934871674 180.04399871826172 11.990426123142242 Z"/></g></svg>