<svg version="1.1" id="_x31_" xmlns="http://www.w3.org/2000/svg" xmlns:xlink="http://www.w3.org/1999/xlink" x="0px" y="0px"
	 viewBox="0 0 42 42" style="enable-background:new 0 0 42 42;" xml:space="preserve">
<style type="text/css">
	.st0{fill-rule:evenodd;clip-rule:evenodd;fill:#E0E0E0;}
	.st1{fill-rule:evenodd;clip-rule:evenodd;fill:#FFBE0E;}
</style>
<path id="_x33_" class="st0" d="M32,30h-5l3-4h-6l4-6h-7l-6.4,10H11c-3.3,0-6-2.7-6-6s2.7-5,6-5h0.1c0.5-5.1,4.7-9,9.9-9
	c4.5,0,8.3,2.9,9.5,7H32c3.9,0,7,3.1,7,7S35.9,30,32,30z"/>
<path id="_x32_" class="st1" d="M22,21l-6,9h5l-3,7l10-10h-6l4-6H22z"/>
</svg>
