<svg version="1.1" id="_x31_" xmlns="http://www.w3.org/2000/svg" xmlns:xlink="http://www.w3.org/1999/xlink" x="0px" y="0px"
	 viewBox="0 0 42 42" style="enable-background:new 0 0 42 42;" xml:space="preserve">
<style type="text/css">
	.st0{fill-rule:evenodd;clip-rule:evenodd;fill:#FFBE0E;}
</style>
<path id="_x32_" class="st0" d="M34.8,21.2l-2.6,0.3c0.1-0.5,0.1-1,0.1-1.6c0-0.5-0.1-1.1-0.1-1.6l2.6,0.3c0.7,0,1.2,0.6,1.2,1.2
	C36,20.7,35.4,21.2,34.8,21.2z M34,14.3L31.5,16c-0.3-0.8-0.7-1.5-1.1-2.2l2.4-1.6c0.6-0.3,1.4-0.1,1.7,0.5
	C34.8,13.2,34.6,14,34,14.3z M28.1,32.2l-2-2.2c0.8-0.4,1.5-0.9,2.1-1.4l1.5,1.7c0.5,0.5,0.6,1.3,0.1,1.8
	C29.5,32.6,28.7,32.6,28.1,32.2z M28.2,11.3c-0.6-0.5-1.4-1-2.1-1.4l2-2.2c0.5-0.5,1.3-0.4,1.8,0.1c0.5,0.5,0.4,1.3-0.1,1.8
	L28.2,11.3z M19.4,8.9l0.3-2.6C19.8,5.6,20.3,5,21,5c0.7,0,1.2,0.6,1.2,1.2l0.3,2.6c-0.5-0.1-1-0.1-1.6-0.1
	C20.5,8.7,19.9,8.8,19.4,8.9z M12.2,9.6c-0.5-0.5-0.5-1.3-0.1-1.8c0.5-0.5,1.3-0.5,1.8-0.1l2,2.2c-0.8,0.4-1.5,0.8-2.1,1.4L12.2,9.6
	z M13.7,28.5c0.6,0.6,1.4,1,2.1,1.4l-2,2.2c-0.5,0.5-1.3,0.4-1.8-0.1c-0.5-0.5-0.4-1.3,0.1-1.8L13.7,28.5z M8,14.3
	c-0.6-0.3-0.8-1.1-0.5-1.7c0.3-0.6,1.1-0.8,1.7-0.5l2.4,1.6c-0.5,0.7-0.8,1.4-1.1,2.2L8,14.3z M9.8,20c0,0.5,0.1,1.1,0.1,1.6
	l-2.6-0.3C6.6,21.2,6,20.7,6,20c0-0.7,0.6-1.2,1.2-1.2l2.6-0.3C9.8,18.9,9.8,19.5,9.8,20z M7.9,25.4l2.5-1.7
	c0.3,0.8,0.7,1.6,1.1,2.3l-2.4,1.6c-0.6,0.3-1.4,0.1-1.7-0.5C7.1,26.5,7.3,25.7,7.9,25.4z M12,20c0-5,4-9,9-9c5,0,9,4,9,9s-4,9-9,9
	C16,29,12,25,12,20z M22.6,31.1l-0.3,2.6c0,0.7-0.6,1.3-1.3,1.3c-0.7,0-1.3-0.6-1.3-1.3l-0.3-2.6c0.5,0.1,1,0.1,1.6,0.1
	C21.5,31.2,22.1,31.2,22.6,31.1z M34.1,25.4c0.6,0.3,0.8,1.1,0.5,1.7c-0.3,0.6-1.1,0.9-1.7,0.5L30.5,26c0.5-0.7,0.8-1.5,1.1-2.3
	L34.1,25.4z"/>
</svg>
