<?xml version="1.0" encoding="utf-8"?>
<!-- Generator: Adobe Illustrator 23.1.0, SVG Export Plug-In . SVG Version: 6.00 Build 0)  -->
<svg version="1.1" id="_x31_" xmlns="http://www.w3.org/2000/svg" xmlns:xlink="http://www.w3.org/1999/xlink" x="0px" y="0px"
	 viewBox="0 0 16 16" style="enable-background:new 0 0 16 16;" xml:space="preserve">
<path id="_x32_" d="M12.9,1.7L8.7,5.9l1.4,1.4L15,2.4V1.7H12.9z M8,8.4C7.8,8.4,7.7,8.2,7.7,8c0-0.2,0.2-0.3,0.3-0.3
	c0.2,0,0.4,0.2,0.4,0.3C8.4,8.2,8.2,8.4,8,8.4 M3.8,13.6c-0.8,0-1.4-0.6-1.4-1.4c0-0.8,0.6-1.4,1.4-1.4c0.8,0,1.4,0.6,1.4,1.4
	C5.2,13,4.6,13.6,3.8,13.6 M3.8,5.2C3,5.2,2.4,4.6,2.4,3.8C2.4,3,3,2.4,3.8,2.4c0.8,0,1.4,0.6,1.4,1.4C5.2,4.6,4.6,5.2,3.8,5.2
	 M6.3,4.9c0.2-0.3,0.3-0.7,0.3-1.1C6.6,2.3,5.3,1,3.8,1S1,2.3,1,3.8s1.3,2.8,2.8,2.8c0.4,0,0.8-0.1,1.1-0.3L6.6,8L4.9,9.7
	C4.6,9.5,4.2,9.4,3.8,9.4C2.3,9.4,1,10.7,1,12.2S2.3,15,3.8,15s2.8-1.3,2.8-2.8c0-0.4-0.1-0.8-0.3-1.1L8,9.4l4.9,4.9H15v-0.7
	L6.3,4.9z"/>
</svg>
