<?xml version="1.0" encoding="utf-8"?>
<!-- Generator: Adobe Illustrator 21.1.0, SVG Export Plug-In . SVG Version: 6.00 Build 0)  -->
<svg version="1.1" id="_x31_" xmlns="http://www.w3.org/2000/svg" xmlns:xlink="http://www.w3.org/1999/xlink" x="0px" y="0px"
	 viewBox="0 0 26 26" style="enable-background:new 0 0 26 26;" xml:space="preserve">
<style type="text/css">
	.st0{fill:#FFFFFF;}
</style>
<path id="_x32_" class="st0" d="M21.1,3h-16c-1.1,0-2,0.9-2,2v16c0,1.1,0.9,2,2,2h16c1.1,0,2-0.9,2-2V5C23.1,3.9,22.2,3,21.1,3z
	 M9.1,20h-4v-2h4V20z M9.1,17h-4v-2h4V17z M9.1,14h-4v-2h4V14z M9.1,11h-4V9h4V11z M16,20h-6v-2h6V20z M16.1,17h-6v-2h6V17z
	 M16.1,14h-6v-2h6V14z M16.1,11h-6V9h6V11z M21,20h-4v-2h4V20z M21,17h-4v-2h4V17z M21,14h-4v-2h4V14z M21.1,11h-4V9h4V11z M20.1,7
	h-14c-0.6,0-1-0.4-1-1s0.4-1,1-1h14c0.6,0,1,0.4,1,1S20.7,7,20.1,7z"/>
</svg>
