<?xml version="1.0" encoding="utf-8"?>
<!-- Generator: Adobe Illustrator 21.1.0, SVG Export Plug-In . SVG Version: 6.00 Build 0)  -->
<svg version="1.1" id="_x31_" xmlns="http://www.w3.org/2000/svg" xmlns:xlink="http://www.w3.org/1999/xlink" x="0px" y="0px"
	 viewBox="0 0 26 26" style="enable-background:new 0 0 26 26;" xml:space="preserve">
<style type="text/css">
	.st0{fill-rule:evenodd;clip-rule:evenodd;fill:#FFFFFF;}
	.st1{fill-rule:evenodd;clip-rule:evenodd;fill:#0F2161;}
	.st2{fill:#0F2161;}
	.st3{opacity:0.5;fill:#0F2161;enable-background:new    ;}
</style>
<path id="_x31_0" class="st0" d="M10,18c0-4.4,3.6-8,8-8c1.1,0,2.1,0.2,3,0.6V4c0-0.5-0.5-1-1-1H4C3.5,3,3,3.5,3,4v16
	c0,0.5,0.5,1,1,1h6.6C10.2,20.1,10,19.1,10,18z"/>
<circle id="_x39_" class="st0" cx="18" cy="18" r="6"/>
<rect id="_x38_" x="17" y="20" class="st1" width="2" height="2"/>
<rect id="_x37_" x="17" y="14" class="st1" width="2" height="5"/>
<path id="_x36_" class="st2" d="M18,7H6C5.4,7,5,6.6,5,6s0.4-1,1-1h12c0.6,0,1,0.4,1,1S18.6,7,18,7z"/>
<g>
	<rect x="5" y="15" class="st3" width="2" height="2"/>
	<path class="st3" d="M8,15v2h2.1c0.1-0.7,0.3-1.4,0.5-2H8z"/>
</g>
<g>
	<rect x="5" y="12" class="st3" width="2" height="2"/>
	<path class="st3" d="M8,12v2h3.1c0.4-0.8,1-1.4,1.6-2H8z"/>
</g>
<g>
	<rect x="5" y="9" class="st3" width="2" height="2"/>
	<path class="st3" d="M8,9v2h6.1c1.1-0.6,2.5-1,3.9-1c0.3,0,0.7,0,1,0.1V9H8z"/>
</g>
</svg>
