<?xml version="1.0" encoding="utf-8"?>
<!-- Generator: Adobe Illustrator 23.1.0, SVG Export Plug-In . SVG Version: 6.00 Build 0)  -->
<svg version="1.1" id="_x31_" xmlns="http://www.w3.org/2000/svg" xmlns:xlink="http://www.w3.org/1999/xlink" x="0px" y="0px"
	 viewBox="0 0 28 28" style="enable-background:new 0 0 28 28;" xml:space="preserve">
<g id="_x32_">
	<path id="_x34_" d="M2,22.4c-0.7,0.9-1.3,1.6-1.6,2.5C0.2,25,0,25.6,0,25.9v0.5C0,27.3,0.7,28,1.6,28h24.6c0.9,0,1.8-1.1,1.8-2V7
		C14.6,9.3,6.2,17,2,22.4z"/>
	<path id="_x33_" d="M26.3,0H1.6C0.7,0,0,0.7,0,1.6v14.8C4.9,11.3,13.7,5.7,26.9,4.1c0.4,0,1.1-0.2,1.1-1.2V1.6
		C27.9,0.7,27.2,0,26.3,0z"/>
</g>
</svg>
