<?xml version="1.0" encoding="utf-8"?>
<!-- Generator: Adobe Illustrator 21.1.0, SVG Export Plug-In . SVG Version: 6.00 Build 0)  -->
<svg version="1.1" id="_x31_" xmlns="http://www.w3.org/2000/svg" xmlns:xlink="http://www.w3.org/1999/xlink" x="0px" y="0px"
	 viewBox="0 0 26 26" style="enable-background:new 0 0 26 26;" xml:space="preserve">
<style type="text/css">
	.st0{opacity:0.5;fill:#FFFFFF;enable-background:new    ;}
	.st1{fill:#FFFFFF;}
</style>
<g id="_x33_">
	<rect id="_x38_" x="5" y="12" class="st0" width="7" height="2"/>
	<rect id="_x37_" x="5" y="18" class="st0" width="7" height="2"/>
	<rect id="_x36_" x="5" y="15" class="st0" width="7" height="2"/>
	<rect id="_x35_" x="13" y="9" class="st0" width="8" height="2"/>
	<rect id="_x34_" x="5" y="9" class="st0" width="7" height="2"/>
</g>
<path id="_x32_" class="st1" d="M21,3H5C3.9,3,3,3.9,3,5v16c0,1.1,0.9,2,2,2h16c1.1,0,2-0.9,2-2V5C23,3.9,22.1,3,21,3z M12,20H5v-2
	h7V20z M12,17H5v-2h7V17z M12,14H5v-2h7V14z M12,11H5V9h7V11z M21,13v1h-1v-1h-5l4,3l-4,3h5v-1h1v1v1h-1h-7v-2l4-2l-4-2v-2h7h1V13z
	 M21,11h-8V9h8V11z M20,7H6C5.4,7,5,6.6,5,6s0.4-1,1-1h14c0.6,0,1,0.4,1,1S20.6,7,20,7z"/>
</svg>
