<?xml version="1.0" encoding="utf-8"?>
<!-- Generator: Adobe Illustrator 21.1.0, SVG Export Plug-In . SVG Version: 6.00 Build 0)  -->
<svg version="1.1" id="_x31_" xmlns="http://www.w3.org/2000/svg" xmlns:xlink="http://www.w3.org/1999/xlink" x="0px" y="0px"
	 viewBox="0 0 26 26" style="enable-background:new 0 0 26 26;" xml:space="preserve">
<style type="text/css">
	.st0{fill-rule:evenodd;clip-rule:evenodd;fill:#FFFFFF;}
	.st1{opacity:0.5;fill-rule:evenodd;clip-rule:evenodd;fill:#0F2161;}
	.st2{fill-rule:evenodd;clip-rule:evenodd;fill:#0F2161;}
</style>
<path id="_x38_" class="st0" d="M5,3h16c1.1,0,2,0.9,2,2v16c0,1.1-0.9,2-2,2H5c-1.1,0-2-0.9-2-2V5C3,3.9,3.9,3,5,3z"/>
<path id="_x37_" class="st1" d="M5,6c0-0.6,0.4-1,1-1h14c0.6,0,1,0.4,1,1v3H5V6z"/>
<rect id="_x36_" x="5" y="11" class="st2" width="4" height="4"/>
<rect id="_x35_" x="11" y="11" class="st2" width="4" height="4"/>
<rect id="_x34_" x="17" y="11" class="st2" width="4" height="4"/>
<rect id="_x33__1_" x="5" y="17" class="st2" width="4" height="4"/>
<rect id="_x32_" x="11" y="17" class="st2" width="4" height="4"/>
<rect id="_x31__3_" x="17" y="17" class="st2" width="4" height="4"/>
</svg>
