<?xml version="1.0" encoding="utf-8"?>
<!-- Generator: Adobe Illustrator 23.0.3, SVG Export Plug-In . SVG Version: 6.00 Build 0)  -->
<svg version="1.1" id="_x31_" xmlns="http://www.w3.org/2000/svg" xmlns:xlink="http://www.w3.org/1999/xlink" x="0px" y="0px"
	 viewBox="0 0 16 16" style="enable-background:new 0 0 16 16;" xml:space="preserve">
<path id="_x32_" d="M8,4.8c1.8,0,3.3,1.4,3.3,3.2c0,1.8-1.5,3.2-3.3,3.2c-1.8,0-3.3-1.4-3.3-3.2C4.7,6.2,6.2,4.8,8,4.8 M8,6.4
	C7.1,6.4,6.4,7.1,6.4,8S7.1,9.6,8,9.6c0.9,0,1.6-0.7,1.6-1.6S8.9,6.4,8,6.4 M6.4,16c-0.2,0-0.4-0.1-0.4-0.3l-0.3-2.1
	c-0.5-0.2-1-0.5-1.4-0.8l-2,0.8c-0.2,0.1-0.4,0-0.5-0.2l-1.6-2.8C0,10.4,0,10.2,0.2,10.1l1.7-1.3L1.8,8l0.1-0.8L0.2,5.9
	C0,5.8,0,5.6,0.1,5.4l1.6-2.8C1.8,2.4,2,2.4,2.2,2.4l2,0.8c0.4-0.3,0.9-0.6,1.4-0.8l0.3-2.1C6,0.1,6.1,0,6.4,0h3.3
	c0.2,0,0.4,0.1,0.4,0.3l0.3,2.1c0.5,0.2,1,0.5,1.4,0.8l2-0.8c0.2-0.1,0.4,0,0.5,0.2l1.6,2.8C16,5.6,16,5.8,15.8,5.9l-1.7,1.3L14.2,8
	l-0.1,0.8l1.7,1.3c0.2,0.1,0.2,0.3,0.1,0.5l-1.6,2.8c-0.1,0.2-0.3,0.2-0.5,0.2l-2-0.8c-0.4,0.3-0.9,0.6-1.4,0.8l-0.3,2.1
	c0,0.2-0.2,0.3-0.4,0.3H6.4 M7.4,1.6L7.1,3.7c-1,0.2-1.9,0.7-2.5,1.4l-2-0.8L2,5.3l1.7,1.2c-0.3,0.9-0.3,2,0,2.9L2,10.7l0.6,1l2-0.8
	c0.6,0.7,1.5,1.2,2.5,1.4l0.3,2.1h1.2l0.3-2.1c1-0.2,1.8-0.7,2.5-1.4l2,0.8l0.6-1l-1.7-1.2c0.3-0.9,0.3-2,0-2.9L14,5.3l-0.6-1
	l-2,0.8c-0.6-0.7-1.5-1.2-2.5-1.4L8.6,1.6H7.4z"/>
</svg>
