<?xml version="1.0" encoding="utf-8"?>

<svg version="1.1" xmlns="http://www.w3.org/2000/svg" id="svg-editors" viewBox="0 0 40 40" xml:space="preserve">
	<style type="text/css">
	  .st0{fill:#FFFFFF;}
	</style>
	
	<path class="st0" d="M37,9H3c-0.5,0-1,0.5-1,1v20c0,0.5,0.5,1,1,1h34c0.5,0,1-0.5,1-1V10C38,9.5,37.5,9,37,9z M36,29H4V11h32V29z "></path>
	<polygon class="st0" points="20,14 20,13 18,13 17,14 16,13 14,13 14,14 16,14 16,26 14,26 14,27 16,27 17,26 18,27 20,27 20,26 18,26 18,14 "></polygon>
	<g>
		<path class="st0" d="M14.3,24h-2.1l-0.6-1.9h-3L8.1,24H6.1l3.1-8.4h2.2L14.3,24z M11.3,20.7l-0.9-2.8c-0.1-0.2-0.1-0.5-0.1-0.8 h0c0,0.2-0.1,0.5-0.1,0.7l-0.9,2.8H11.3z"></path>
	</g>
</svg>