<?xml version="1.0" encoding="utf-8"?>

<svg version="1.1" xmlns="http://www.w3.org/2000/svg" id="svg-navigation" viewBox="0 0 40 40" xml:space="preserve">
	<style type="text/css">
	  .st0{fill:#FFFFFF;}
	</style>
	<rect class="st0" x="6" y="8" width="7" height="2"></rect>
	<rect class="st0" x="6" y="18" width="7" height="2"></rect>
	<path class="st0" d="M37,3H3C2.5,3,2,3.5,2,4v32c0,0.5,0.5,1,1,1h34c0.5,0,1-0.5,1-1V4C38,3.5,37.5,3,37,3z M4,5h12v6H4V5z 	 M13,13v2H6v-2H13z M4,17h12v18H4V17z M36,35H18V5h18V35z"></path>
	<rect class="st0" x="6" y="22" width="7" height="2"></rect>
	<rect class="st0" x="6" y="26" width="7" height="2"></rect>
	<rect class="st0" x="6" y="30" width="7" height="2"></rect>
	<polygon class="st0" points="34,20 28,14 28,18 20,18 20,22 28,22 28,26 "></polygon>
	<rect class="st0" x="18" y="5" opacity="0.3" width="18" height="30"></rect>
</svg>