<svg version="1.1" xmlns="http://www.w3.org/2000/svg" id="svg-pivotgrid" viewBox="0 0 40 40" xml:space="preserve">
	<style type="text/css">
		.st0{fill:#FFFFFF;}
	</style>
	<rect class="st0" x="6" y="7" width="8" height="7"></rect>
	<rect class="st0" x="26" y="7" width="8" height="7"></rect>
	<rect class="st0" x="15" y="7" width="10" height="7"></rect>
	<rect class="st0" x="6" y="25" width="8" height="8"></rect>
	<rect class="st0" x="6" y="15" width="8" height="9"></rect>
	<path class="st0" d="M37,3H3C2.5,3,2,3.5,2,4v32c0,0.5,0.5,1,1,1h34c0.5,0,1-0.5,1-1V4C38,3.5,37.5,3,37,3z M36,35H4V5h32V35z"></path>
	<polygon class="st0" points="31,33 19.3,33 24,25 19.4,17 31,17 31,19 22.6,19 26,25 22.7,31 31,31"></polygon>
</svg>