<svg width="16" height="16" viewBox="0 0 16 16" xmlns="http://www.w3.org/2000/svg">
<path d="M9 10.0001H12V13.0001H9V10.0001Z" />
<path fill-rule="evenodd" clip-rule="evenodd" d="M3 1.00012C3 0.44783 3.44771 0.00012207 4 0.00012207C4.55229 0.00012207 5 0.44783 5 1.00012V2.00012H11V1.00012C11 0.44783 11.4477 0.00012207 12 0.00012207C12.5523 0.00012207 13 0.44783 13 1.00012V2.00012C14.1046 2.00012 15 2.89555 15 4.00012V14.0001C15 15.1047 14.1046 16.0001 13 16.0001H3C1.89543 16.0001 1 15.1047 1 14.0001V4.00012C1 2.89555 1.89543 2.00012 3 2.00012V1.00012ZM13 14.0001V8.00012H3V14.0001H13ZM3 5.00012C3 4.44783 3.44771 4.00012 4 4.00012H12C12.5523 4.00012 13 4.44783 13 5.00012V6.00012H3V5.00012Z" />
</svg>
