<svg width="16" height="16" viewBox="0 0 16 16" xmlns="http://www.w3.org/2000/svg">
<path fill-rule="evenodd" clip-rule="evenodd" d="M4 0.00012207C2.89543 0.00012207 2 0.895553 2 2.00012V4.00012C2 5.10469 2.89543 6.00012 4 6.00012H14C15.1046 6.00012 16 5.10469 16 4.00012V2.00012C16 0.895553 15.1046 0.00012207 14 0.00012207H4ZM14 2.00012H4V4.00012H14V2.00012Z" />
<path opacity="0.25" fill-rule="evenodd" clip-rule="evenodd" d="M14 6.00012H4C2.89543 6.00012 2 5.10469 2 4.00012V2.00012C0.895508 2.00012 0 2.89557 0 4.00012V14.0001C0 15.1047 0.895508 16.0001 2 16.0001H12C13.1045 16.0001 14 15.1047 14 14.0001V6.00012ZM12 12.0001H2V14.0001H12V12.0001ZM12 8.00012H2V10.0001H12V8.00012Z" />
</svg>
