<svg width="16" height="16" viewBox="0 0 16 16" xmlns="http://www.w3.org/2000/svg">
<path d="M12.9 1.7L8.7 5.9L10.1 7.3L15 2.4V1.7H12.9ZM8 8.4C7.8 8.4 7.7 8.2 7.7 8C7.7 7.8 7.9 7.7 8 7.7C8.2 7.7 8.4 7.9 8.4 8C8.4 8.2 8.2 8.4 8 8.4ZM3.8 13.6C3 13.6 2.4 13 2.4 12.2C2.4 11.4 3 10.8 3.8 10.8C4.6 10.8 5.2 11.4 5.2 12.2C5.2 13 4.6 13.6 3.8 13.6ZM3.8 5.2C3 5.2 2.4 4.6 2.4 3.8C2.4 3 3 2.4 3.8 2.4C4.6 2.4 5.2 3 5.2 3.8C5.2 4.6 4.6 5.2 3.8 5.2ZM6.3 4.9C6.5 4.6 6.6 4.2 6.6 3.8C6.6 2.3 5.3 1 3.8 1C2.3 1 1 2.3 1 3.8C1 5.3 2.3 6.6 3.8 6.6C4.2 6.6 4.6 6.5 4.9 6.3L6.6 8L4.9 9.7C4.6 9.5 4.2 9.4 3.8 9.4C2.3 9.4 1 10.7 1 12.2C1 13.7 2.3 15 3.8 15C5.3 15 6.6 13.7 6.6 12.2C6.6 11.8 6.5 11.4 6.3 11.1L8 9.4L12.9 14.3H15V13.6L6.3 4.9Z" />
</svg>
