<svg xmlns="http://www.w3.org/2000/svg" version="1.1" viewBox="0 0 16 16" width="16" height="16">
  <path style="fill:var(--dxds-icon-color-green, #379E4E)" d="M2 2.00001C2 0.895327 2.89531 1.52588e-05 4 1.52588e-05H8.99999V5.00001H14V14C14 15.1031 13.1031 16 12 16H4C2.89531 16 2 15.1031 2 14V2.00001Z" opacity="0.4"/>
  <path style="fill:var(--dxds-icon-color-green, #379E4E)" d="M4.9248 7.04394C5.05547 7.04394 5.17706 7.05359 5.28906 7.07226C5.40094 7.08625 5.4872 7.10244 5.54785 7.12109C5.63161 7.14435 5.68774 7.1791 5.71581 7.22558C5.74848 7.26758 5.76464 7.32669 5.76464 7.40136C5.76462 7.48993 5.75594 7.58594 5.7373 7.68847C5.72329 7.7863 5.69743 7.87269 5.66015 7.94726C5.62748 8.01716 5.58015 8.05175 5.51953 8.05175C5.47284 8.05169 5.4004 8.04301 5.30273 8.02441C5.20477 8.0011 5.09489 7.98925 4.97363 7.98925C4.67515 7.98935 4.45851 8.11312 4.32324 8.36034C4.18797 8.60302 4.12012 8.9971 4.12011 9.54296C4.12011 10.0937 4.19007 10.4929 4.33007 10.7402C4.47005 10.9827 4.69631 11.1044 5.00878 11.1045C5.16276 11.1045 5.28437 11.0926 5.37304 11.0693C5.46156 11.0414 5.53606 11.0274 5.59667 11.0273C5.65267 11.0273 5.69779 11.0597 5.73046 11.125C5.76774 11.1903 5.7958 11.2701 5.81445 11.3633C5.83304 11.4563 5.84176 11.5495 5.84179 11.6426C5.84179 11.7126 5.8278 11.7739 5.7998 11.8252C5.77175 11.8764 5.71354 11.9185 5.62499 11.9512C5.55505 11.9744 5.45253 11.9982 5.31738 12.0215C5.18671 12.0448 5.04364 12.0557 4.88964 12.0557C4.22731 12.0556 3.74687 11.853 3.44824 11.4473C3.14958 11.0366 3.00001 10.3994 3 9.53612C3 8.70082 3.15393 8.07765 3.46191 7.66698C3.77455 7.2517 4.26223 7.04398 4.9248 7.04394ZM7.85253 7.04394C8.01113 7.04395 8.17484 7.06229 8.34277 7.0996C8.51059 7.13693 8.65294 7.19297 8.76952 7.26757C8.81152 7.29557 8.85567 7.33104 8.90234 7.37304C8.94898 7.41504 8.97265 7.46668 8.97265 7.52734C8.97262 7.59261 8.96296 7.67462 8.94433 7.77245C8.92566 7.86561 8.89761 7.94985 8.86034 8.02441C8.82311 8.0987 8.77645 8.13557 8.72069 8.13573C8.68335 8.13573 8.62208 8.11958 8.53808 8.08691C8.45414 8.05427 8.35819 8.02189 8.25097 7.98925C8.14378 7.95665 8.03903 7.94044 7.93652 7.94042C7.78747 7.94042 7.67305 7.96547 7.59374 8.01659C7.51907 8.06792 7.46745 8.12921 7.43945 8.19921C7.41618 8.26438 7.40433 8.32716 7.40429 8.38769C7.40429 8.52764 7.44197 8.63963 7.51659 8.72362C7.59592 8.80762 7.69604 8.88073 7.81738 8.9414C7.93858 9.00201 8.06478 9.06896 8.1953 9.14355C8.40051 9.26014 8.56857 9.38406 8.69921 9.51464C8.83445 9.64522 8.93465 9.79719 8.99999 9.96972C9.06997 10.1377 9.10544 10.3456 9.10546 10.5928C9.10546 10.8446 9.05156 11.0827 8.94433 11.3066C8.837 11.5259 8.67121 11.7057 8.44726 11.8457C8.22326 11.9857 7.93375 12.0557 7.57909 12.0557C7.42523 12.0556 7.26668 12.0351 7.10351 11.9932C6.94496 11.9512 6.80268 11.8995 6.67675 11.8389C6.57878 11.7922 6.49478 11.7405 6.4248 11.6846C6.35488 11.6239 6.31941 11.5592 6.31933 11.4892C6.31933 11.4426 6.32901 11.3725 6.34765 11.2793C6.36631 11.1813 6.39647 11.0898 6.43847 11.0058C6.48511 10.922 6.54115 10.8799 6.60644 10.8799C6.64845 10.8799 6.7163 10.9035 6.80956 10.9502C6.9075 10.9968 7.01961 11.0432 7.1455 11.0898C7.27613 11.1365 7.41395 11.1601 7.55859 11.1601C7.6844 11.1601 7.80099 11.1299 7.9082 11.0693C8.0202 11.004 8.07616 10.8706 8.07616 10.6699C8.07615 10.5393 8.04382 10.4316 7.97851 10.3476C7.91788 10.2638 7.83374 10.1892 7.72656 10.124C7.62392 10.0587 7.51191 9.99304 7.39062 9.92772C7.17601 9.80643 6.99403 9.68043 6.84472 9.5498C6.69538 9.41913 6.5803 9.26739 6.50097 9.09472C6.42176 8.9175 6.38282 8.70292 6.38281 8.45116C6.38281 8.15728 6.44538 7.90526 6.57128 7.69531C6.70194 7.48531 6.87733 7.32391 7.09667 7.21191C7.32059 7.10001 7.57266 7.04394 7.85253 7.04394ZM10.1758 7.08593C10.2737 7.08593 10.3577 7.09778 10.4277 7.12109C10.4976 7.14437 10.5396 7.19315 10.5537 7.26757L11.2471 10.957H11.2744L11.9394 7.26757C11.9535 7.19324 11.9958 7.14444 12.0654 7.12109C12.1353 7.09779 12.2174 7.08596 12.3105 7.08593H12.6885C12.7958 7.08593 12.8733 7.10213 12.9199 7.13476C12.9666 7.16274 12.9902 7.20261 12.9902 7.2539C12.9902 7.27257 12.9871 7.29405 12.9824 7.31738C12.9823 7.33616 12.9757 7.37553 12.9619 7.43554L11.9541 11.748C11.9308 11.8507 11.8813 11.9207 11.8066 11.958C11.7321 11.9952 11.634 12.0137 11.5127 12.0137H10.9883C10.8577 12.0137 10.7544 11.9953 10.6797 11.958C10.6098 11.9207 10.5634 11.8506 10.54 11.748L9.53222 7.43554C9.51837 7.37548 9.51083 7.33617 9.51073 7.31738C9.50606 7.29405 9.5039 7.27257 9.5039 7.2539C9.50393 7.20261 9.52757 7.16274 9.57421 7.13476C9.62088 7.10226 9.69771 7.08595 9.80468 7.08593H10.1758ZM14 5H8.99999V0L14 5Z"/>
</svg>
