<svg width="18" height="16" viewBox="0 0 18 16" xmlns="http://www.w3.org/2000/svg">
<path d="M16.7998 9.8C16.2998 9.1 15.0998 8.7 13.1998 8.7C12.3998 8.7 11.6998 8.8 11.3998 8.8C10.5998 8.3 10.0998 7.5 9.49979 6.3C9.99979 4.7 10.6998 2 9.79979 0.7C9.39979 0.2 8.89979 0 8.29979 0C7.69979 0 7.19979 0.2 6.89979 0.7C6.09979 1.9 6.99979 4.8 7.69979 6.3C7.19979 7.8 6.59979 9.2 5.99979 10.3H5.89979C3.99979 11.1 1.39979 12.3 0.999792 13.8C0.899792 14.3 1.09979 14.9 1.59979 15.3C2.09979 15.8 2.49979 16 3.09979 16C4.99979 16 6.59979 13.2 7.39979 11.5C8.09979 11.3 10.3998 10.6 11.0998 10.5C12.2998 11.8 13.8998 12.6 15.0998 12.6C15.9998 12.6 16.6998 12.1 16.8998 11.3C17.0998 10.7 16.9998 10.2 16.7998 9.8ZM15.4998 10.6C15.4998 10.8 15.2998 11 14.8998 11C14.1998 11 13.0998 10.5 12.4998 10C12.7998 10 13.1998 10 13.4998 10C14.8998 10 15.2998 10.2 15.3998 10.4C15.4998 10.4 15.4998 10.5 15.4998 10.6ZM8.39979 4.2C7.89979 3 7.79979 1.8 8.09979 1.3C8.19979 1.2 8.29979 1.1 8.39979 1.1C8.49979 1.1 8.59979 1.1 8.69979 1.3C8.99979 1.8 8.69979 3.2 8.39979 4.2ZM8.99979 8C9.19979 8.3 9.59979 8.8 9.99979 9.3C9.69979 9.3 9.09979 9.5 8.59979 9.6C8.49979 9.6 8.29979 9.7 8.19979 9.7C8.49979 9.3 8.79979 8.5 8.99979 8ZM2.39979 14.2C2.49979 13.6 3.89979 12.6 5.29979 11.9C4.49979 13.2 3.39979 14.5 2.69979 14.5C2.59979 14.5 2.49979 14.5 2.49979 14.4C2.39979 14.4 2.39979 14.3 2.39979 14.2Z" />
</svg>
