<svg width="16" height="16" viewBox="0 0 16 16" xmlns="http://www.w3.org/2000/svg">
<path fill-rule="evenodd" clip-rule="evenodd" d="M15.8813 9.2611L14.5923 10.5511L12.4436 8.40109L13.7326 7.11109C14.0193 6.82445 14.3774 7.11109 14.6639 7.39776L15.595 8.32942C15.8813 8.61609 16.1678 8.97443 15.8813 9.2611ZM9.99263 3.00014H1.99865V13.0001H5.99631V15.0001H1.99865C0.899324 15.0001 0 14.1001 0 13.0001V3.00014C0 1.90012 0.899324 1.00012 1.99865 1.00012H9.99263C11.092 1.00012 11.9913 1.90012 11.9913 3.00014V6.00012L9.99263 8.00015V3.00014ZM13.8761 11.2678L10.1462 15.0011H7.99753V12.8511L11.7272 9.11777L13.8761 11.2678Z" />
</svg>
