<svg viewBox="0 0 24 24" fill="none" xmlns="http://www.w3.org/2000/svg">
    <path d="M1.63404 19.1489C1.02128 19.9149 0.561702 20.6298 0.255319 21.2425C0.153191 21.3957 0 21.8553 0 22.1617V22.6213C0 23.3872 0.612766 24 1.37872 24H22.6213C23.3872 24 24 23.3872 24 22.6213V6.28085C12.3574 8.3234 5.31064 14.6043 1.63404 19.1489Z" fill="black"/>
    <path d="M22.6213 0H2C1 0 0 1 0 2V14.0936C4.18723 9.70213 11.6936 4.85106 23.0809 3.5234C23.3872 3.5234 24 3.37021 24 2.55319V1.37872C24 0.612766 23.3872 0 22.6213 0Z" fill="black" fill-opacity="0.3"/>
</svg>
