<svg width="16" height="16" viewBox="0 0 16 16" fill="none" xmlns="http://www.w3.org/2000/svg">
<g clip-path="url(#clip0_116_28)">
<path d="M5.49998 4L12.5374 3L12.5 10C12.5 11 11.5 11.5 10.5374 11.5C9.53736 11.5 8.7828 10.7638 9.0374 10C9.53741 8.5 11.5 9 11.5 9V6L6.49998 7V11C6.49998 12 5.70601 12.5 4.53743 12.5C3.53745 12.5 2.78014 11.8345 3.03746 11C3.5 9.5 5.49998 10 5.49998 10V4Z" fill="black"/>
<path fill-rule="evenodd" clip-rule="evenodd" d="M0 2.00003C0 0.895478 0.895386 3.05176e-05 2 3.05176e-05H14C15.1046 3.05176e-05 16 0.895478 16 2.00003V14C16 15.1046 15.1046 16 14 16H2C0.895386 16 0 15.1046 0 14V2.00003ZM2 2.00003H14V14H2V2.00003Z" fill="black"/>
</g>
<defs>
<clipPath id="clip0_116_28">
<rect width="16" height="16" fill="white"/>
</clipPath>
</defs>
</svg>
