<svg width="16" height="16" viewBox="0 0 16 16" xmlns="http://www.w3.org/2000/svg">
<path fill-rule="evenodd" clip-rule="evenodd" d="M10.82 2.00006H13C14.1 2.00006 15 2.90005 15 4.00006V14.0001C15 15.1001 14.1 16.0001 13 16.0001H3C1.90002 16.0001 1 15.1001 1 14.0001V4.00006C1 2.90005 1.90002 2.00006 3 2.00006H5.17999C5.59998 0.840057 6.70001 6.10352e-05 8 6.10352e-05C9.29999 6.10352e-05 10.4 0.840057 10.82 2.00006ZM9 3.00006C9 2.45007 8.54999 2.00006 8 2.00006C7.45001 2.00006 7 2.45007 7 3.00006C7 3.55005 7.45001 4.00006 8 4.00006C8.54999 4.00006 9 3.55005 9 3.00006ZM3 4.00006V14.0001H13V4.00006H12V6.00006C12 6.55234 11.5523 7.00006 11 7.00006H5C4.44769 7.00006 4 6.55234 4 6.00006V4.00006H3Z" />
</svg>
