<svg width="16" height="16" viewBox="0 0 16 16" xmlns="http://www.w3.org/2000/svg">
<path d="M0 3.00006V1.00006H12V3.00006H0Z" />
<path d="M0 7.00006V5.00006H12V7.00006H0Z" />
<path d="M0 9.00006V11.0001H8V9.00006H0Z" />
<path d="M13 9.00006C13.825 9.00006 14.5 9.67506 14.5 10.5001C14.5 11.3251 13.825 12.0001 13 12.0001C12.175 12.0001 11.5 11.3251 11.5 10.5001C11.5 9.67506 12.175 9.00006 13 9.00006Z" />
<path d="M10 15.0001V14.2501C10 13.4251 11.35 12.7501 13 12.7501C14.65 12.7501 16 13.4251 16 14.2501V15.0001H10Z" />
</svg>
