<svg width="16" height="16" viewBox="0 0 16 16" xmlns="http://www.w3.org/2000/svg">
<path d="M9 4.00006V6.00006H7V4.00006H9Z" />
<path d="M9 12.0001V7.00006H7V12.0001H9Z" />
<path fill-rule="evenodd" clip-rule="evenodd" d="M8 16.0001C12.4183 16.0001 16 12.4183 16 8.00006C16 3.58178 12.4183 6.10352e-05 8 6.10352e-05C3.58172 6.10352e-05 0 3.58178 0 8.00006C0 12.4183 3.58172 16.0001 8 16.0001ZM8 14.0001C11.3137 14.0001 14 11.3138 14 8.00006C14 4.68635 11.3137 2.00006 8 2.00006C4.68629 2.00006 2 4.68635 2 8.00006C2 11.3138 4.68629 14.0001 8 14.0001Z" />
</svg>
