<svg width="16" height="16" viewBox="0 0 16 16" xmlns="http://www.w3.org/2000/svg">
<path fill-rule="evenodd" clip-rule="evenodd" d="M7.11117 2.74999C4.1656 2.74999 1.77783 5.10049 1.77783 7.99999C1.77783 10.8995 4.1656 13.25 7.11117 13.25C8.3957 13.25 9.55822 12.7847 10.4788 12.04L11.7536 13.2949C10.5074 14.3547 8.88721 15 7.11117 15C3.18374 15 0 11.866 0 7.99999C0 4.13399 3.18374 1 7.11117 1C11.0384 1 14.2223 4.13399 14.2223 7.99999H12.4445C12.4445 5.10049 10.0568 2.74999 7.11117 2.74999ZM16 7.99999L13.3334 11.5L10.6667 7.99999H16Z" />
</svg>
