<svg width="16" height="16" viewBox="0 0 16 16" xmlns="http://www.w3.org/2000/svg">
<path d="M10 5.00006H2V2.00006H10V5.00006ZM8 14.0001C7.20435 14.0001 6.44129 13.684 5.87868 13.1214C5.31607 12.5588 5 11.7957 5 11.0001C5 10.2044 5.31607 9.44135 5.87868 8.87874C6.44129 8.31613 7.20435 8.00006 8 8.00006C8.79565 8.00006 9.55871 8.31613 10.1213 8.87874C10.6839 9.44135 11 10.2044 11 11.0001C11 11.7957 10.6839 12.5588 10.1213 13.1214C9.55871 13.684 8.79565 14.0001 8 14.0001ZM12 6.10352e-05H2C1.46957 6.10352e-05 0.960859 0.210775 0.585786 0.585847C0.210714 0.96092 0 1.46963 0 2.00006V14.0001C0 14.5305 0.210714 15.0392 0.585786 15.4143C0.960859 15.7893 1.46957 16.0001 2 16.0001H14C14.5304 16.0001 15.0391 15.7893 15.4142 15.4143C15.7893 15.0392 16 14.5305 16 14.0001V4.00006L12 6.10352e-05Z" />
</svg>
