<svg width="16" height="16" viewBox="0 0 16 16" fill="none" xmlns="http://www.w3.org/2000/svg">
<g clip-path="url(#clip0_2911_60501)">
<path d="M1.41421 0L0 1.41421L14.582 15.9962L15.9962 14.582L1.41421 0Z" fill="black"/>
<path d="M11.9498 4.99994H9V2.99994L11.9498 2.99994L12 0.999939L15 3.99994L12 6.99994L11.9498 4.99994Z" fill="black"/>
<path d="M5.00024 12.9999V14.9999H7.00024V12.9999H5.00024Z" fill="black"/>
<path d="M7.00024 10.9999L5.00024 8.99994V10.9999H7.00024Z" fill="black"/>
<path d="M3.00024 12.9999H1.00024V14.9999H3.00024V12.9999Z" fill="black"/>
<path d="M3.00024 8.99994H1.00024V10.9999H3.00024V8.99994Z" fill="black"/>
<path d="M3.00024 6.99994L1.00024 4.99994V6.99994H3.00024Z" fill="black"/>
<path d="M11.0002 14.9999H9.00024V12.9999L11.0002 14.9999Z" fill="black"/>
</g>
<defs>
<clipPath id="clip0_2911_60501">
<rect width="16" height="16" fill="white"/>
</clipPath>
</defs>
</svg>
