<svg width="16" height="16" viewBox="0 0 16 16" fill="none" xmlns="http://www.w3.org/2000/svg">
<path d="M12 5.5V7.5H4V5.5H12Z" fill="black"/>
<path fill-rule="evenodd" clip-rule="evenodd" d="M3 2.5H13C13.5304 2.5 14.0392 2.71071 14.4142 3.08578C14.7893 3.46086 15 3.96957 15 4.5V11.5C15 12.0304 14.7893 12.5391 14.4142 12.9142C14.0392 13.2893 13.5304 13.5 13 13.5C9 13.5 3 13.5 3 13.5L1 15V4.5C1 3.96957 1.21072 3.46086 1.58578 3.08578C1.96085 2.71071 2.46957 2.5 3 2.5ZM3 11.5H13V4.5H3V11.5Z" fill="black"/>
<path d="M12 8.5V10.5H4V8.5H12Z" fill="black"/>
</svg>
