<svg width="16" height="16" viewBox="0 0 16 16" xmlns="http://www.w3.org/2000/svg">
<path d="M7.99999 4.8C9.79999 4.8 11.3 6.2 11.3 8C11.3 9.8 9.79999 11.2 7.99999 11.2C6.19999 11.2 4.69999 9.8 4.69999 8C4.69999 6.2 6.19999 4.8 7.99999 4.8ZM7.99999 6.4C7.09999 6.4 6.39999 7.1 6.39999 8C6.39999 8.9 7.09999 9.6 7.99999 9.6C8.89999 9.6 9.59999 8.9 9.59999 8C9.59999 7.1 8.89999 6.4 7.99999 6.4ZM6.39999 16C6.19999 16 5.99999 15.9 5.99999 15.7L5.69999 13.6C5.19999 13.4 4.69999 13.1 4.29999 12.8L2.29999 13.6C2.09999 13.7 1.89999 13.6 1.79999 13.4L0.199987 10.6C-1.2815e-05 10.4 -1.2815e-05 10.2 0.199987 10.1L1.89999 8.8L1.79999 8L1.89999 7.2L0.199987 5.9C-1.2815e-05 5.8 -1.2815e-05 5.6 0.0999872 5.4L1.69999 2.6C1.79999 2.4 1.99999 2.4 2.19999 2.4L4.19999 3.2C4.59999 2.9 5.09999 2.6 5.59999 2.4L5.89999 0.3C5.99999 0.1 6.09999 0 6.39999 0H9.69999C9.89999 0 10.1 0.1 10.1 0.3L10.4 2.4C10.9 2.6 11.4 2.9 11.8 3.2L13.8 2.4C14 2.3 14.2 2.4 14.3 2.6L15.9 5.4C16 5.6 16 5.8 15.8 5.9L14.1 7.2L14.2 8L14.1 8.8L15.8 10.1C16 10.2 16 10.4 15.9 10.6L14.3 13.4C14.2 13.6 14 13.6 13.8 13.6L11.8 12.8C11.4 13.1 10.9 13.4 10.4 13.6L10.1 15.7C10.1 15.9 9.89999 16 9.69999 16H6.39999ZM7.39999 1.6L7.09999 3.7C6.09999 3.9 5.19999 4.4 4.59999 5.1L2.59999 4.3L1.99999 5.3L3.69999 6.5C3.39999 7.4 3.39999 8.5 3.69999 9.4L1.99999 10.7L2.59999 11.7L4.59999 10.9C5.19999 11.6 6.09999 12.1 7.09999 12.3L7.39999 14.4H8.59999L8.89999 12.3C9.89999 12.1 10.7 11.6 11.4 10.9L13.4 11.7L14 10.7L12.3 9.5C12.6 8.6 12.6 7.5 12.3 6.6L14 5.3L13.4 4.3L11.4 5.1C10.8 4.4 9.89999 3.9 8.89999 3.7L8.59999 1.6H7.39999Z" />
</svg>
