<svg width="20" height="20" viewBox="0 0 20 20" xmlns="http://www.w3.org/2000/svg">
    <path fill-rule="evenodd" clip-rule="evenodd" d="M9 2C13.2124 2 16.6644 5.25573 16.977 9.38815C16.6605 9.20881 16.3082 9.08532 15.9335 9.03109C15.4617 5.62365 12.5372 3 9 3C5.13401 3 2 6.13401 2 10C2 11.217 2.31054 12.3878 2.89352 13.4249C2.94046 13.5084 2.9621 13.603 2.95692 13.6973L2.94274 13.7912L2.187 16.812L5.21104 16.0583C5.27294 16.0429 5.33662 16.0396 5.39873 16.0479L5.4903 16.0691L5.57701 16.1075C6.61362 16.6898 7.7837 17 9 17C9.69737 17 10.3709 16.898 11.0065 16.7082C11.0274 17.0399 11.0987 17.3703 11.2236 17.6869C10.5177 17.8908 9.77159 18 9 18C7.72679 18 6.49591 17.7018 5.38669 17.1393L5.266 17.075L1.62109 17.9851C1.31127 18.0625 1.02622 17.8369 1.00131 17.5438L1.00114 17.4624L1.01493 17.3787L1.925 13.735L1.86169 13.6153C1.4066 12.7186 1.12433 11.7422 1.03275 10.7283L1.00738 10.3463L1 10C1 5.58172 4.58172 2 9 2ZM9.5 11C9.77614 11 10 11.2239 10 11.5C10 11.7455 9.82312 11.9496 9.58988 11.9919L9.5 12H6.5C6.22386 12 6 11.7761 6 11.5C6 11.2545 6.17688 11.0504 6.41012 11.0081L6.5 11H9.5ZM11.5 8C11.7761 8 12 8.22386 12 8.5C12 8.74546 11.8231 8.94961 11.5899 8.99194L11.5 9H6.5C6.22386 9 6 8.77614 6 8.5C6 8.25454 6.17688 8.05039 6.41012 8.00806L6.5 8H11.5ZM17.5 12C17.5 13.1046 16.6046 14 15.5 14C14.3954 14 13.5 13.1046 13.5 12C13.5 10.8954 14.3954 10 15.5 10C16.6046 10 17.5 10.8954 17.5 12ZM19 16.5C19 17.7452 18 19 15.5 19C13 19 12 17.7499 12 16.5C12 15.6716 12.6716 15 13.5 15H17.5C18.3284 15 19 15.6716 19 16.5Z"/>
</svg>
