<svg width="16" height="16" viewBox="0 0 16 16" fill="none" xmlns="http://www.w3.org/2000/svg">
<g clip-path="url(#clip0_116_34)">
<path d="M3 5V11C3 11.5523 3.44772 12 4 12H9C9.55228 12 10 11.5523 10 11V9.5L12.2764 10.6382C12.6088 10.8044 13 10.5627 13 10.191V5.80902C13 5.43733 12.6088 5.19558 12.2764 5.3618L10 6.5V5C10 4.44772 9.55228 4 9 4H4C3.44772 4 3 4.44772 3 5Z" fill="black"/>
<path fill-rule="evenodd" clip-rule="evenodd" d="M2 3.05176e-05C0.895386 3.05176e-05 0 0.895478 0 2.00003V14C0 15.1046 0.895386 16 2 16H14C15.1046 16 16 15.1046 16 14V2.00003C16 0.895478 15.1046 3.05176e-05 14 3.05176e-05H2ZM14 2.00003H2V14H14V2.00003Z" fill="black"/>
</g>
<defs>
<clipPath id="clip0_116_34">
<rect width="16" height="16" fill="white"/>
</clipPath>
</defs>
</svg>
