<?xml version="1.0" encoding="utf-8"?>
<!-- Generator: Adobe Illustrator 24.2.1, SVG Export Plug-In . SVG Version: 6.00 Build 0)  -->
<svg version="1.1" id="_x31_" xmlns="http://www.w3.org/2000/svg" xmlns:xlink="http://www.w3.org/1999/xlink" x="0px" y="0px"
	 viewBox="0 0 40 40" style="enable-background:new 0 0 40 40;" xml:space="preserve">
<style type="text/css">
	.st0{fill:#FFFFFF;}
</style>
<g id="_x32_">
	<g>
		<path class="st0" d="M34.4,8.8h-28v2h28V8.8z M12.4,13.8v18h16v-14l-4-4H12.4z M14.4,15.8h7v2h-7V15.8z M26.4,29.8h-12v-2h12V29.8
			z M26.4,25.8h-12v-2h12V25.8z M26.4,21.8h-12v-2h12V21.8z M35.4,1.8h-30c-1.7,0-3,1.3-3,3v30c0,1.7,1.3,3,3,3h30c1.7,0,3-1.3,3-3
			v-30C38.4,3.2,37,1.8,35.4,1.8z M21.4,3.8h4c0.6,0,1,0.4,1,1c0,0.6-0.4,1-1,1h-4c-0.6,0-1-0.4-1-1C20.4,4.3,20.8,3.8,21.4,3.8z
			 M13.4,3.8h4c0.6,0,1,0.4,1,1c0,0.6-0.4,1-1,1h-4c-0.6,0-1-0.4-1-1C12.4,4.3,12.8,3.8,13.4,3.8z M5.4,3.8h4c0.6,0,1,0.4,1,1
			c0,0.6-0.4,1-1,1h-4c-0.6,0-1-0.4-1-1C4.4,4.3,4.8,3.8,5.4,3.8z M36.4,35.8h-32v-28h32V35.8z"/>
	</g>
</g>
</svg>
