<svg version="1.1" id="_x31_" xmlns="http://www.w3.org/2000/svg" xmlns:xlink="http://www.w3.org/1999/xlink" x="0px" y="0px"
	 viewBox="0 0 40 40" style="enable-background:new 0 0 40 40;" xml:space="preserve">
<style type="text/css">
	.st0{fill-rule:evenodd;clip-rule:evenodd;fill:#FFFFFF;}
</style>
<path id="_x32_" class="st0" d="M33,12c0-2,0-2-2-2H18h-2l0,0c0-2,0-2-2-2H8c-2,0-2,0-2,2v13l-2,4V8c0-1.1,0.9-2,2-2h10
	c1.1,0,2,0.9,2,2h15c1.1,0,2,0.9,2,2v3h-2V12z M40,14l-6,19H24V23h4l-6-6l-6,6h4v10H4l7-19H40z"/>
</svg>
