<svg version="1.1" id="_x31_" xmlns="http://www.w3.org/2000/svg" xmlns:xlink="http://www.w3.org/1999/xlink" x="0px" y="0px"
	 viewBox="0 0 42 42" style="enable-background:new 0 0 42 42;" xml:space="preserve">
<style type="text/css">
	.st0{fill-rule:evenodd;clip-rule:evenodd;fill:#E0E0E0;}
	.st1{fill-rule:evenodd;clip-rule:evenodd;fill:#FFBE0E;}
</style>
<path id="_x33_" class="st0" d="M32,30H22H11c-3.3,0-6-1.7-6-5s2.7-6,6-6h0.1c0.5-5.1,4.7-9,9.9-9c4.5,0,8.3,2.9,9.5,7H32
	c3.9,0,7,3.1,7,7S35.9,30,32,30z"/>
<path id="_x32_" class="st1" d="M41,13l-2.1,0.3C39,12.9,39,12.4,39,12c0-0.4,0-0.9-0.1-1.3L41,11c0.5,0,1,0.4,1,1
	C42,12.6,41.6,13,41,13z M40.4,7.5l-2,1.3c-0.2-0.6-0.5-1.2-0.9-1.8l1.9-1.3c0.5-0.3,1.1-0.1,1.4,0.4C41,6.6,40.9,7.2,40.4,7.5z
	 M35.7,5.1C35.2,4.6,34.6,4.3,34,4l1.6-1.8c0.4-0.4,1-0.3,1.4,0.1c0.4,0.4,0.3,1-0.1,1.4L35.7,5.1z M28.7,3.1L29,1c0-0.6,0.4-1,1-1
	c0.6,0,1,0.4,1,1l0.3,2.1C30.8,3,30.4,3,30,3S29.2,3,28.7,3.1z M23,3.7c-0.4-0.4-0.4-1-0.1-1.4c0.4-0.4,1-0.4,1.4-0.1L26,4
	c-0.6,0.3-1.2,0.7-1.7,1.1L23,3.7z M19.6,7.5c-0.5-0.3-0.7-0.9-0.4-1.4c0.3-0.5,0.9-0.7,1.4-0.4L22.5,7c-0.4,0.6-0.7,1.2-0.9,1.8
	L19.6,7.5z M30,5c3.9,0,7,3.2,7,7c0,1.7-0.6,3.3-1.6,4.5C34.8,16.3,31,16,31,16c-1.1-3.5-3.7-6.3-7.1-7.4C25.1,6.5,27.4,5,30,5z
	 M40.4,17.5c0.5,0.3,0.7,0.9,0.4,1.4c-0.3,0.5-0.9,0.7-1.4,0.4L37,17.7c0.4-0.5,0.8-1.1,1.1-1.7L40.4,17.5z"/>
</svg>
