<?xml version="1.0" encoding="utf-8"?>
<!-- Generator: Adobe Illustrator 24.1.2, SVG Export Plug-In . SVG Version: 6.00 Build 0)  -->
<svg version="1.1" id="_x31_" xmlns="http://www.w3.org/2000/svg" xmlns:xlink="http://www.w3.org/1999/xlink" x="0px" y="0px"
	 viewBox="0 0 40 40" style="enable-background:new 0 0 40 40;" xml:space="preserve">
<style type="text/css">
	.st0{fill-rule:evenodd;clip-rule:evenodd;fill:#FFFFFF;}
	.st1{opacity:0.5;fill-rule:evenodd;clip-rule:evenodd;fill:#FFFFFF;}
</style>
<path id="_x33_" class="st0" d="M34,40H10c-1.1,0-2-0.9-2-2h2h24V14V9l2,2v1v2v24C36,39.1,35.1,40,34,40z M31,37H7c-1.1,0-2-0.9-2-2
	V3c0-1.1,0.9-2,2-2h16h2h1l7,7v1v2v24C33,36.1,32.1,37,31,37z M25,3v6h6L25,3z M31,11h-8V3H7v32h24V11z M19,13v6h6c0,3.3-2.7,6-6,6
	s-6-2.7-6-6S15.7,13,19,13z"/>
<path id="_x32_" class="st1" d="M10,32v-2h18v2H10z M10,27h18v2H10V27z M20,13.1c2.5,0.4,4.5,2.4,4.9,4.9H20V13.1z M10,9h11v2H10V9z
	 M10,6h11v2H10V6z"/>
</svg>
