<?xml version="1.0" encoding="utf-8"?>

<svg version="1.1" xmlns="http://www.w3.org/2000/svg" id="svg-scheduler" viewBox="0 0 40 40" xml:space="preserve">
	<style type="text/css">
	  .st0{fill:#FFFFFF;}
	</style>
	<path class="st0" d="M33,5v3c0,0.6-0.5,1-1,1h-3c-0.5,0-1-0.4-1-1V5H13v3c0,0.6-0.4,1-1,1H9C8.4,9,8,8.6,8,8V5H3
		C2.5,5,2,5.4,2,6v31c0,0.5,0.5,1,1,1h34c0.5,0,1-0.5,1-1V6c0-0.6-0.5-1-1-1H33z M36,35c0,0.5-0.5,1-1,1H5c-0.6,0-1-0.5-1-1V13
		c0-0.6,0.4-1,1-1h30c0.5,0,1,0.4,1,1V35z"></path>
	<path class="st0" d="M11,8h-1C9.4,8,9,7.6,9,7V3c0-0.6,0.4-1,1-1h1c0.6,0,1,0.4,1,1v4C12,7.6,11.6,8,11,8z"></path>
	<path class="st0" d="M31,8h-1c-0.6,0-1-0.4-1-1V3c0-0.6,0.4-1,1-1h1c0.6,0,1,0.4,1,1v4C32,7.6,31.6,8,31,8z"></path>
	<path class="st0" d="M20,15c-5,0-9,4-9,9c0,5,4,9,9,9s9-4,9-9C29,19,25,15,20,15z M25,24c0,0.5-0.4,1-1,1h-4c-0.5,0-1-0.4-1-1
		v-5c0-0.5,0.4-1,1-1h0c0.5,0,1,0.4,1,1v4h3C24.6,23,25,23.4,25,24L25,24z"></path>
</svg>