<?xml version="1.0" encoding="utf-8"?>
<!-- Generator: Adobe Illustrator 26.1.0, SVG Export Plug-In . SVG Version: 6.00 Build 0)  -->
<svg version="1.1" id="Layer_1" xmlns="http://www.w3.org/2000/svg" xmlns:xlink="http://www.w3.org/1999/xlink" x="0px" y="0px"
	 viewBox="0 0 16 16" style="enable-background:new 0 0 16 16;" xml:space="preserve">
<style type="text/css">
	.st0{fill-rule:evenodd;clip-rule:evenodd;fill-opacity:0.64;}
</style>
<path class="st0" d="M8,2c2.2,0,4,1.8,4,4.4c0,1.7-1.3,3.9-4,6.6c-2.7-2.7-4-4.9-4-6.6C4,3.8,5.8,2,8,2z M14,6.6c0-4-2.8-6.6-6-6.6
	S2,2.6,2,6.6c0,2.7,2,5.8,6,9.4C12,12.4,14,9.2,14,6.6z M7.9,8c1,0,1.9-0.9,1.9-2S8.9,4,7.9,4S6,4.9,6,6S6.8,8,7.9,8z"/>
</svg>
