<?xml version="1.0" encoding="utf-8"?>

<svg version="1.1" xmlns="http://www.w3.org/2000/svg" id="svg-datagrid" viewBox="0 0 40 40" xml:space="preserve">
  <style type="text/css">
	  .st0{fill:#FFFFFF;}
  </style>
  <rect class="st0" x="6" y="7" width="8" height="6"></rect>
  <rect class="st0" x="26" y="7" width="8" height="6"></rect>
  <rect class="st0" x="15" y="7" width="10" height="6"></rect>
  <rect class="st0" x="6" y="27" width="8" height="6"></rect>
  <rect class="st0" x="26" y="27" width="8" height="6"></rect>
  <rect class="st0" x="15" y="27" width="10" height="6"></rect>
  <path class="st0" d="M34,17v-2h-8v-2h-1v2H15v-2h-1v2H6v2h8v2H6v2h8v2H6v2h8v2h1v-2h10v2h1v-2h8v-2h-8v-2h8v-2h-8v-2H34z M25,23 H15v-2h10V23z M25,19H15v-2h10V19z"></path>
  <path class="st0" d="M37,3H3C2.5,3,2,3.5,2,4v32c0,0.5,0.5,1,1,1h34c0.5,0,1-0.5,1-1V4C38,3.5,37.5,3,37,3z M36,35H4V5h32V35z"></path>
</svg>