<?xml version="1.0" encoding="utf-8"?>
<!-- Generator: Adobe Illustrator 26.0.1, SVG Export Plug-In . SVG Version: 6.00 Build 0)  -->
<svg version="1.1" id="_x31_" xmlns="http://www.w3.org/2000/svg" xmlns:xlink="http://www.w3.org/1999/xlink" x="0px" y="0px"
	 viewBox="0 0 18 18" style="enable-background:new 0 0 18 18;" xml:space="preserve">
<style type="text/css">
	.st0{opacity:0.5;fill-rule:evenodd;clip-rule:evenodd;fill:#010101;}
	.st1{fill-rule:evenodd;clip-rule:evenodd;fill:#010101;}
</style>
<path id="_x33_" class="st0" d="M2,4v12h12V6h2v10c0,1.1-0.9,2-2,2H2c-1.1,0-2-0.9-2-2V4c0-1.1,0.9-2,2-2h2v2H2z"/>
<path id="_x32_" class="st1" d="M16,6H6C4.9,6,4,5.1,4,4V2c0-1.1,0.9-2,2-2h10c1.1,0,2,0.9,2,2v2C18,5.1,17.1,6,16,6z M16,2H6v2h10
	V2z M12,10H4V8h8V10z M12,14H4v-2h8V14z"/>
</svg>
