<svg width="72" height="73" viewBox="0 0 72 73" fill="none" xmlns="http://www.w3.org/2000/svg">
<g opacity="0.3">
<path d="M46 14.5C47.1046 14.5 48 13.6046 48 12.5C48 11.3954 47.1046 10.5 46 10.5C44.8954 10.5 44 11.3954 44 12.5C44 13.6046 44.8954 14.5 46 14.5Z" fill="currentColor"/>
<path d="M54 12.5C54 13.6046 53.1046 14.5 52 14.5C50.8954 14.5 50 13.6046 50 12.5C50 11.3954 50.8954 10.5 52 10.5C53.1046 10.5 54 11.3954 54 12.5Z" fill="currentColor"/>
<path d="M58 14.5C59.1046 14.5 60 13.6046 60 12.5C60 11.3954 59.1046 10.5 58 10.5C56.8954 10.5 56 11.3954 56 12.5C56 13.6046 56.8954 14.5 58 14.5Z" fill="currentColor"/>
<path fill-rule="evenodd" clip-rule="evenodd" d="M4.00244 12.5C4.00244 8.08172 7.58416 4.5 12.0024 4.5H60.0024C64.4207 4.5 68.0024 8.08172 68.0024 12.5V26.5C68.0024 27.6046 67.107 28.5 66.0024 28.5C64.8979 28.5 64.0024 27.6046 64.0024 26.5V20.5H8.00244V60.5C8.00244 62.7091 9.7933 64.5 12.0024 64.5H26.0024C27.107 64.5 28.0024 65.3954 28.0024 66.5C28.0024 67.6046 27.107 68.5 26.0024 68.5H12.0024C7.58416 68.5 4.00244 64.9183 4.00244 60.5V12.5ZM60.0024 8.5C62.2116 8.5 64.0024 10.2909 64.0024 12.5V16.5H8.00244V12.5C8.00244 10.2909 9.7933 8.5 12.0024 8.5H60.0024Z" fill="currentColor"/>
</g>
<path d="M48 54.5C49.1046 54.5 50 55.3954 50 56.5C50 57.6046 49.1046 58.5 48 58.5C46.8954 58.5 46 57.6046 46 56.5C46 55.3954 46.8954 54.5 48 54.5Z" fill="currentColor"/>
<path d="M48 52.5C49.1046 52.5 50 51.6046 50 50.5V38.5C50 37.3954 49.1046 36.5 48 36.5C46.8954 36.5 46 37.3954 46 38.5V50.5C46 51.6046 46.8954 52.5 48 52.5Z" fill="currentColor"/>
<path fill-rule="evenodd" clip-rule="evenodd" d="M48 68.5C59.0457 68.5 68 59.5457 68 48.5C68 37.4543 59.0457 28.5 48 28.5C36.9543 28.5 28 37.4543 28 48.5C28 59.5457 36.9543 68.5 48 68.5ZM48 64.5C56.2843 64.5 64 56.7843 64 48.5C64 40.2157 56.2843 32.5 48 32.5C39.7157 32.5 32 40.2157 32 48.5C32 56.7843 39.7157 64.5 48 64.5Z" fill="currentColor"/>
</svg>
