<?xml version="1.0" encoding="utf-8"?>
<!-- Generator: Adobe Illustrator 23.1.0, SVG Export Plug-In . SVG Version: 6.00 Build 0)  -->
<svg version="1.1" id="_x30_" xmlns="http://www.w3.org/2000/svg" xmlns:xlink="http://www.w3.org/1999/xlink" x="0px" y="0px"
	 viewBox="0 0 16 16" style="enable-background:new 0 0 16 16;" xml:space="preserve">
<g id="_x31_">
	<path id="_x33_" d="M2,13v1c0,1.1,0.9,2,2,2h8c1.1,0,2-0.9,2-2v-1V4H2V13z M4,6h8v8H4V6z"/>
	<path id="_x32_" d="M11,1c0-0.6-0.4-1-1-1H6C5.4,0,5,0.4,5,1H2C1.4,1,1,1.4,1,2v0c0,0.6,0.4,1,1,1h12c0.6,0,1-0.4,1-1v0
		c0-0.6-0.4-1-1-1H11z"/>
</g>
</svg>
