<svg version="1.1" id="Layer_1" xmlns="http://www.w3.org/2000/svg" xmlns:xlink="http://www.w3.org/1999/xlink" x="0px" y="0px"
	 viewBox="0 0 115 34" style="enable-background:new 0 0 115 34;" xml:space="preserve">
<style type="text/css">
	.st0{fill:#010101;}
	.st1{opacity:0.5;fill:#010101;}
</style>
<g>
	<path class="st0" d="M9.3,1.6C8.1,0.6,6.4,0,3.9,0C2.3,0,1,0.1,0,0.3V15c0.8,0.1,1.8,0.2,3.3,0.2c2.6,0,4.7-0.6,6.1-1.8
		c1.2-1,2.3-2.9,2.3-6.1C11.6,4.6,10.7,2.7,9.3,1.6z M3.9,13c-0.4,0-0.8,0-1.1-0.1V2.3c0.3-0.1,0.8-0.1,1.3-0.1
		c2.7,0,4.4,1.7,4.4,5.1C8.6,11.2,6.7,13,3.9,13z"/>
	<path class="st0" d="M18,4c-3.2,0-5,2.7-5,5.8c0,3.4,1.9,5.5,5.3,5.5c1.3,0,2.6-0.2,3.5-0.7l-0.4-2c-0.8,0.2-1.6,0.4-2.7,0.4
		c-1.6,0-2.9-0.7-3-2.6h6.5c0.1-0.3,0.1-0.7,0.1-1.2C22.4,5.9,20.7,4,18,4z M15.8,8.6c0.1-1.1,0.7-2.5,2.1-2.5
		c1.4,0,1.8,1.4,1.8,2.5H15.8z"/>
	<path class="st0" d="M29.1,9.5c-0.3,1-0.4,1.8-0.6,2.7h-0.1c-0.2-0.9-0.3-1.8-0.6-2.7l-1.4-5.2h-3.1L27,15.1h2.8l3.7-10.9h-2.9
		L29.1,9.5z"/>
	<path class="st0" d="M38.1,8.5H43V6.1h-4.9V2.5h5.2V0.1h-8.1v15h8.5v-2.4h-5.5V8.5z"/>
	<path class="st0" d="M54.5,4.2h-3l-1,1.9c-0.3,0.6-0.5,1.2-0.8,1.7c-0.3-0.6-0.5-1.1-0.8-1.7l-1-2h-3.2l3.3,5.4L44.6,15h3.1l1-2.1
		c0.3-0.6,0.6-1.2,0.8-1.7c0.3,0.6,0.5,1.2,0.8,1.7l1.1,2.1h3.3l-3.4-5.6L54.5,4.2z"/>
	<path class="st0" d="M61.9,4c-1.4,0-2.5,0.6-3.3,1.7l-0.2-1.5h-2.5c0,1,0.1,2.2,0.1,3.6v11.6H59V14c0.5,0.7,1.4,1.2,2.6,1.2
		c2.2,0,4.5-1.7,4.5-5.7C66.1,6.2,64.3,4,61.9,4z M60.9,13c-1,0-1.9-0.7-1.9-2.3V8.6c0-1.3,0.9-2.3,2-2.3c1.4,0,2.2,1.4,2.2,3.3
		C63.1,11.6,62.4,13,60.9,13z"/>
	<path class="st0" d="M70.7,6.1l-0.2-1.9H68c0,1,0.1,2.1,0.1,3.4v7.5H71V9.5c0-1.8,1-2.7,2.3-2.7c0.3,0,0.5,0,0.8,0.1V4.1
		C74,4.1,73.8,4,73.5,4C72.4,4,71.2,4.7,70.7,6.1z"/>
	<path class="st0" d="M80.1,4c-3.2,0-5,2.7-5,5.8c0,3.4,1.9,5.5,5.3,5.5c1.3,0,2.6-0.2,3.5-0.7l-0.4-2c-0.8,0.2-1.6,0.4-2.7,0.4
		c-1.6,0-2.9-0.7-3-2.6h6.5c0.1-0.3,0.1-0.7,0.1-1.2C84.4,5.9,82.7,4,80.1,4z M77.8,8.6c0.1-1.1,0.7-2.5,2.1-2.5
		c1.4,0,1.8,1.4,1.8,2.5H77.8z"/>
	<path class="st0" d="M90.5,8.6c-1.3-0.5-1.7-0.8-1.7-1.4s0.5-1,1.3-1s1.6,0.3,2.1,0.6l0.6-2c-0.6-0.3-1.6-0.6-2.7-0.6
		c-2.4,0-4,1.5-4,3.4c0,1.2,0.8,2.3,2.8,3.2c1.2,0.5,1.6,0.8,1.6,1.5S90,13.3,89,13.3c-0.9,0-2-0.4-2.5-0.7l-0.6,2.1
		c0.8,0.4,1.8,0.7,3.1,0.7c2.7,0,4.3-1.3,4.3-3.4C93.2,10.4,92.3,9.3,90.5,8.6z"/>
	<path class="st0" d="M99.1,8.6c-1.3-0.5-1.7-0.8-1.7-1.4s0.5-1,1.3-1s1.6,0.3,2.1,0.6l0.6-2c-0.6-0.3-1.6-0.6-2.7-0.6
		c-2.4,0-4,1.5-4,3.4c0,1.2,0.8,2.3,2.8,3.2c1.2,0.5,1.6,0.8,1.6,1.5s-0.5,1.1-1.5,1.1c-0.9,0-2-0.4-2.5-0.7l-0.6,2.1
		c0.8,0.4,1.8,0.7,3.1,0.7c2.7,0,4.3-1.3,4.3-3.4C101.8,10.4,101,9.3,99.1,8.6z"/>
	<path class="st0" d="M104.7,3.6c0.3-0.1,0.5-0.2,0.5-0.5c0-0.2-0.1-0.3-0.2-0.4c-0.2-0.1-0.3-0.2-0.6-0.2h-0.7v2h0.4V3.7h0.2
		c0.1,0,0.3,0.1,0.3,0.3l0.2,0.5h0.5L105,3.9C104.9,3.7,104.7,3.7,104.7,3.6z M104.3,3.4h-0.3V2.8h0.3c0.3,0,0.4,0.1,0.4,0.2
		c0,0.1,0,0.2-0.1,0.2C104.6,3.4,104.5,3.4,104.3,3.4z"/>
	<path class="st0" d="M105.5,2.4c-0.3-0.3-0.7-0.4-1.2-0.4s-0.8,0.2-1.2,0.5c-0.3,0.3-0.5,0.7-0.5,1.2c0,0.4,0.2,0.8,0.5,1.2
		c0.3,0.3,0.7,0.4,1.2,0.4c0.4,0,0.8-0.2,1.2-0.5c0.3-0.3,0.5-0.7,0.5-1.2S105.8,2.7,105.5,2.4z M105.3,4.5c-0.3,0.2-0.6,0.4-1,0.4
		c-0.4,0-0.7-0.2-1-0.4c-0.3-0.2-0.4-0.6-0.4-1s0.2-0.7,0.4-1c0.3-0.2,0.6-0.4,1-0.4c0.4,0,0.7,0.2,1,0.4c0.3,0.2,0.4,0.6,0.4,1
		S105.6,4.2,105.3,4.5z"/>
</g>
<path class="st1" d="M4.8,25.3c-0.3-0.2-0.6-0.4-1-0.5v-0.1c0.3-0.1,0.6-0.2,0.8-0.4c0.2-0.2,0.4-0.5,0.5-0.8
	c0.1-0.3,0.2-0.7,0.2-1.2c0-0.9-0.3-1.5-0.7-1.9c-0.5-0.4-1.2-0.6-2.2-0.6H0v10.7h2.8c0.6,0,1.1-0.1,1.5-0.4c0.4-0.3,0.7-0.6,1-1.1
	s0.3-1,0.3-1.6c0-0.5-0.1-0.9-0.2-1.2C5.3,25.8,5.1,25.5,4.8,25.3L4.8,25.3z M1.4,20.9h1c0.5,0,0.9,0.1,1.2,0.4
	C3.8,21.5,4,21.9,4,22.4c0,0.6-0.1,1.1-0.4,1.4c-0.2,0.3-0.6,0.5-1.2,0.5H1.4V20.9z M3.8,28.7c-0.3,0.3-0.6,0.5-1.1,0.5H1.4v-3.8
	h1.1c0.4,0,0.6,0.1,0.9,0.2c0.2,0.1,0.4,0.3,0.6,0.6c0.1,0.3,0.2,0.6,0.2,1C4.2,27.9,4,28.4,3.8,28.7L3.8,28.7z M7.1,30.4h1.3V19
	H7.1V30.4z M12.6,22.2c-0.4,0-0.8,0-1.1,0.2c-0.4,0.1-0.7,0.3-1,0.5l0.4,1c0.3-0.2,0.6-0.3,0.8-0.4c0.3-0.1,0.5-0.1,0.7-0.1
	c0.4,0,0.6,0.1,0.8,0.4c0.2,0.3,0.3,0.7,0.3,1.3v0.5l-0.9,0c-0.8,0-1.5,0.3-2,0.7c-0.5,0.4-0.7,1.1-0.7,1.9c0,0.4,0.1,0.8,0.2,1.2
	c0.1,0.4,0.3,0.7,0.6,0.9c0.3,0.2,0.6,0.3,1,0.3c0.3,0,0.6,0,0.8-0.2c0.2-0.1,0.4-0.2,0.6-0.4c0.2-0.2,0.3-0.4,0.5-0.7h0l0.2,1.1h1
	V25c0-0.9-0.2-1.6-0.5-2.1C13.9,22.4,13.4,22.2,12.6,22.2L12.6,22.2z M13.5,27.3c0,0.7-0.1,1.2-0.4,1.6c-0.2,0.4-0.5,0.6-1,0.6
	c-0.3,0-0.5-0.1-0.7-0.3c-0.2-0.2-0.3-0.6-0.3-1c0-0.5,0.1-0.9,0.4-1.2c0.3-0.3,0.7-0.4,1.2-0.5l0.7,0L13.5,27.3L13.5,27.3z
	 M20,23.3v-1h-3.7v1.1h2.3l-2.5,6.1v0.9h4v-1.1h-2.5L20,23.3z M25.2,22.7c-0.4-0.3-0.9-0.5-1.5-0.5c-0.6,0-1.2,0.2-1.6,0.5
	c-0.4,0.3-0.7,0.8-0.9,1.4c-0.2,0.6-0.3,1.4-0.3,2.2c0,0.6,0.1,1.2,0.2,1.7c0.1,0.5,0.3,1,0.5,1.3s0.5,0.7,0.9,0.9
	c0.3,0.2,0.7,0.3,1.2,0.3c0.5,0,0.9-0.1,1.2-0.3c0.4-0.2,0.6-0.5,0.9-0.9c0.2-0.4,0.4-0.8,0.5-1.3c0.1-0.5,0.2-1.1,0.2-1.7
	c0-0.9-0.1-1.7-0.3-2.3C26,23.4,25.6,23,25.2,22.7L25.2,22.7z M25,28.1c-0.1,0.5-0.3,0.8-0.5,1c-0.2,0.2-0.5,0.3-0.8,0.3
	s-0.6-0.1-0.8-0.3c-0.2-0.2-0.4-0.6-0.5-1c-0.1-0.5-0.1-1-0.1-1.7c0-1,0.1-1.8,0.3-2.3c0.2-0.5,0.6-0.8,1.1-0.8
	c0.3,0,0.6,0.1,0.8,0.3c0.2,0.2,0.4,0.6,0.5,1c0.1,0.5,0.1,1,0.1,1.7C25.2,27,25.1,27.6,25,28.1L25,28.1z M30.9,22.2
	c-0.2,0-0.5,0.1-0.7,0.2c-0.2,0.1-0.4,0.3-0.5,0.6c-0.1,0.2-0.3,0.5-0.4,0.8h-0.1l-0.2-1.4h-1v8.1h1.3v-4.2c0-0.4,0-0.7,0.1-1
	c0.1-0.3,0.2-0.6,0.3-0.8c0.1-0.2,0.3-0.4,0.5-0.6c0.2-0.1,0.4-0.2,0.6-0.2c0.1,0,0.2,0,0.3,0c0.1,0,0.2,0,0.3,0.1l0.2-1.4
	c-0.1,0-0.2-0.1-0.4-0.1C31.2,22.2,31.1,22.2,30.9,22.2L30.9,22.2z M40,27c0,0.6-0.1,1-0.2,1.3c-0.1,0.3-0.3,0.6-0.5,0.7
	c-0.2,0.2-0.5,0.2-0.9,0.2c-0.5,0-0.9-0.2-1.2-0.5c-0.3-0.4-0.4-0.9-0.4-1.8v-7.3h-1.4V27c0,1.2,0.3,2.1,0.8,2.7
	c0.5,0.6,1.2,0.9,2.2,0.9c0.6,0,1.2-0.1,1.6-0.4c0.4-0.3,0.8-0.6,1-1.2c0.2-0.5,0.3-1.2,0.3-2v-7.3H40L40,27L40,27z M43.5,30.4h1.4
	V19.7h-1.4V30.4L43.5,30.4z M51.3,22c0.2-0.4,0.4-0.7,0.7-0.9c0.3-0.2,0.6-0.3,1-0.3c0.3,0,0.5,0,0.8,0.1c0.3,0.1,0.5,0.2,0.7,0.4
	l0.5-1.2c-0.3-0.2-0.6-0.3-1-0.4c-0.3-0.1-0.7-0.1-1.1-0.1c-0.6,0-1.1,0.1-1.6,0.4c-0.5,0.3-0.8,0.7-1.1,1.2s-0.5,1.1-0.7,1.8
	c-0.1,0.7-0.2,1.4-0.2,2.1c0,1.2,0.1,2.1,0.4,3c0.3,0.8,0.7,1.5,1.2,1.9c0.5,0.4,1.2,0.7,1.9,0.7c0.4,0,0.7,0,1-0.1
	c0.3-0.1,0.6-0.2,0.8-0.3v-1.3c-0.2,0.1-0.5,0.2-0.8,0.3c-0.3,0.1-0.6,0.1-0.9,0.1c-0.5,0-0.9-0.2-1.2-0.5c-0.4-0.3-0.6-0.8-0.8-1.5
	c-0.2-0.6-0.3-1.4-0.3-2.3c0-0.6,0-1.1,0.1-1.6C51,22.9,51.1,22.4,51.3,22z M60.2,22.6c-0.4-0.3-0.9-0.5-1.5-0.5
	c-0.6,0-1.2,0.2-1.6,0.5c-0.4,0.3-0.7,0.8-0.9,1.4c-0.2,0.6-0.3,1.4-0.3,2.2c0,0.6,0.1,1.2,0.2,1.7c0.1,0.5,0.3,1,0.5,1.3
	c0.2,0.4,0.5,0.7,0.9,0.9c0.3,0.2,0.7,0.3,1.2,0.3c0.5,0,0.9-0.1,1.2-0.3c0.4-0.2,0.6-0.5,0.9-0.9c0.2-0.4,0.4-0.8,0.5-1.3
	s0.2-1.1,0.2-1.7c0-0.9-0.1-1.7-0.3-2.3C61,23.4,60.6,23,60.2,22.6L60.2,22.6z M60,28c-0.1,0.5-0.3,0.8-0.5,1
	c-0.2,0.2-0.5,0.3-0.8,0.3c-0.3,0-0.6-0.1-0.8-0.3c-0.2-0.2-0.4-0.6-0.5-1c-0.1-0.5-0.1-1-0.1-1.7c0-1,0.1-1.8,0.3-2.3
	c0.2-0.5,0.6-0.8,1.1-0.8c0.3,0,0.6,0.1,0.8,0.3c0.2,0.2,0.4,0.6,0.5,1c0.1,0.5,0.1,1,0.1,1.7C60.2,27,60.1,27.6,60,28L60,28z
	 M69.6,22.2c-0.4,0-0.8,0.1-1.1,0.3c-0.3,0.2-0.5,0.5-0.7,1h-0.1c-0.1-0.4-0.3-0.7-0.5-0.9c-0.3-0.2-0.6-0.4-1.1-0.4
	c-0.3,0-0.5,0-0.8,0.2c-0.2,0.1-0.4,0.2-0.6,0.4c-0.2,0.2-0.3,0.4-0.4,0.7h-0.1l-0.1-1.1h-1.1v8.1h1.3v-4.2c0-0.6,0-1.1,0.1-1.5
	c0.1-0.4,0.2-0.8,0.4-1c0.2-0.2,0.4-0.4,0.8-0.4c0.2,0,0.4,0.1,0.5,0.2c0.1,0.1,0.3,0.3,0.3,0.6c0.1,0.3,0.1,0.6,0.1,1.1v5.1h1.3V26
	c0-0.9,0.1-1.5,0.3-2c0.2-0.4,0.5-0.7,1-0.7c0.3,0,0.6,0.2,0.7,0.5c0.2,0.3,0.3,0.8,0.3,1.5v5.1h1.3V25c0-1-0.2-1.7-0.5-2.1
	C70.7,22.4,70.3,22.2,69.6,22.2L69.6,22.2z M76.5,22.2c-0.3,0-0.5,0-0.7,0.1c-0.2,0.1-0.4,0.2-0.6,0.4c-0.2,0.2-0.3,0.4-0.5,0.7
	h-0.1l-0.2-1.2h-1.1V34h1.3v-3.6c0-0.2,0-0.3,0-0.5c0-0.2,0-0.4,0-0.6h0.1c0.1,0.3,0.3,0.5,0.5,0.7c0.2,0.2,0.4,0.3,0.6,0.4
	c0.2,0.1,0.5,0.2,0.7,0.2c0.5,0,0.9-0.2,1.2-0.5c0.3-0.3,0.6-0.8,0.8-1.4c0.2-0.6,0.3-1.4,0.3-2.3c0-1.4-0.2-2.4-0.6-3.1
	C77.8,22.5,77.2,22.2,76.5,22.2L76.5,22.2z M77.3,28.1c-0.1,0.4-0.2,0.8-0.4,1c-0.2,0.2-0.4,0.3-0.7,0.3c-0.3,0-0.6-0.1-0.8-0.3
	c-0.2-0.2-0.4-0.5-0.5-1c-0.1-0.4-0.2-1-0.2-1.6v-0.4c0-0.6,0.1-1.2,0.2-1.6c0.1-0.4,0.3-0.7,0.5-0.9c0.2-0.2,0.5-0.3,0.8-0.3
	c0.5,0,0.8,0.3,1,0.8c0.2,0.5,0.3,1.3,0.3,2.3C77.5,27.1,77.4,27.6,77.3,28.1L77.3,28.1z M84.3,22.6c-0.4-0.3-0.9-0.5-1.5-0.5
	c-0.6,0-1.2,0.2-1.6,0.5c-0.4,0.3-0.7,0.8-0.9,1.4c-0.2,0.6-0.3,1.4-0.3,2.2c0,0.6,0.1,1.2,0.2,1.7c0.1,0.5,0.3,1,0.5,1.3
	c0.2,0.4,0.5,0.7,0.9,0.9c0.3,0.2,0.7,0.3,1.2,0.3c0.5,0,0.9-0.1,1.2-0.3c0.4-0.2,0.6-0.5,0.9-0.9c0.2-0.4,0.4-0.8,0.5-1.3
	s0.2-1.1,0.2-1.7c0-0.9-0.1-1.7-0.3-2.3C85,23.4,84.7,23,84.3,22.6L84.3,22.6z M84,28c-0.1,0.5-0.3,0.8-0.5,1
	c-0.2,0.2-0.5,0.3-0.8,0.3s-0.6-0.1-0.8-0.3c-0.2-0.2-0.4-0.6-0.5-1c-0.1-0.5-0.1-1-0.1-1.7c0-1,0.1-1.8,0.3-2.3
	c0.2-0.5,0.6-0.8,1.1-0.8c0.3,0,0.6,0.1,0.8,0.3c0.2,0.2,0.4,0.6,0.5,1c0.1,0.5,0.1,1,0.1,1.7C84.2,27,84.1,27.6,84,28L84,28z
	 M90.2,22.2c-0.3,0-0.5,0.1-0.7,0.2c-0.2,0.1-0.4,0.3-0.6,0.4c-0.2,0.2-0.3,0.4-0.4,0.7h-0.1l-0.1-1.1h-1.1v8.1h1.3v-4.2
	c0-1,0.1-1.8,0.3-2.2c0.2-0.5,0.6-0.7,1.1-0.7c0.4,0,0.6,0.2,0.8,0.5c0.2,0.3,0.2,0.8,0.2,1.4v5.2h1.3v-5.5c0-0.9-0.2-1.6-0.5-2.1
	C91.3,22.4,90.8,22.2,90.2,22.2L90.2,22.2z M97.7,22.7c-0.4-0.3-0.8-0.5-1.4-0.5c-0.6,0-1.1,0.2-1.5,0.5c-0.4,0.3-0.7,0.8-0.9,1.4
	c-0.2,0.6-0.3,1.4-0.3,2.3c0,0.8,0.1,1.5,0.3,2.1c0.2,0.6,0.5,1.1,0.9,1.5c0.4,0.4,1,0.5,1.7,0.5c0.4,0,0.7,0,1-0.1
	c0.3-0.1,0.6-0.2,0.9-0.4v-1.2c-0.3,0.2-0.6,0.3-0.9,0.4c-0.3,0.1-0.6,0.1-0.9,0.1c-0.6,0-1-0.2-1.3-0.7c-0.3-0.5-0.4-1.2-0.4-2.1
	h3.8v-0.9c0-0.7-0.1-1.3-0.3-1.8C98.3,23.4,98.1,23,97.7,22.7L97.7,22.7z M95,25.6c0-0.8,0.2-1.4,0.4-1.8c0.2-0.4,0.5-0.6,0.9-0.6
	c0.3,0,0.5,0.1,0.7,0.3c0.2,0.2,0.3,0.5,0.4,0.9c0.1,0.4,0.1,0.8,0.1,1.2H95z M103.4,22.2c-0.3,0-0.5,0.1-0.7,0.2
	c-0.2,0.1-0.4,0.3-0.6,0.4c-0.2,0.2-0.3,0.4-0.4,0.7h-0.1l-0.1-1.1h-1.1v8.1h1.3v-4.2c0-1,0.1-1.8,0.3-2.2c0.2-0.5,0.6-0.7,1.1-0.7
	c0.4,0,0.6,0.2,0.8,0.5c0.2,0.3,0.2,0.8,0.2,1.4v5.2h1.3v-5.5c0-0.9-0.2-1.6-0.5-2.1C104.5,22.4,104.1,22.2,103.4,22.2L103.4,22.2z
	 M109.3,29.4c-0.3,0-0.5-0.1-0.6-0.3c-0.1-0.2-0.1-0.5-0.1-0.9v-4.8h1.4v-1.1h-1.4v-1.8h-0.9l-0.3,1.8l-0.8,0.4v0.7h0.8v4.9
	c0,0.5,0.1,0.9,0.2,1.2c0.1,0.3,0.3,0.6,0.5,0.7c0.2,0.2,0.5,0.2,0.9,0.2c0.2,0,0.4,0,0.6-0.1c0.2,0,0.4-0.1,0.5-0.2v-1.1
	c-0.1,0.1-0.3,0.1-0.4,0.1C109.6,29.4,109.5,29.4,109.3,29.4z M114.8,27.1c-0.1-0.3-0.3-0.5-0.6-0.8c-0.3-0.2-0.5-0.4-0.9-0.6
	c-0.3-0.2-0.6-0.4-0.8-0.5c-0.2-0.1-0.3-0.3-0.4-0.4c-0.1-0.2-0.1-0.3-0.1-0.5c0-0.3,0.1-0.5,0.3-0.7c0.2-0.2,0.4-0.3,0.8-0.3
	c0.3,0,0.5,0,0.7,0.1c0.2,0.1,0.5,0.2,0.7,0.4l0.4-1.1c-0.3-0.2-0.6-0.3-0.9-0.4c-0.3-0.1-0.6-0.1-1-0.1c-0.7,0-1.2,0.2-1.7,0.6
	c-0.4,0.4-0.6,0.9-0.6,1.6c0,0.4,0.1,0.8,0.2,1c0.1,0.3,0.3,0.5,0.6,0.8c0.3,0.2,0.5,0.4,0.9,0.6c0.3,0.2,0.6,0.3,0.7,0.5
	c0.2,0.2,0.3,0.3,0.4,0.5c0.1,0.2,0.1,0.3,0.1,0.5c0,0.4-0.1,0.6-0.3,0.8c-0.2,0.2-0.5,0.3-0.8,0.3s-0.7-0.1-1-0.2
	c-0.3-0.1-0.6-0.3-0.8-0.4v1.4c0.2,0.1,0.5,0.2,0.8,0.3c0.3,0.1,0.7,0.1,1,0.1c0.5,0,0.9-0.1,1.3-0.3c0.3-0.2,0.6-0.5,0.8-0.8
	c0.2-0.3,0.3-0.8,0.3-1.3C115,27.8,114.9,27.5,114.8,27.1L114.8,27.1z"/>
</svg>
