<?xml version="1.0" encoding="utf-8"?>
<!-- Generator: Adobe Illustrator 24.2.1, SVG Export Plug-In . SVG Version: 6.00 Build 0)  -->
<svg version="1.1" id="Layer_1" xmlns="http://www.w3.org/2000/svg" xmlns:xlink="http://www.w3.org/1999/xlink" x="0px" y="0px"
	 viewBox="0 0 293.3 49.3" style="enable-background:new 0 0 293.3 49.3;" xml:space="preserve">
<style type="text/css">
	.st0{fill:#3C3C3B;}
</style>
<g>
	<g>
		<path class="st0" d="M70,6.5c-3.2,0-6.2,0.3-8.5,0.7v32.4c1.7,0.2,4.1,0.4,7.2,0.4c5.7,0,10.3-1.3,13.3-4c2.5-2.3,5-6.4,5-13.5
			c0-6-1.8-10-5-12.6C79.2,7.7,75.5,6.5,70,6.5z M70.2,35c-0.9,0-1.8,0-2.4-0.1V11.8c0.7-0.1,1.7-0.3,3-0.3c5.9,0,9.5,3.7,9.5,11.1
			C80.3,31.3,76.2,35,70.2,35z"/>
		<path class="st0" d="M101,15.4c-7,0-10.9,5.9-10.9,12.8c0,7.4,4.2,12,11.6,12c3,0,5.7-0.5,7.7-1.4l-0.9-4.4c-1.6,0.6-3.5,1-5.8,1
			c-3.4,0-6.3-1.6-6.5-5.7h14.3c0.1-0.7,0.2-1.6,0.2-2.5C110.6,19.5,106.8,15.4,101,15.4z M96.1,25.3c0.2-2.4,1.5-5.5,4.5-5.5
			c3.1,0,4.1,3,4.1,5.5H96.1z"/>
		<path class="st0" d="M128.3,15.9l-3,11.6c-0.5,2.1-0.9,4-1.3,6.1h-0.1c-0.4-2.1-0.8-4-1.3-6.1l-3.1-11.6h-6.8l8,23.9h6.1l8.1-23.9
			H128.3z"/>
		<path class="st0" d="M3.2,37.5C2,39,1.1,40.4,0.5,41.6C0.3,41.9,0,42.8,0,43.4v0.9C0,45.8,1.2,47,2.7,47h41.6
			c1.5,0,2.7-1.2,2.7-2.7v-32C24.2,16.3,10.4,28.6,3.2,37.5z"/>
	</g>
	<g>
		<polygon class="st0" points="144.8,25.3 155.6,25.3 155.6,20.1 144.8,20.1 144.8,12.1 156.2,12.1 156.2,6.8 138.5,6.8 138.5,39.7 
			156.9,39.7 156.9,34.4 144.8,34.4 		"/>
		<path class="st0" d="M180.8,15.9h-6.7l-2.1,4.3c-0.6,1.2-1.2,2.5-1.8,3.8h-0.1c-0.6-1.2-1.2-2.4-1.8-3.8l-2.3-4.3h-7l7.1,11.8
			l-7.2,12.1h6.8l2.2-4.6c0.6-1.2,1.2-2.5,1.8-3.8h0.1c0.6,1.3,1.2,2.5,1.8,3.8l2.4,4.6h7.1l-7.2-12.3L180.8,15.9z"/>
		<path class="st0" d="M196.9,15.4c-3.1,0-5.5,1.3-7.1,3.8h-0.1l-0.3-3.3h-5.5c0.1,2.2,0.2,4.7,0.2,7.8v25.6h6.3V37.4h0.1
			c1,1.6,3,2.8,5.6,2.8c4.8,0,9.8-3.9,9.8-12.6C206,20.2,202.1,15.4,196.9,15.4z M194.7,35.2c-2.1,0-4.2-1.7-4.2-5.1v-4.5
			c0-2.9,1.9-5.2,4.4-5.2c3.1,0,4.8,3.1,4.8,7.3C199.6,32.1,197.9,35.2,194.7,35.2z"/>
		<path class="st0" d="M216.2,20H216l-0.3-4.2h-5.4c0.1,2.1,0.2,4.5,0.2,7.5v16.4h6.3V27.4c0-4.1,2.2-6,5-6c0.6,0,1.2,0,1.6,0.1v-6
			c-0.4-0.1-0.8-0.1-1.4-0.1C219.8,15.4,217.3,16.9,216.2,20z"/>
		<path class="st0" d="M236.6,15.4c-7,0-10.9,5.9-10.9,12.8c0,7.4,4.2,12,11.6,12c3,0,5.7-0.5,7.7-1.4l-0.9-4.4
			c-1.6,0.6-3.5,1-5.8,1c-3.4,0-6.3-1.6-6.5-5.7H246c0.1-0.7,0.2-1.6,0.2-2.5C246.2,19.5,242.4,15.4,236.6,15.4z M231.7,25.3
			c0.2-2.4,1.5-5.5,4.5-5.5c3.1,0,4.1,3,4.1,5.5H231.7z"/>
		<path class="st0" d="M259.3,25.3c-2.7-1.2-3.6-1.8-3.6-3.2c0-1.3,1-2.3,3-2.3c1.8,0,3.5,0.7,4.5,1.2l1.2-4.5
			c-1.4-0.7-3.5-1.3-5.9-1.3c-5.3,0-8.7,3.3-8.7,7.5c0,2.6,1.6,5.1,6.1,6.9c2.6,1.1,3.4,1.9,3.4,3.3c0,1.5-1.1,2.4-3.3,2.4
			c-2,0-4.3-0.9-5.6-1.6l-1.2,4.6c1.6,0.9,4.1,1.6,6.7,1.6c6,0,9.4-3,9.4-7.5C265.2,29.3,263.4,27,259.3,25.3z"/>
		<path class="st0" d="M278.3,25.3c-2.7-1.2-3.6-1.8-3.6-3.2c0-1.3,1-2.3,3-2.3c1.8,0,3.5,0.7,4.5,1.2l1.2-4.5
			c-1.4-0.7-3.5-1.3-5.9-1.3c-5.3,0-8.7,3.3-8.7,7.5c0,2.6,1.6,5.1,6.1,6.9c2.6,1.1,3.4,1.9,3.4,3.3c0,1.5-1.1,2.4-3.3,2.4
			c-2,0-4.3-0.9-5.6-1.6l-1.2,4.6c1.6,0.9,4.1,1.6,6.7,1.6c6,0,9.4-3,9.4-7.5C284.2,29.3,282.3,27,278.3,25.3z"/>
		<path class="st0" d="M44.3,0H2.7C1.2,0,0,1.2,0,2.7v24.9C8.2,19,22.9,9.5,45.2,6.9C45.8,6.9,47,6.6,47,5V2.7C47,1.2,45.8,0,44.3,0
			z"/>
		<path class="st0" d="M290.3,14.5L290.3,14.5c0.7-0.2,1.1-0.6,1.1-1.2c0-0.4-0.1-0.7-0.4-0.9c-0.3-0.2-0.7-0.3-1.3-0.3h-1.4v4.4
			h0.9v-1.8h0.4c0.3,0,0.5,0.2,0.6,0.6l0.4,1.1h1l-0.5-1.2C290.8,14.8,290.6,14.5,290.3,14.5z M289.7,14h-0.6v-1.3h0.5
			c0.6,0,0.8,0.2,0.8,0.6c0,0.2-0.1,0.3-0.2,0.5C290.1,14,290,14,289.7,14z"/>
		<path class="st0" d="M292.3,11.8c-0.7-0.7-1.5-1-2.5-1c-1,0-1.9,0.3-2.5,1c-0.7,0.7-1,1.5-1,2.5c0,1,0.3,1.8,1,2.5
			c0.7,0.6,1.5,1,2.5,1c1,0,1.8-0.3,2.5-1c0.7-0.7,1-1.5,1-2.5C293.3,13.3,293,12.5,292.3,11.8z M291.9,16.4
			c-0.6,0.6-1.3,0.9-2.1,0.9c-0.8,0-1.5-0.3-2.1-0.8c-0.6-0.6-0.9-1.3-0.9-2.1c0-0.8,0.3-1.5,0.9-2.1c0.6-0.6,1.3-0.9,2.1-0.9
			c0.8,0,1.6,0.3,2.1,0.9c0.6,0.6,0.9,1.3,0.9,2.1C292.7,15.1,292.4,15.8,291.9,16.4z"/>
	</g>
</g>
</svg>
