<?xml version="1.0" encoding="utf-8"?>
<!-- Generator: Adobe Illustrator 26.1.0, SVG Export Plug-In . SVG Version: 6.00 Build 0)  -->
<svg version="1.1" id="Layer_1" xmlns="http://www.w3.org/2000/svg" xmlns:xlink="http://www.w3.org/1999/xlink" x="0px" y="0px"
	 viewBox="0 0 32 32" style="enable-background:new 0 0 32 32;" xml:space="preserve">
<style type="text/css">
	.st0{fill:#414141;}
	.st1{fill:#F58220;}
</style>
<path class="st0" d="M2.2,25.6c-0.9,1-1.5,2-1.8,2.7C0.2,28.6,0,29.2,0,29.5v0.6c0,1,0.9,1.8,1.8,1.8h28.3c1,0,1.8-0.9,1.8-1.8V8.4
	C16.5,11.1,7.1,19.4,2.2,25.6z"/>
<path class="st1" d="M30.2,0H1.8C0.9,0,0,0.9,0,1.8v17c5.7-5.9,15.6-12.3,30.8-14c0.4,0,1.2-0.2,1.2-1.4V1.8C32,0.9,31.1,0,30.2,0z"
	/>
</svg>
