<?xml version="1.0" encoding="utf-8"?>
<!-- Generator: Adobe Illustrator 24.2.1, SVG Export Plug-In . SVG Version: 6.00 Build 0)  -->
<svg version="1.1" id="_x31_" xmlns="http://www.w3.org/2000/svg" xmlns:xlink="http://www.w3.org/1999/xlink" x="0px" y="0px"
	 viewBox="0 0 18 18" style="enable-background:new 0 0 18 18;" xml:space="preserve">
<style type="text/css">
	.st0{fill-rule:evenodd;clip-rule:evenodd;fill:#010101;}
</style>
<path id="_x32_" class="st0" d="M14.1,16h-10c-1.1,0-2-0.9-2-2V4c0-1.1,0.9-2,2-2h2.2c0.4-1.2,1.5-2,2.8-2s2.4,0.8,2.8,2h2.2
	c1.1,0,2,0.9,2,2v10C16.1,15.1,15.2,16,14.1,16z M9.1,2c-0.6,0-1,0.4-1,1s0.4,1,1,1s1-0.4,1-1S9.7,2,9.1,2z M14.1,4h-1v2
	c0,0.6-0.4,1-1,1h-6c-0.6,0-1-0.4-1-1V4h-1v10h10V4z"/>
</svg>
