<?xml version="1.0" encoding="utf-8"?>
<!-- Generator: Adobe Illustrator 21.1.0, SVG Export Plug-In . SVG Version: 6.00 Build 0)  -->
<svg version="1.1" id="_x30_" xmlns="http://www.w3.org/2000/svg" xmlns:xlink="http://www.w3.org/1999/xlink" x="0px" y="0px"
	 viewBox="0 0 18 18" style="enable-background:new 0 0 18 18;" xml:space="preserve">
<style type="text/css">
	.st0{fill-rule:evenodd;clip-rule:evenodd;}
</style>
    <path id="_x32_" d="M9,6c2,0,3,2.4,1.6,3.8c-1.4,1.4-3.8,0.4-3.8-1.6C6.8,7,7.8,6,9,6 M13.5,15h-9v-1.1c0-1.3,2-2.3,4.5-2.3
                s4.5,1,4.5,2.3 M16,16H2V5h14 M13,0v2H5V0H3v2H2C0.9,2,0,2.9,0,4v12c0,1.1,0.9,2,2,2h14c1.1,0,2-0.9,2-2V4c0-1.1-0.9-2-2-2h-1V0H13z
                "/>
</svg>
