<svg xmlns="http://www.w3.org/2000/svg">
    <symbol id="grid" width="104" height="104" viewBox="0 0 104 104">
        <path d="M8 76H96V88C96 91.3137 93.3137 94 90 94H14C10.6863 94 8 91.3137 8 88V76Z" fill="var(--grid-shadow-color)"/>
        <path d="M14 12C11 12 8 14.9677 8 18V28H96V18C96 15 93 12 90 12H14Z" fill="var(--grid-table-bg)"/>
        <path d="M14 92C11 92 8 89 8 86V76H96V86C96 89 93 92 90 92H14Z" fill="var(--grid-table-bg)"/>
        <path d="M96 28H8V44H96V28Z" fill="var(--grid-table-rows-bg)"/>
        <path d="M96 60H8V76H96V60Z" fill="var(--grid-table-rows-bg)"/>
        <path d="M8 44H96V60H8V44Z" fill="var(--grid-table-hover-bg)"/>
        <circle cx="16" cy="20" r="4" fill="var(--grid-table-btn-3)"/>
        <circle cx="28" cy="20" r="4" fill="var(--grid-table-btn-2)"/>
        <circle cx="40" cy="20" r="4" fill="var(--grid-table-btn-1)"/>
        <path d="M66 72C66 67.5817 69.5817 64 74 64H94C98.4183 64 102 67.5817 102 72V92C102 96.4183 98.4183 100 94 100H74C69.5817 100 66 96.4183 66 92V72Z" fill="var(--grid-card-shadow-color)"/>
        <path d="M66 70C66 65.5817 69.5817 62 74 62H94C98.4183 62 102 65.5817 102 70V90C102 94.4183 98.4183 98 94 98H74C69.5817 98 66 94.4183 66 90V70Z" fill="var(--grid-card-bg)"/>
        <path d="M72 89C72 87.8954 72.8954 87 74 87H94C95.1046 87 96 87.8954 96 89C96 90.1046 95.1046 91 94 91H74C72.8954 91 72 90.1046 72 89Z" fill="var(--grid-card-accent-color)"/>
        <path d="M72 71C72 69.8954 72.8954 69 74 69H88C89.1046 69 90 69.8954 90 71C90 72.1046 89.1046 73 88 73H74C72.8954 73 72 72.1046 72 71Z" fill="var(--grid-card-lines-color)"/>
        <path d="M72 80C72 78.8954 72.8954 78 74 78H94C95.1046 78 96 78.8954 96 80C96 81.1046 95.1046 82 94 82H74C72.8954 82 72 81.1046 72 80Z" fill="var(--grid-card-lines-color)"/>
        <path d="M94 69C92.8954 69 92 69.8954 92 71C92 72.1046 92.8954 73 94 73C95.1046 73 96 72.1046 96 71C96 69.8954 95.1046 69 94 69Z" fill="var(--grid-card-lines-color)"/>
        <path d="M14 34C12.8954 34 12 34.8954 12 36C12 37.1046 12.8954 38 14 38H29C30.1046 38 31 37.1046 31 36C31 34.8954 30.1046 34 29 34H14Z" fill="var(--grid-lines-color)"/>
        <path d="M14 50C12.8954 50 12 50.8954 12 52C12 53.1046 12.8954 54 14 54H32C33.1046 54 34 53.1046 34 52C34 50.8954 33.1046 50 32 50H14Z" fill="var(--grid-lines-color)"/>
        <path d="M12 68C12 66.8954 12.8954 66 14 66H24C25.1046 66 26 66.8954 26 68C26 69.1046 25.1046 70 24 70H14C12.8954 70 12 69.1046 12 68Z" fill="var(--grid-lines-color)"/>
        <path d="M44 34C42.8954 34 42 34.8954 42 36C42 37.1046 42.8954 38 44 38H62C63.1046 38 64 37.1046 64 36C64 34.8954 63.1046 34 62 34H44Z" fill="var(--grid-lines-color)"/>
        <path d="M72 36C72 34.8954 72.8954 34 74 34H82C83.1046 34 84 34.8954 84 36C84 37.1046 83.1046 38 82 38H74C72.8954 38 72 37.1046 72 36Z" fill="var(--grid-lines-color)"/>
        <path d="M30 66C28.8954 66 28 66.8954 28 68C28 69.1046 28.8954 70 30 70C31.1046 70 32 69.1046 32 68C32 66.8954 31.1046 66 30 66Z" fill="var(--grid-lines-color)"/>
        <path d="M86 36C86 34.8954 86.8954 34 88 34C89.1046 34 90 34.8954 90 36C90 37.1046 89.1046 38 88 38C86.8954 38 86 37.1046 86 36Z" fill="var(--grid-lines-color)"/>
        <path d="M44 50C42.8954 50 42 50.8954 42 52C42 53.1046 42.8954 54 44 54H55C56.1046 54 57 53.1046 57 52C57 50.8954 56.1046 50 55 50H44Z" fill="var(--grid-lines-color)"/>
        <path d="M72 52C72 50.8954 72.8954 50 74 50H90C91.1046 50 92 50.8954 92 52C92 53.1046 91.1046 54 90 54H74C72.8954 54 72 53.1046 72 52Z" fill="var(--grid-lines-color)"/>
        <path d="M44 66C42.8954 66 42 66.8954 42 68C42 69.1046 42.8954 70 44 70H60C61.1046 70 62 69.1046 62 68C62 66.8954 61.1046 66 60 66H44Z" fill="var(--grid-lines-color)"/>
    </symbol>
    <symbol id="charts" width="104" height="104" viewBox="0 0 104 104">
        <path fill-rule="evenodd" clip-rule="evenodd" d="M52 16C47.2724 16 42.5911 16.9312 38.2234 18.7403C33.8557 20.5495 29.8871 23.2012 26.5442 26.5441C23.2013 29.887 20.5495 33.8557 18.7403 38.2234C16.9312 42.5911 16 47.2724 16 52C16 56.7276 16.9312 61.4089 18.7403 65.7766C20.5495 70.1443 23.2012 74.1129 26.5441 77.4558C29.8871 80.7987 33.8557 83.4505 38.2234 85.2597C42.5911 87.0688 47.2724 88 52 88C56.7276 88 61.4089 87.0688 65.7766 85.2597C70.1443 83.4505 74.1129 80.7988 77.4558 77.4558C80.7987 74.1129 83.4505 70.1443 85.2597 65.7766C87.0688 61.4089 88 56.7276 88 52C88 47.2724 87.0688 42.5911 85.2597 38.2234C83.4505 33.8557 80.7988 29.8871 77.4558 26.5442C74.1129 23.2012 70.1443 20.5495 65.7766 18.7403C61.4089 16.9312 56.7276 16 52 16ZM35.162 11.3493C40.5003 9.13809 46.2218 8 52 8C57.7782 8 63.4997 9.13809 68.8381 11.3493C74.1764 13.5605 79.0269 16.8015 83.1127 20.8873C87.1985 24.9731 90.4395 29.8236 92.6507 35.1619C94.8619 40.5003 96 46.2218 96 52C96 57.7782 94.8619 63.4998 92.6507 68.8381C90.4395 74.1764 87.1985 79.0269 83.1127 83.1127C79.0269 87.1985 74.1764 90.4395 68.8381 92.6507C63.4997 94.8619 57.7781 96 52 96C46.2218 96 40.5002 94.8619 35.1619 92.6507C29.8236 90.4395 24.9731 87.1985 20.8873 83.1127C16.8015 79.0269 13.5605 74.1764 11.3493 68.8381C9.13809 63.4997 8 57.7781 8 52C8 46.2218 9.1381 40.5002 11.3493 35.1619C13.5605 29.8236 16.8015 24.9731 20.8873 20.8873C24.9731 16.8015 29.8236 13.5605 35.162 11.3493Z" fill="var(--charts-big-track-bg)" />
        <path fill-rule="evenodd" clip-rule="evenodd" d="M47.8847 12C47.8847 9.79086 49.6799 8 51.8943 8C60.4246 8 68.7719 10.4677 75.9249 15.1043C83.0779 19.7408 88.7296 26.3471 92.1955 34.123C95.6613 41.8988 96.7925 50.5104 95.452 58.9145C94.1114 67.3187 90.3567 75.1547 84.6428 81.4732C78.9288 87.7918 71.5007 92.3218 63.2584 94.5144C55.0161 96.707 46.3133 96.4682 38.2043 93.8268C30.0953 91.1854 22.9281 86.2548 17.571 79.6324C12.2139 73.01 8.89679 64.9799 8.02148 56.5149C7.79425 54.3174 9.39573 52.3523 11.5985 52.1256C13.8012 51.8989 15.7711 53.4965 15.9984 55.694C16.7145 62.6199 19.4285 69.19 23.8116 74.6083C28.1947 80.0267 34.0588 84.0608 40.6934 86.2219C47.328 88.3831 54.4485 88.5785 61.1922 86.7845C67.9359 84.9906 74.0134 81.2842 78.6885 76.1145C83.3636 70.9447 86.4356 64.5334 87.5324 57.6573C88.6292 50.7812 87.7037 43.7354 84.868 37.3733C82.0323 31.0113 77.4081 25.6061 71.5557 21.8126C65.7032 18.0191 58.8737 16 51.8943 16C49.6799 16 47.8847 14.2091 47.8847 12Z" fill="var(--charts-big-fill-bg)" />
        <path fill-rule="evenodd" clip-rule="evenodd" d="M52 25.888C48.5709 25.888 45.1754 26.5634 42.0074 27.8757C38.8393 29.1879 35.9608 31.1113 33.536 33.536C31.1113 35.9607 29.1879 38.8393 27.8757 42.0074C26.5634 45.1754 25.888 48.5709 25.888 52C25.888 55.4291 26.5634 58.8246 27.8757 61.9926C29.1879 65.1607 31.1113 68.0392 33.536 70.464C35.9608 72.8887 38.8393 74.8121 42.0074 76.1243C45.1754 77.4366 48.5709 78.112 52 78.112C55.4291 78.112 58.8246 77.4366 61.9926 76.1243C65.1607 74.8121 68.0392 72.8887 70.464 70.464C72.8887 68.0392 74.8121 65.1607 76.1243 61.9926C77.4366 58.8246 78.112 55.4291 78.112 52C78.112 48.5709 77.4366 45.1754 76.1243 42.0074C74.8121 38.8393 72.8887 35.9608 70.464 33.536C68.0392 31.1113 65.1607 29.1879 61.9926 27.8757C58.8246 26.5634 55.4291 25.888 52 25.888ZM52 18C56.4649 18 60.8862 18.8794 65.0112 20.5881C69.1363 22.2968 72.8844 24.8012 76.0416 27.9584C79.1988 31.1156 81.7033 34.8637 83.4119 38.9888C85.1206 43.1138 86 47.5351 86 52C86 56.465 85.1206 60.8862 83.4119 65.0112C81.7032 69.1363 79.1988 72.8844 76.0416 76.0416C72.8844 79.1988 69.1363 81.7033 65.0112 83.4119C60.8862 85.1206 56.4649 86 52 86C47.535 86 43.1138 85.1206 38.9888 83.4119C34.8637 81.7032 31.1156 79.1988 27.9584 76.0416C24.8012 72.8844 22.2967 69.1363 20.5881 65.0112C18.8794 60.8862 18 56.4649 18 52C18 47.535 18.8794 43.1138 20.5881 38.9887C22.2968 34.8637 24.8012 31.1155 27.9584 27.9584C31.1156 24.8012 34.8637 22.2967 38.9888 20.5881C43.1139 18.8794 47.5351 18 52 18Z" fill="var(--charts-small-track-bg)" />
        <path fill-rule="evenodd" clip-rule="evenodd" d="M47.8205 21.944C47.8205 19.7658 49.5972 18 51.789 18C57.1321 18 62.401 19.2438 67.1734 21.6318C71.9458 24.0197 76.0891 27.4854 79.2712 31.7512C82.4534 36.0169 84.5859 40.9641 85.4979 46.1964C86.41 51.4287 86.0762 56.8005 84.5233 61.8815C82.9704 66.9624 80.2416 71.6113 76.5555 75.4555C72.8694 79.2998 68.3286 82.2325 63.2968 84.0187C58.265 85.8049 52.8822 86.395 47.5796 85.7417C42.2771 85.0883 37.2022 83.2096 32.7617 80.2563C30.9403 79.0448 30.4518 76.5952 31.6708 74.785C32.8898 72.9747 35.3546 72.4893 37.1761 73.7008C40.5864 75.969 44.4839 77.4118 48.5562 77.9136C52.6286 78.4154 56.7626 77.9622 60.627 76.5904C64.4914 75.2185 67.9788 72.9662 70.8097 70.0138C73.6406 67.0615 75.7363 63.4912 76.9289 59.589C78.1215 55.6868 78.3779 51.5612 77.6774 47.5428C76.977 43.5245 75.3392 39.725 72.8953 36.4489C70.4514 33.1728 67.2694 30.5111 63.6042 28.6772C59.939 26.8433 55.8925 25.888 51.789 25.888C49.5972 25.888 47.8205 24.1222 47.8205 21.944Z" fill="var(--charts-small-fill-bg)" />
        <path d="M43.2654 47.0332L42.1404 46.7578L42.6033 42.4688H47.2029V43.6641H43.7751L43.5408 45.7559C43.6736 45.6777 43.8572 45.6016 44.0916 45.5273C44.3259 45.4492 44.5935 45.4102 44.8943 45.4102C45.2966 45.4102 45.656 45.4766 45.9724 45.6094C46.2927 45.7383 46.5642 45.9277 46.7869 46.1777C47.0095 46.4238 47.1794 46.7246 47.2966 47.0801C47.4138 47.4316 47.4724 47.8281 47.4724 48.2695C47.4724 48.6641 47.4138 49.0332 47.2966 49.377C47.1833 49.7207 47.0115 50.0234 46.781 50.2852C46.5505 50.5469 46.2595 50.752 45.908 50.9004C45.5603 51.0449 45.1482 51.1172 44.6716 51.1172C44.3162 51.1172 43.9744 51.0664 43.6462 50.9648C43.322 50.8594 43.031 50.7051 42.7732 50.502C42.5154 50.2949 42.3083 50.041 42.1521 49.7402C41.9958 49.4355 41.906 49.0859 41.8826 48.6914H43.2654C43.3005 48.9688 43.3767 49.2051 43.4939 49.4004C43.615 49.5918 43.7751 49.7383 43.9744 49.8398C44.1736 49.9414 44.4041 49.9922 44.6658 49.9922C44.9041 49.9922 45.1091 49.9512 45.281 49.8691C45.4529 49.7832 45.5955 49.6621 45.7087 49.5059C45.8259 49.3457 45.9119 49.1582 45.9666 48.9434C46.0251 48.7285 46.0544 48.4902 46.0544 48.2285C46.0544 47.9785 46.0212 47.75 45.9548 47.543C45.8923 47.3359 45.7966 47.1562 45.6677 47.0039C45.5427 46.8516 45.3845 46.7344 45.1931 46.6523C45.0017 46.5664 44.781 46.5234 44.531 46.5234C44.1951 46.5234 43.9373 46.5723 43.7576 46.6699C43.5818 46.7676 43.4177 46.8887 43.2654 47.0332Z" fill="var(--charts-label-color)" />
        <path d="M52.8689 42.416H53.0447V43.5703H52.9451C52.4412 43.5703 52.0056 43.6484 51.6384 43.8047C51.2751 43.9609 50.9763 44.1758 50.7419 44.4492C50.5076 44.7227 50.3318 45.043 50.2146 45.4102C50.1013 45.7734 50.0447 46.1602 50.0447 46.5703V47.9121C50.0447 48.252 50.0818 48.5527 50.156 48.8145C50.2302 49.0723 50.3337 49.2891 50.4666 49.4648C50.6033 49.6367 50.7595 49.7676 50.9353 49.8574C51.1111 49.9473 51.3005 49.9922 51.5037 49.9922C51.7146 49.9922 51.906 49.9492 52.0779 49.8633C52.2498 49.7734 52.3962 49.6504 52.5173 49.4941C52.6384 49.3379 52.7302 49.1523 52.7927 48.9375C52.8552 48.7227 52.8865 48.4883 52.8865 48.2344C52.8865 47.9922 52.8552 47.7656 52.7927 47.5547C52.7341 47.3398 52.6462 47.1523 52.5291 46.9922C52.4119 46.8281 52.2654 46.7012 52.0896 46.6113C51.9177 46.5176 51.7185 46.4707 51.4919 46.4707C51.2107 46.4707 50.9548 46.5371 50.7244 46.6699C50.4978 46.8027 50.3142 46.9766 50.1736 47.1914C50.0369 47.4023 49.9626 47.627 49.9509 47.8652L49.4119 47.6895C49.4431 47.3262 49.5232 47 49.6521 46.7109C49.7849 46.4219 49.9587 46.1758 50.1736 45.9727C50.3884 45.7695 50.6365 45.6152 50.9177 45.5098C51.2029 45.4004 51.5154 45.3457 51.8552 45.3457C52.2693 45.3457 52.6287 45.4238 52.9333 45.5801C53.238 45.7363 53.49 45.9492 53.6892 46.2188C53.8923 46.4844 54.0427 46.7891 54.1404 47.1328C54.2419 47.4727 54.2927 47.8281 54.2927 48.1992C54.2927 48.6094 54.2302 48.9922 54.1052 49.3477C53.9802 49.6992 53.7966 50.0078 53.5544 50.2734C53.3162 50.5391 53.0251 50.7461 52.6814 50.8945C52.3416 51.043 51.9548 51.1172 51.5212 51.1172C51.0642 51.1172 50.656 51.0293 50.2966 50.8535C49.9412 50.6777 49.6384 50.4355 49.3884 50.127C49.1423 49.8184 48.9548 49.4629 48.8259 49.0605C48.697 48.6582 48.6326 48.2324 48.6326 47.7832V47.1973C48.6326 46.5488 48.7146 45.9375 48.8787 45.3633C49.0427 44.7852 49.2947 44.2754 49.6345 43.834C49.9783 43.3926 50.4177 43.0469 50.9529 42.7969C51.488 42.543 52.1267 42.416 52.8689 42.416Z" fill="var(--charts-label-color)" />
        <path d="M55.365 44.5605V44.1094C55.365 43.7852 55.4353 43.4902 55.5759 43.2246C55.7166 42.959 55.9216 42.7461 56.1912 42.5859C56.4607 42.4258 56.7849 42.3457 57.1638 42.3457C57.5544 42.3457 57.8826 42.4258 58.1482 42.5859C58.4177 42.7461 58.6228 42.959 58.7634 43.2246C58.9041 43.4902 58.9744 43.7852 58.9744 44.1094V44.5605C58.9744 44.877 58.9041 45.168 58.7634 45.4336C58.6267 45.6992 58.4236 45.9121 58.1541 46.0723C57.8884 46.2324 57.5623 46.3125 57.1755 46.3125C56.7927 46.3125 56.4646 46.2324 56.1912 46.0723C55.9216 45.9121 55.7166 45.6992 55.5759 45.4336C55.4353 45.168 55.365 44.877 55.365 44.5605ZM56.3435 44.1094V44.5605C56.3435 44.7168 56.3728 44.8652 56.4314 45.0059C56.4939 45.1465 56.5876 45.2598 56.7126 45.3457C56.8376 45.4316 56.9919 45.4746 57.1755 45.4746C57.363 45.4746 57.5154 45.4316 57.6326 45.3457C57.7537 45.2598 57.8435 45.1465 57.9021 45.0059C57.9607 44.8652 57.99 44.7168 57.99 44.5605V44.1094C57.99 43.9492 57.9587 43.7988 57.8962 43.6582C57.8376 43.5137 57.7478 43.3984 57.6267 43.3125C57.5056 43.2266 57.3513 43.1836 57.1638 43.1836C56.9841 43.1836 56.8318 43.2266 56.7068 43.3125C56.5857 43.3984 56.4939 43.5137 56.4314 43.6582C56.3728 43.7988 56.3435 43.9492 56.3435 44.1094ZM59.4783 49.3652V48.9082C59.4783 48.5879 59.5486 48.2949 59.6892 48.0293C59.8337 47.7637 60.0408 47.5508 60.3103 47.3906C60.5798 47.2305 60.9041 47.1504 61.283 47.1504C61.6736 47.1504 62.0017 47.2305 62.2673 47.3906C62.5369 47.5508 62.74 47.7637 62.8767 48.0293C63.0173 48.2949 63.0876 48.5879 63.0876 48.9082V49.3652C63.0876 49.6855 63.0173 49.9785 62.8767 50.2441C62.74 50.5098 62.5388 50.7227 62.2732 50.8828C62.0076 51.043 61.6833 51.123 61.3005 51.123C60.9138 51.123 60.5837 51.043 60.3103 50.8828C60.0408 50.7227 59.8337 50.5098 59.6892 50.2441C59.5486 49.9785 59.4783 49.6855 59.4783 49.3652ZM60.4626 48.9082V49.3652C60.4626 49.5215 60.4939 49.6699 60.5564 49.8105C60.6228 49.9512 60.7185 50.0664 60.8435 50.1562C60.9685 50.2422 61.1189 50.2852 61.2947 50.2852C61.4939 50.2852 61.6541 50.2422 61.7751 50.1562C61.8962 50.0664 61.9822 49.9531 62.033 49.8164C62.0876 49.6758 62.115 49.5254 62.115 49.3652V48.9082C62.115 48.748 62.0837 48.5977 62.0212 48.457C61.9626 48.3164 61.8708 48.2031 61.7458 48.1172C61.6248 48.0312 61.4705 47.9883 61.283 47.9883C61.0994 47.9883 60.947 48.0312 60.8259 48.1172C60.7048 48.2031 60.613 48.3164 60.5505 48.457C60.4919 48.5977 60.4626 48.748 60.4626 48.9082ZM61.6345 43.6875L57.4685 50.3555L56.7478 49.9395L60.9138 43.2715L61.6345 43.6875Z" fill="var(--charts-label-color)" />
        <path d="M40.8354 58.3101H39.5059V57.7734H40.8354C41.0929 57.7734 41.3014 57.7324 41.4609 57.6504C41.6204 57.5684 41.7367 57.4544 41.8096 57.3086C41.8848 57.1628 41.9224 56.9964 41.9224 56.8096C41.9224 56.6387 41.8848 56.478 41.8096 56.3276C41.7367 56.1772 41.6204 56.0565 41.4609 55.9653C41.3014 55.8719 41.0929 55.8252 40.8354 55.8252H39.6597V60.2617H39V55.2852H40.8354C41.2114 55.2852 41.5293 55.3501 41.7891 55.48C42.0488 55.6099 42.2459 55.7899 42.3804 56.02C42.5148 56.2479 42.582 56.5088 42.582 56.8027C42.582 57.1217 42.5148 57.394 42.3804 57.6196C42.2459 57.8452 42.0488 58.0173 41.7891 58.1357C41.5293 58.252 41.2114 58.3101 40.8354 58.3101Z" fill="var(--charts-label-color)" />
        <path d="M43.9526 57.1445V60.2617H43.3203V56.5635H43.9355L43.9526 57.1445ZM45.1079 56.543L45.1045 57.1309C45.0521 57.1195 45.002 57.1126 44.9541 57.1104C44.9085 57.1058 44.8561 57.1035 44.7969 57.1035C44.651 57.1035 44.5223 57.1263 44.4106 57.1719C44.299 57.2174 44.2044 57.2812 44.127 57.3633C44.0495 57.4453 43.988 57.5433 43.9424 57.6572C43.8991 57.7689 43.8706 57.8919 43.8569 58.0264L43.6792 58.1289C43.6792 57.9056 43.7008 57.696 43.7441 57.5C43.7897 57.304 43.8592 57.1309 43.9526 56.9805C44.0461 56.8278 44.1646 56.7093 44.3081 56.625C44.4539 56.5384 44.6271 56.4951 44.8276 56.4951C44.8732 56.4951 44.9256 56.5008 44.9849 56.5122C45.0441 56.5213 45.0851 56.5316 45.1079 56.543Z" fill="var(--charts-label-color)" />
        <path d="M45.4565 58.4536V58.375C45.4565 58.1084 45.4953 57.8612 45.5728 57.6333C45.6502 57.4032 45.7619 57.2038 45.9077 57.0352C46.0535 56.8643 46.2301 56.7321 46.4375 56.6387C46.6449 56.543 46.8773 56.4951 47.1348 56.4951C47.3945 56.4951 47.6281 56.543 47.8354 56.6387C48.0451 56.7321 48.2228 56.8643 48.3687 57.0352C48.5168 57.2038 48.6296 57.4032 48.707 57.6333C48.7845 57.8612 48.8232 58.1084 48.8232 58.375V58.4536C48.8232 58.7202 48.7845 58.9674 48.707 59.1953C48.6296 59.4232 48.5168 59.6226 48.3687 59.7935C48.2228 59.9621 48.0462 60.0942 47.8389 60.1899C47.6338 60.2834 47.4014 60.3301 47.1416 60.3301C46.8818 60.3301 46.6483 60.2834 46.4409 60.1899C46.2336 60.0942 46.0558 59.9621 45.9077 59.7935C45.7619 59.6226 45.6502 59.4232 45.5728 59.1953C45.4953 58.9674 45.4565 58.7202 45.4565 58.4536ZM46.0889 58.375V58.4536C46.0889 58.6382 46.1105 58.8125 46.1538 58.9766C46.1971 59.1383 46.262 59.2819 46.3486 59.4072C46.4375 59.5326 46.548 59.6317 46.6802 59.7046C46.8123 59.7752 46.9661 59.8105 47.1416 59.8105C47.3148 59.8105 47.4663 59.7752 47.5962 59.7046C47.7284 59.6317 47.8377 59.5326 47.9243 59.4072C48.0109 59.2819 48.0758 59.1383 48.1191 58.9766C48.1647 58.8125 48.1875 58.6382 48.1875 58.4536V58.375C48.1875 58.1927 48.1647 58.0207 48.1191 57.8589C48.0758 57.6948 48.0098 57.5501 47.9209 57.4248C47.8343 57.2972 47.7249 57.1969 47.5928 57.124C47.4629 57.0511 47.3102 57.0146 47.1348 57.0146C46.9616 57.0146 46.8089 57.0511 46.6768 57.124C46.5469 57.1969 46.4375 57.2972 46.3486 57.4248C46.262 57.5501 46.1971 57.6948 46.1538 57.8589C46.1105 58.0207 46.0889 58.1927 46.0889 58.375Z" fill="var(--charts-label-color)" />
        <path d="M52.0122 56.5635H52.5864V60.1831C52.5864 60.509 52.5203 60.7869 52.3882 61.0171C52.256 61.2472 52.0715 61.4215 51.8345 61.54C51.5998 61.6608 51.3286 61.7212 51.021 61.7212C50.8934 61.7212 50.743 61.7007 50.5698 61.6597C50.3989 61.6209 50.2303 61.5537 50.064 61.458C49.8999 61.3646 49.762 61.2381 49.6504 61.0786L49.9819 60.7026C50.1369 60.8895 50.2987 61.0194 50.4673 61.0923C50.6382 61.1652 50.8068 61.2017 50.9731 61.2017C51.1737 61.2017 51.3468 61.1641 51.4927 61.0889C51.6385 61.0137 51.7513 60.902 51.8311 60.7539C51.9131 60.6081 51.9541 60.4281 51.9541 60.2139V57.377L52.0122 56.5635ZM49.4658 58.4536V58.3818C49.4658 58.0993 49.4989 57.8429 49.5649 57.6128C49.6333 57.3804 49.7301 57.181 49.8555 57.0146C49.9831 56.8483 50.1369 56.7207 50.3169 56.6318C50.4969 56.5407 50.6997 56.4951 50.9253 56.4951C51.1577 56.4951 51.3605 56.5361 51.5337 56.6182C51.7091 56.6979 51.8573 56.8153 51.978 56.9702C52.1011 57.1229 52.1979 57.3075 52.2686 57.5239C52.3392 57.7404 52.3882 57.9854 52.4155 58.2588V58.5732C52.3905 58.8444 52.3415 59.0882 52.2686 59.3047C52.1979 59.5212 52.1011 59.7057 51.978 59.8584C51.8573 60.0111 51.7091 60.1284 51.5337 60.2104C51.3582 60.2902 51.1532 60.3301 50.9185 60.3301C50.6974 60.3301 50.4969 60.2834 50.3169 60.1899C50.1392 60.0965 49.9865 59.9655 49.8589 59.7969C49.7313 59.6283 49.6333 59.43 49.5649 59.2021C49.4989 58.972 49.4658 58.7225 49.4658 58.4536ZM50.0981 58.3818V58.4536C50.0981 58.6382 50.1164 58.8114 50.1528 58.9731C50.1916 59.1349 50.2497 59.2773 50.3271 59.4004C50.4069 59.5234 50.5083 59.6203 50.6313 59.6909C50.7544 59.7593 50.9014 59.7935 51.0723 59.7935C51.2819 59.7935 51.4551 59.749 51.5918 59.6602C51.7285 59.5713 51.8368 59.4539 51.9165 59.3081C51.9985 59.1623 52.0623 59.0039 52.1079 58.833V58.0093C52.0828 57.884 52.0441 57.7632 51.9917 57.647C51.9416 57.5285 51.8755 57.4237 51.7935 57.3325C51.7137 57.2391 51.6146 57.165 51.4961 57.1104C51.3776 57.0557 51.2386 57.0283 51.0791 57.0283C50.9059 57.0283 50.7567 57.0648 50.6313 57.1377C50.5083 57.2083 50.4069 57.3063 50.3271 57.4316C50.2497 57.5547 50.1916 57.6982 50.1528 57.8623C50.1164 58.0241 50.0981 58.1973 50.0981 58.3818Z" fill="var(--charts-label-color)" />
        <path d="M54.1792 57.1445V60.2617H53.5469V56.5635H54.1621L54.1792 57.1445ZM55.3345 56.543L55.3311 57.1309C55.2786 57.1195 55.2285 57.1126 55.1807 57.1104C55.1351 57.1058 55.0827 57.1035 55.0234 57.1035C54.8776 57.1035 54.7489 57.1263 54.6372 57.1719C54.5256 57.2174 54.431 57.2812 54.3535 57.3633C54.276 57.4453 54.2145 57.5433 54.1689 57.6572C54.1257 57.7689 54.0972 57.8919 54.0835 58.0264L53.9058 58.1289C53.9058 57.9056 53.9274 57.696 53.9707 57.5C54.0163 57.304 54.0858 57.1309 54.1792 56.9805C54.2726 56.8278 54.3911 56.7093 54.5347 56.625C54.6805 56.5384 54.8537 56.4951 55.0542 56.4951C55.0998 56.4951 55.1522 56.5008 55.2114 56.5122C55.2707 56.5213 55.3117 56.5316 55.3345 56.543Z" fill="var(--charts-label-color)" />
        <path d="M57.3853 60.3301C57.1278 60.3301 56.8942 60.2868 56.6846 60.2002C56.4772 60.1113 56.2983 59.9871 56.1479 59.8276C55.9998 59.6681 55.8859 59.479 55.8062 59.2603C55.7264 59.0415 55.6865 58.8022 55.6865 58.5425V58.3989C55.6865 58.0981 55.731 57.8304 55.8198 57.5957C55.9087 57.3587 56.0295 57.1582 56.1821 56.9941C56.3348 56.8301 56.508 56.7059 56.7017 56.6216C56.8953 56.5373 57.0959 56.4951 57.3032 56.4951C57.5675 56.4951 57.7954 56.5407 57.9868 56.6318C58.1805 56.723 58.3389 56.8506 58.4619 57.0146C58.585 57.1764 58.6761 57.3678 58.7354 57.5889C58.7946 57.8076 58.8242 58.0469 58.8242 58.3066V58.5903H56.0625V58.0742H58.1919V58.0264C58.1828 57.8623 58.1486 57.7028 58.0894 57.5479C58.0324 57.3929 57.9412 57.2653 57.8159 57.165C57.6906 57.0648 57.5197 57.0146 57.3032 57.0146C57.1597 57.0146 57.0275 57.0454 56.9067 57.1069C56.786 57.1662 56.6823 57.255 56.5957 57.3735C56.5091 57.492 56.4419 57.6367 56.394 57.8076C56.3462 57.9785 56.3223 58.1756 56.3223 58.3989V58.5425C56.3223 58.7179 56.3462 58.8831 56.394 59.0381C56.4442 59.1908 56.516 59.3252 56.6094 59.4414C56.7051 59.5576 56.8201 59.6488 56.9546 59.7148C57.0913 59.7809 57.2463 59.814 57.4194 59.814C57.6427 59.814 57.8319 59.7684 57.9868 59.6772C58.1418 59.5861 58.2773 59.4642 58.3936 59.3115L58.7764 59.6157C58.6966 59.7365 58.5952 59.8516 58.4722 59.9609C58.3491 60.0703 58.1976 60.1592 58.0176 60.2275C57.8398 60.2959 57.6291 60.3301 57.3853 60.3301Z" fill="var(--charts-label-color)" />
        <path d="M61.7158 59.2808C61.7158 59.1896 61.6953 59.1053 61.6543 59.0278C61.6156 58.9481 61.5347 58.8763 61.4116 58.8125C61.2909 58.7464 61.1086 58.6895 60.8647 58.6416C60.6597 58.5983 60.474 58.547 60.3076 58.4878C60.1436 58.4285 60.0034 58.3568 59.8872 58.2725C59.7733 58.1882 59.6855 58.089 59.624 57.9751C59.5625 57.8612 59.5317 57.7279 59.5317 57.5752C59.5317 57.4294 59.5636 57.2915 59.6274 57.1616C59.6935 57.0317 59.7858 56.9167 59.9043 56.8164C60.0251 56.7161 60.1698 56.6375 60.3384 56.5806C60.507 56.5236 60.695 56.4951 60.9023 56.4951C61.1986 56.4951 61.4515 56.5475 61.6611 56.6523C61.8708 56.7572 62.0314 56.8973 62.1431 57.0728C62.2547 57.2459 62.3105 57.4385 62.3105 57.6504H61.6782C61.6782 57.5479 61.6475 57.4487 61.5859 57.353C61.5267 57.255 61.439 57.1742 61.3228 57.1104C61.2088 57.0465 61.0687 57.0146 60.9023 57.0146C60.7269 57.0146 60.5845 57.042 60.4751 57.0967C60.368 57.1491 60.2894 57.2163 60.2393 57.2983C60.1914 57.3804 60.1675 57.467 60.1675 57.5581C60.1675 57.6265 60.1789 57.688 60.2017 57.7427C60.2267 57.7951 60.27 57.8441 60.3315 57.8896C60.3931 57.9329 60.4797 57.974 60.5913 58.0127C60.703 58.0514 60.8454 58.0902 61.0186 58.1289C61.3216 58.1973 61.5711 58.2793 61.7671 58.375C61.9631 58.4707 62.1089 58.5881 62.2046 58.7271C62.3003 58.866 62.3481 59.0347 62.3481 59.2329C62.3481 59.3947 62.314 59.5428 62.2456 59.6772C62.1795 59.8117 62.0827 59.9279 61.9551 60.0259C61.8298 60.1216 61.6794 60.1968 61.5039 60.2515C61.3307 60.3039 61.1359 60.3301 60.9194 60.3301C60.5936 60.3301 60.3179 60.272 60.0923 60.1558C59.8667 60.0396 59.6958 59.8892 59.5796 59.7046C59.4634 59.52 59.4053 59.3252 59.4053 59.1201H60.041C60.0501 59.2933 60.1003 59.4312 60.1914 59.5337C60.2826 59.634 60.3942 59.7057 60.5264 59.749C60.6585 59.79 60.7896 59.8105 60.9194 59.8105C61.0926 59.8105 61.2373 59.7878 61.3535 59.7422C61.472 59.6966 61.562 59.634 61.6235 59.5542C61.6851 59.4744 61.7158 59.3833 61.7158 59.2808Z" fill="var(--charts-label-color)" />
        <path d="M65.332 59.2808C65.332 59.1896 65.3115 59.1053 65.2705 59.0278C65.2318 58.9481 65.1509 58.8763 65.0278 58.8125C64.9071 58.7464 64.7248 58.6895 64.481 58.6416C64.2759 58.5983 64.0902 58.547 63.9238 58.4878C63.7598 58.4285 63.6196 58.3568 63.5034 58.2725C63.3895 58.1882 63.3018 58.089 63.2402 57.9751C63.1787 57.8612 63.1479 57.7279 63.1479 57.5752C63.1479 57.4294 63.1799 57.2915 63.2437 57.1616C63.3097 57.0317 63.402 56.9167 63.5205 56.8164C63.6413 56.7161 63.786 56.6375 63.9546 56.5806C64.1232 56.5236 64.3112 56.4951 64.5186 56.4951C64.8148 56.4951 65.0677 56.5475 65.2773 56.6523C65.487 56.7572 65.6476 56.8973 65.7593 57.0728C65.8709 57.2459 65.9268 57.4385 65.9268 57.6504H65.2944C65.2944 57.5479 65.2637 57.4487 65.2021 57.353C65.1429 57.255 65.0552 57.1742 64.939 57.1104C64.825 57.0465 64.6849 57.0146 64.5186 57.0146C64.3431 57.0146 64.2007 57.042 64.0913 57.0967C63.9842 57.1491 63.9056 57.2163 63.8555 57.2983C63.8076 57.3804 63.7837 57.467 63.7837 57.5581C63.7837 57.6265 63.7951 57.688 63.8179 57.7427C63.8429 57.7951 63.8862 57.8441 63.9478 57.8896C64.0093 57.9329 64.0959 57.974 64.2075 58.0127C64.3192 58.0514 64.4616 58.0902 64.6348 58.1289C64.9378 58.1973 65.1873 58.2793 65.3833 58.375C65.5793 58.4707 65.7251 58.5881 65.8208 58.7271C65.9165 58.866 65.9644 59.0347 65.9644 59.2329C65.9644 59.3947 65.9302 59.5428 65.8618 59.6772C65.7957 59.8117 65.6989 59.9279 65.5713 60.0259C65.446 60.1216 65.2956 60.1968 65.1201 60.2515C64.9469 60.3039 64.7521 60.3301 64.5356 60.3301C64.2098 60.3301 63.9341 60.272 63.7085 60.1558C63.4829 60.0396 63.312 59.8892 63.1958 59.7046C63.0796 59.52 63.0215 59.3252 63.0215 59.1201H63.6572C63.6663 59.2933 63.7165 59.4312 63.8076 59.5337C63.8988 59.634 64.0104 59.7057 64.1426 59.749C64.2747 59.79 64.4058 59.8105 64.5356 59.8105C64.7088 59.8105 64.8535 59.7878 64.9697 59.7422C65.0882 59.6966 65.1782 59.634 65.2397 59.5542C65.3013 59.4744 65.332 59.3833 65.332 59.2808Z" fill="var(--charts-label-color)" />
        <rect x="2" y="10" width="42" height="24" rx="12" fill="var(--charts-legend-shadow-color)"/>
        <rect x="2" y="8" width="42" height="24" rx="12" fill="var(--charts-legend-bg)" />
        <circle cx="14" cy="20" r="6" fill="var(--charts-small-fill-bg)" />
        <circle cx="32" cy="20" r="6" fill="var(--charts-big-fill-bg)" />
    </symbol>
	<symbol id="scheduler" width="104" height="104" viewBox="0 0 104 104">
        <rect x="8" y="8" width="88" height="88" rx="12" fill="var(--scheduler-shadow-color)" />
        <rect x="8" y="8" width="88" height="86" rx="12" fill="var(--scheduler-bg)" />
        <rect x="8" y="8" width="88" height="84" rx="12" fill="var(--scheduler-day-bg)" />
        <path d="M40.4922 72.5974C43.2995 72.5974 45.7695 72.1052 47.9023 71.1208C50.0534 70.1365 51.7396 68.7693 52.9609 67.0193C54.1823 65.2693 54.793 63.2732 54.793 61.031V60.9763C54.793 58.2055 53.9089 55.9815 52.1406 54.3044C50.3724 52.6274 48.0391 51.6703 45.1406 51.4333V51.2966C46.7448 50.9685 48.1667 50.3943 49.4062 49.574C50.6641 48.7354 51.6484 47.6964 52.3594 46.4568C53.0885 45.199 53.4531 43.7498 53.4531 42.1091V42.0544C53.4531 40.031 52.9154 38.2537 51.8398 36.7224C50.7643 35.1912 49.2513 33.9972 47.3008 33.1404C45.3503 32.2654 43.0625 31.8279 40.4375 31.8279C37.8672 31.8279 35.5977 32.2836 33.6289 33.1951C31.6784 34.0883 30.1107 35.3552 28.9258 36.9958C27.7591 38.6365 27.0664 40.5597 26.8477 42.7654L26.8203 43.0662H32.6172L32.6445 42.7927C32.7721 41.5714 33.1732 40.5141 33.8477 39.6208C34.5221 38.7276 35.4245 38.044 36.5547 37.5701C37.6849 37.0961 38.9792 36.8591 40.4375 36.8591C41.9323 36.8591 43.1992 37.0961 44.2383 37.5701C45.2956 38.0258 46.0885 38.7003 46.6172 39.5935C47.1641 40.4867 47.4375 41.5714 47.4375 42.8474V42.9021C47.4375 44.1235 47.1185 45.2081 46.4805 46.156C45.8607 47.1039 44.9766 47.8513 43.8281 48.3982C42.6979 48.9268 41.3854 49.1912 39.8906 49.1912H35.2695V54.0037H40.082C42.707 54.0037 44.776 54.6052 46.2891 55.8083C47.8021 56.9932 48.5586 58.6977 48.5586 60.9216V60.9763C48.5586 62.2341 48.2214 63.3552 47.5469 64.3396C46.8724 65.324 45.9245 66.0987 44.7031 66.6638C43.5 67.2107 42.0964 67.4841 40.4922 67.4841C38.8516 67.4841 37.4115 67.2289 36.1719 66.7185C34.9505 66.2081 33.9661 65.5063 33.2188 64.613C32.4896 63.7016 32.0612 62.6716 31.9336 61.5232L31.9062 61.2224H26L26.0273 61.5505C26.2096 63.7016 26.9115 65.6156 28.1328 67.2927C29.3542 68.9516 31.013 70.255 33.1094 71.2029C35.224 72.1326 37.6849 72.5974 40.4922 72.5974Z" fill="var(--scheduler-day-color)" />
        <path d="M70.5977 71.9412H76.6133V32.4841H70.543L60.1523 39.8669V45.6912L70.4609 38.5818H70.5977V71.9412Z" fill="var(--scheduler-day-color)" />
        <path d="M22 8V14C22 17.5346 24.5119 20 28 20H76C79.5 20 82 17.5346 82 14V8H22Z" fill="var(--scheduler-clip-color)" />
        <circle cx="30" cy="14" r="3" fill="var(--scheduler-dot-bg)" />
        <circle cx="74" cy="14" r="3" fill="var(--scheduler-dot-bg)" />
	</symbol>
	<symbol id="editors" width="104" height="104" viewBox="0 0 104 104">
		<path d="M8 60C8 56.6863 10.6863 54 14 54H90C93.3137 54 96 56.6863 96 60V88C96 91.3137 93.3137 94 90 94H14C10.6863 94 8 91.3137 8 88V60Z" fill="var(--editors-shadow-color)" />
		<rect x="8" y="12" width="88" height="80" rx="6" fill="var(--editors-bg)" />
		<path d="M42 22C40.8954 22 40 22.8954 40 24C40 25.1046 40.8954 26 42 26H86C87.1046 26 88 25.1046 88 24C88 22.8954 87.1046 22 86 22H42Z" fill="var(--editors-lines-color)" />
		<path d="M40 32C40 30.8954 40.8954 30 42 30H70C71.1046 30 72 30.8954 72 32C72 33.1046 71.1046 34 70 34H42C40.8954 34 40 33.1046 40 32Z" fill="var(--editors-lines-color)" />
		<path d="M74 32C74 30.8954 74.8954 30 76 30C77.1046 30 78 30.8954 78 32C78 33.1046 77.1046 34 76 34C74.8954 34 74 33.1046 74 32Z" fill="var(--editors-lines-color)" />
		<circle cx="24" cy="28" r="6" fill="var(--editors-check-color)" />
		<path fill-rule="evenodd" clip-rule="evenodd" d="M24 36C28.4183 36 32 32.4183 32 28C32 23.5817 28.4183 20 24 20C19.5817 20 16 23.5817 16 28C16 32.4183 19.5817 36 24 36ZM22.5758 31.92L19.0154 28.3595L20.0194 27.3555L22.5758 29.9048L27.9806 24.5L28.9847 25.5112L22.5758 31.92Z" fill="var(--editors-accent-color)" />
		<path d="M40 48C40 46.8954 40.8954 46 42 46H70C71.1046 46 72 46.8954 72 48C72 49.1046 71.1046 50 70 50H42C40.8954 50 40 49.1046 40 48Z" fill="var(--editors-lines-color)" />
		<path d="M40 56C40 54.8954 40.8954 54 42 54H62C63.1046 54 64 54.8954 64 56C64 57.1046 63.1046 58 62 58H42C40.8954 58 40 57.1046 40 56Z" fill="var(--editors-lines-color)" />
		<path d="M78 46C76.8954 46 76 46.8954 76 48C76 49.1046 76.8954 50 78 50H86C87.1046 50 88 49.1046 88 48C88 46.8954 87.1046 46 86 46H78Z" fill="var(--editors-lines-color)" />
		<circle cx="24" cy="52" r="6" fill="var(--editors-check-color)" />
		<path fill-rule="evenodd" clip-rule="evenodd" d="M24 60C28.4183 60 32 56.4183 32 52C32 47.5817 28.4183 44 24 44C19.5817 44 16 47.5817 16 52C16 56.4183 19.5817 60 24 60ZM22.5758 55.92L19.0154 52.3595L20.0194 51.3555L22.5758 53.9048L27.9806 48.5L28.9847 49.5112L22.5758 55.92Z" fill="var(--editors-accent-color)" />
		<path d="M42 70C40.8954 70 40 70.8954 40 72C40 73.1046 40.8954 74 42 74H54C55.1046 74 56 73.1046 56 72C56 70.8954 55.1046 70 54 70H42Z" fill="var(--editors-lines-color)" />
		<path d="M42 78C40.8954 78 40 78.8954 40 80C40 81.1046 40.8954 82 42 82H71C72.1046 82 73 81.1046 73 80C73 78.8954 72.1046 78 71 78H42Z" fill="var(--editors-lines-color)" />
		<path d="M60 72C60 70.8954 60.8954 70 62 70H78C79.1046 70 80 70.8954 80 72C80 73.1046 79.1046 74 78 74H62C60.8954 74 60 73.1046 60 72Z" fill="var(--editors-lines-color)" />
		<path d="M86 70C84.8954 70 84 70.8954 84 72C84 73.1046 84.8954 74 86 74C87.1046 74 88 73.1046 88 72C88 70.8954 87.1046 70 86 70Z" fill="var(--editors-lines-color)" />
		<circle cx="24" cy="76" r="6.5" stroke="var(--editors-uncheck-color)" fill="var(--editors-bg)" stroke-width="3" />
	</symbol>
    <symbol id="richedit" width="104" height="104" viewBox="0 0 104 104">
        <path d="M8 54H96V88C96 91.3137 93.3137 94 90 94H14C10.6863 94 8 91.3137 8 88V54Z" fill="var(--richedit-shadow-color)" />
        <rect x="8" y="12" width="88" height="80" rx="6" fill="var(--richedit-bg)" />
        <path d="M8 18C8 14.6863 10.6863 12 14 12H90C93.3137 12 96 14.6863 96 18V28H8V18Z" fill="var(--richedit-header-bg)" />
        <rect x="66" y="18" width="24" height="4" rx="2" fill="var(--richedit-header-lines-color)" />
        <rect x="44" y="18" width="4" height="4" rx="2" fill="var(--richedit-header-lines-color)" />
        <rect x="50" y="18" width="4" height="4" rx="2" fill="var(--richedit-header-lines-color)" />
        <rect x="56" y="18" width="4" height="4" rx="2" fill="var(--richedit-header-lines-color)" />
        <rect x="12" y="16" width="8" height="8" rx="4" fill="var(--richedit-accent-color)" />
        <path d="M30 40C30 37.7909 31.7909 36 34 36H64.1614C65.2284 36 66.2511 36.4263 67.0023 37.1841L72.8409 43.0745C73.5834 43.8236 74 44.8357 74 45.8904V80C74 82.2091 72.2091 84 70 84H34C31.7909 84 30 82.2091 30 80V40Z" fill="var(--richedit-page-bg)" />
        <path d="M36 48C36 46.8954 36.8954 46 38 46H56C57.1046 46 58 46.8954 58 48C58 49.1046 57.1046 50 56 50H38C36.8954 50 36 49.1046 36 48Z" fill="var(--richedit-page-lines-color)" />
        <path d="M36 64C36 62.8954 36.8954 62 38 62H62C63.1046 62 64 62.8954 64 64C64 65.1046 63.1046 66 62 66H38C36.8954 66 36 65.1046 36 64Z" fill="var(--richedit-page-lines-color)" />
        <path d="M64 46C62.8954 46 62 46.8954 62 48C62 49.1046 62.8954 50 64 50C65.1046 50 66 49.1046 66 48C66 46.8954 65.1046 46 64 46Z" fill="var(--richedit-page-lines-color)" />
        <path d="M36 56C36 54.8954 36.8954 54 38 54H46C47.1046 54 48 54.8954 48 56C48 57.1046 47.1046 58 46 58H38C36.8954 58 36 57.1046 36 56Z" fill="var(--richedit-page-lines-color)" />
        <path d="M54 54C52.8954 54 52 54.8954 52 56C52 57.1046 52.8954 58 54 58H66C67.1046 58 68 57.1046 68 56C68 54.8954 67.1046 54 66 54H54Z" fill="var(--richedit-page-lines-color)" />
        <path d="M36 72C36 70.8954 36.8954 70 38 70H46C47.1046 70 48 70.8954 48 72C48 73.1046 47.1046 74 46 74H38C36.8954 74 36 73.1046 36 72Z" fill="var(--richedit-page-lines-color)" />
        <path d="M54 70C52.8954 70 52 70.8954 52 72C52 73.1046 52.8954 74 54 74C55.1046 74 56 73.1046 56 72C56 70.8954 55.1046 70 54 70Z" fill="var(--richedit-page-lines-color)" />
    </symbol>
    <symbol id="reports" width="104" height="104" viewBox="0 0 104 104">
        <path d="M13 19C13 14.5817 16.5817 11 21 11H63.4L85 32.0435V91C85 95.4183 81.4183 99 77 99H21C16.5817 99 13 95.4183 13 91V19Z" fill="var(--reports-bg)" />
        <path d="M19 13C19 8.58172 22.5817 5 27 5H69.4L91 26.0435V85C91 89.4183 87.4183 93 83 93H27C22.5817 93 19 89.4183 19 85V13Z" fill="var(--reports-page-bg)" />
        <path fill-rule="evenodd" clip-rule="evenodd" d="M54.9999 17C63.8366 17 71 24.1635 71 33C71 41.8365 63.8366 49 54.9999 49C46.1634 49 39 41.8365 39 33C39 24.1635 46.1634 17 54.9999 17Z" fill="var(--reports-accent-color)" />
        <path fill-rule="evenodd" clip-rule="evenodd" d="M52.9914 31.581V16.3838C52.9914 14.1657 55.1741 12.5424 57.4219 13.0796C66.3402 15.2108 73.2522 22.183 74.9108 30.9191C75.3114 33.0278 73.6586 34.9821 71.42 34.9821H56.5442C54.582 34.9821 52.9914 33.4593 52.9914 31.581Z" fill="var(--reports-accent-color-subtle)" />
        <path d="M33 61C33 59.8954 33.8954 59 35 59C36.1046 59 37 59.8954 37 61C37 62.1046 36.1046 63 35 63C33.8954 63 33 62.1046 33 61Z" fill="var(--reports-lines-color)" />
        <path d="M35 67C33.8954 67 33 67.8954 33 69C33 70.1046 33.8954 71 35 71C36.1046 71 37 70.1046 37 69C37 67.8954 36.1046 67 35 67Z" fill="var(--reports-lines-color)" />
        <path d="M35 75C33.8954 75 33 75.8954 33 77C33 78.1046 33.8954 79 35 79C36.1046 79 37 78.1046 37 77C37 75.8954 36.1046 75 35 75Z" fill="var(--reports-lines-color)" />
        <path d="M43 59C41.8954 59 41 59.8954 41 61C41 62.1046 41.8954 63 43 63H71C72.1046 63 73 62.1046 73 61C73 59.8954 72.1046 59 71 59H43Z" fill="var(--reports-lines-color)" />
        <path d="M41 69C41 67.8954 41.8954 67 43 67H75C76.1046 67 77 67.8954 77 69C77 70.1046 76.1046 71 75 71H43C41.8954 71 41 70.1046 41 69Z" fill="var(--reports-lines-color)" />
        <path d="M43 75C41.8954 75 41 75.8954 41 77C41 78.1046 41.8954 79 43 79H67C68.1046 79 69 78.1046 69 77C69 75.8954 68.1046 75 67 75H43Z" fill="var(--reports-lines-color)" />
    </symbol>
    <symbol id="navigation" width="104" height="104" viewBox="0 0 104 104">
        <rect x="8.00006" y="12" width="88" height="82" rx="6" fill="var(--navigation-shadow-color)" />
        <path d="M14 12C10.6863 12 8 14.6578 8 17.9715C8 32.6148 8 70.2566 8 86.0139C8 89.3276 10.6509 92 13.9646 92C31.1321 92 74.2024 92 90.0377 92C93.3514 92 96 89.3137 96 86V18C96 14.6863 93.3137 12 90 12H14Z" fill="var(--navigation-bg)" />
        <path d="M8 17.9708C8 14.657 10.6863 12 14 12H40V92H14C10.6863 92 8 89.3237 8 86.01C8 70.3018 8 32.6228 8 17.9708Z" fill="var(--navigation-sidebar-bg)" />
        <path d="M49.6667 18C48.7462 18 48 18.7675 48 19.7143V32.2857C48 33.2325 48.7462 34 49.6667 34H86.3333C87.2538 34 88 33.2325 88 32.2857V19.7143C88 18.7675 87.2538 18 86.3333 18H49.6667Z" fill="var(--navigation-image-bg)" />
        <path d="M50 40C48.8954 40 48 40.8954 48 42C48 43.1046 48.8954 44 50 44H86C87.1046 44 88 43.1046 88 42C88 40.8954 87.1046 40 86 40H50Z" fill="var(--navigation-lines-color)" />
        <path d="M50 48C48.8954 48 48 48.8954 48 50C48 51.1046 48.8954 52 50 52H78C79.1046 52 80 51.1046 80 50C80 48.8954 79.1046 48 78 48H50Z" fill="var(--navigation-lines-color)" />
        <path d="M48 58C48 56.8954 48.8954 56 50 56H62C63.1046 56 64 56.8954 64 58C64 59.1046 63.1046 60 62 60H50C48.8954 60 48 59.1046 48 58Z" fill="var(--navigation-lines-color)" />
        <path d="M50 72C48.8954 72 48 72.8954 48 74C48 75.1046 48.8954 76 50 76H56C57.1046 76 58 75.1046 58 74C58 72.8954 57.1046 72 56 72H50Z" fill="var(--navigation-lines-color)" />
        <path d="M48 66C48 64.8954 48.8954 64 50 64C51.1046 64 52 64.8954 52 66C52 67.1046 51.1046 68 50 68C48.8954 68 48 67.1046 48 66Z" fill="var(--navigation-lines-color)" />
        <path d="M56 64C54.8954 64 54 64.8954 54 66C54 67.1046 54.8954 68 56 68H60C61.1046 68 62 67.1046 62 66C62 64.8954 61.1046 64 60 64H56Z" fill="var(--navigation-lines-color)" />
        <path d="M12 42C12 40.8954 12.8954 40 14 40H32C33.1046 40 34 40.8954 34 42C34 43.1046 33.1046 44 32 44H14C12.8954 44 12 43.1046 12 42Z" fill="var(--navigation-sidebar-lines-color)" />
        <path d="M12 50C12 48.8954 12.8954 48 14 48H24C25.1046 48 26 48.8954 26 50C26 51.1046 25.1046 52 24 52H14C12.8954 52 12 51.1046 12 50Z" fill="var(--navigation-sidebar-lines-color)" />
        <path d="M14 56C12.8954 56 12 56.8954 12 58C12 59.1046 12.8954 60 14 60H22C23.1046 60 24 59.1046 24 58C24 56.8954 23.1046 56 22 56H14Z" fill="var(--navigation-sidebar-lines-color)" />
        <path d="M12 66C12 64.8954 12.8954 64 14 64C15.1046 64 16 64.8954 16 66C16 67.1046 15.1046 68 14 68C12.8954 68 12 67.1046 12 66Z" fill="var(--navigation-sidebar-lines-color)" />
        <path d="M30 48C28.8954 48 28 48.8954 28 50C28 51.1046 28.8954 52 30 52C31.1046 52 32 51.1046 32 50C32 48.8954 31.1046 48 30 48Z" fill="var(--navigation-sidebar-lines-color)" />
        <rect x="12" y="16" width="8" height="8" rx="4" fill="var(--navigation-accent-color)" />
        <path d="M66 72C66 67.5817 69.5817 64 74 64H94C98.4183 64 102 67.5817 102 72V92C102 96.4183 98.4183 100 94 100H74C69.5817 100 66 96.4183 66 92V72Z" fill="var(--navigation-card-shadow-color)" />
        <path d="M66 70C66 65.5817 69.5817 62 74 62H94C98.4183 62 102 65.5817 102 70V90C102 94.4183 98.4183 98 94 98H74C69.5817 98 66 94.4183 66 90V70Z" fill="var(--navigation-card-bg)" />
        <path d="M72 89C72 87.8954 72.8954 87 74 87H94C95.1046 87 96 87.8954 96 89C96 90.1046 95.1046 91 94 91H74C72.8954 91 72 90.1046 72 89Z" fill="var(--navigation-accent-color)" />
        <path d="M72 71C72 69.8954 72.8954 69 74 69H88C89.1046 69 90 69.8954 90 71C90 72.1046 89.1046 73 88 73H74C72.8954 73 72 72.1046 72 71Z" fill="var(--navigation-card-lines-color)" />
        <path d="M72 80C72 78.8954 72.8954 78 74 78H94C95.1046 78 96 78.8954 96 80C96 81.1046 95.1046 82 94 82H74C72.8954 82 72 81.1046 72 80Z" fill="var(--navigation-card-lines-color)" />
        <path d="M94 69C92.8954 69 92 69.8954 92 71C92 72.1046 92.8954 73 94 73C95.1046 73 96 72.1046 96 71C96 69.8954 95.1046 69 94 69Z" fill="var(--navigation-card-lines-color)" />
    </symbol>
    <symbol id="layout" width="104" height="104" viewBox="0 0 104 104">
        <path d="M8 54H96V88C96 91.3137 93.3137 94 90 94H14C10.6863 94 8 91.3137 8 88V54Z" fill="var(--layout-shadow-color)" />
        <rect x="8" y="12" width="88" height="80" rx="6" fill="var(--layout-bg)" />
        <path d="M8 18C8 14.6863 10.6863 12 14 12H90C93.3137 12 96 14.6863 96 18V28H8V18Z" fill="var(--layout-header-bg)" />
        <rect x="66" y="18" width="24" height="4" rx="2" fill="var(--layout-header-lines-color)" />
        <rect x="44" y="18" width="4" height="4" rx="2" fill="var(--layout-header-lines-color)" />
        <rect x="50" y="18" width="4" height="4" rx="2" fill="var(--layout-header-lines-color)" />
        <rect x="56" y="18" width="4" height="4" rx="2" fill="var(--layout-header-lines-color)" />
        <rect x="12" y="16" width="8" height="8" rx="4" fill="var(--layout-accent-color)" />
        <path d="M16 40C16 37.7909 17.7909 36 20 36H32C34.2091 36 36 37.7909 36 40V48H84C86.2091 48 88 49.7909 88 52V80C88 82.2091 86.2091 84 84 84H20C17.7909 84 16 82.2091 16 80V40Z" fill="var(--layout-tabpage-bg)" />
        <path fill-rule="evenodd" clip-rule="evenodd" d="M20 54C20 52.8954 20.8954 52 22 52H37C38.1046 52 39 52.8954 39 54V78C39 79.1046 38.1046 80 37 80H22C20.8954 80 20 79.1046 20 78V54ZM43 54C43 52.8954 43.8954 52 45 52H71C72.1046 52 73 52.8954 73 54V58C73 59.1046 72.1046 60 71 60H45C43.8954 60 43 59.1046 43 58V54ZM45 64C43.8954 64 43 64.8954 43 66V78C43 79.1046 43.8954 80 45 80H82C83.1046 80 84 79.1046 84 78V66C84 64.8954 83.1046 64 82 64H45Z" fill="var(--layout-tabpage-content-color)" />
        <path d="M20 42C20 40.8954 20.8954 40 22 40H30C31.1046 40 32 40.8954 32 42C32 43.1046 31.1046 44 30 44H22C20.8954 44 20 43.1046 20 42Z" fill="var(--layout-accent-color)" />
        <path fill-rule="evenodd" clip-rule="evenodd" d="M42 40C40.8954 40 40 40.8954 40 42C40 43.1046 40.8954 44 42 44H50C51.1046 44 52 43.1046 52 42C52 40.8954 51.1046 40 50 40H42ZM62 40C60.8954 40 60 40.8954 60 42C60 43.1046 60.8954 44 62 44H70C71.1046 44 72 43.1046 72 42C72 40.8954 71.1046 40 70 40H62Z" fill="var(--layout-tabpage-lines-color)" />
    </symbol>
    <symbol id="dialogs" width="104" height="104" viewBox="0 0 104 104">
        <path d="M8 54H96V88C96 91.3137 93.3137 94 90 94H14C10.6863 94 8 91.3137 8 88V54Z" fill="var(--dialogs-shadow-color)" />
        <rect x="8" y="12" width="88" height="80" rx="6" fill="var(--dialogs-bg)" />
        <path d="M8 18C8 14.6863 10.6863 12 14 12H90C93.3137 12 96 14.6863 96 18V28H8V18Z" fill="var(--dialogs-header-bg)" />
        <rect x="66" y="18" width="24" height="4" rx="2" fill="var(--dialogs-header-lines-color)" />
        <rect x="44" y="18" width="4" height="4" rx="2" fill="var(--dialogs-header-lines-color)" />
        <rect x="50" y="18" width="4" height="4" rx="2" fill="var(--dialogs-header-lines-color)" />
        <rect x="56" y="18" width="4" height="4" rx="2" fill="var(--dialogs-header-lines-color)" />
        <rect x="12" y="16" width="8" height="8" rx="4" fill="var(--dialogs-accent-color)" />
        <path d="M24 44C24 41.7909 25.7909 40 28 40H76C78.2091 40 80 41.7909 80 44V76C80 78.2091 78.2091 80 76 80H28C25.7909 80 24 78.2091 24 76V61.8182V44Z" fill="var(--dialogs-window-bg)" />
        <rect x="54" y="68" width="18" height="6" rx="3" fill="var(--dialogs-accent-color)" />
        <rect x="32" y="68" width="18" height="6" rx="3" fill="var(--dialogs-window-footer-color)" />
        <path d="M32 50C32 48.8954 32.8954 48 34 48H49C50.1046 48 51 48.8954 51 50C51 51.1046 50.1046 52 49 52H34C32.8954 52 32 51.1046 32 50Z" fill="var(--dialogs-window-lines-color)" />
        <path d="M70 48C68.8954 48 68 48.8954 68 50C68 51.1046 68.8954 52 70 52C71.1046 52 72 51.1046 72 50C72 48.8954 71.1046 48 70 48Z" fill="var(--dialogs-window-lines-color)" />
        <path d="M32 58C32 56.8954 32.8954 56 34 56H42C43.1046 56 44 56.8954 44 58C44 59.1046 43.1046 60 42 60H34C32.8954 60 32 59.1046 32 58Z" fill="var(--dialogs-window-lines-color)" />
        <path d="M48 56C46.8954 56 46 56.8954 46 58C46 59.1046 46.8954 60 48 60H57C58.1046 60 59 59.1046 59 58C59 56.8954 58.1046 56 57 56H48Z" fill="var(--dialogs-window-lines-color)" />
        <path d="M53 50C53 48.8954 53.8954 48 55 48H64C65.1046 48 66 48.8954 66 50C66 51.1046 65.1046 52 64 52H55C53.8954 52 53 51.1046 53 50Z" fill="var(--dialogs-window-lines-color)" />
    </symbol>
    <symbol id="pivot" width="104" height="104" viewBox="0 0 104 104">
        <path d="M8 76H96V88C96 91.3137 93.3137 94 90 94H14C10.6863 94 8 91.3137 8 88V76Z" fill="var(--pivotgrid-shadow-color)" />
        <path d="M14 12C11 12 8 14.9677 8 18V28H96V18C96 15 93 12 90 12H14Z" fill="var(--pivotgrid-table-bg)" />
        <path d="M14 92C11 92 8 89 8 86V76H96V86C96 89 93 92 90 92H14Z" fill="var(--pivotgrid-table-bg)" />
        <path d="M96 28H8V44H96V28Z" fill="var(--pivotgrid-table-rows-bg)" />
        <path d="M96 60H8V76H96V60Z" fill="var(--pivotgrid-table-rows-bg)" />
        <path d="M8 44H96V60H8V44Z" fill="var(--pivotgrid-table-hover-bg)" />
        <circle cx="16" cy="20" r="4" fill="var(--pivotgrid-table-btn-3)" />
        <circle cx="28" cy="20" r="4" fill="var(--pivotgrid-table-btn-2)" />
        <circle cx="40" cy="20" r="4" fill="var(--pivotgrid-table-btn-1)" />
        <path d="M66 72C66 67.5817 69.5817 64 74 64H94C98.4183 64 102 67.5817 102 72V92C102 96.4183 98.4183 100 94 100H74C69.5817 100 66 96.4183 66 92V72Z" fill="var(--pivotgrid-card-shadow-color)" />
        <path d="M66 70C66 65.5817 69.5817 62 74 62H94C98.4183 62 102 65.5817 102 70V90C102 94.4183 98.4183 98 94 98H74C69.5817 98 66 94.4183 66 90V70Z" fill="var(--pivotgrid-card-bg)" />
        <path d="M92 89V92H78V89H92ZM92 68V71H77.0471V68H92ZM87.6396 79.8802V80.2156L78.0942 92H76V89L83.9383 80.0719L76 71V68H77.0471H78.0942L87.6396 79.8802Z" fill="var(--pivotgrid-card-content-color)" />
        <path d="M14 34C12.8954 34 12 34.8954 12 36C12 37.1046 12.8954 38 14 38H29C30.1046 38 31 37.1046 31 36C31 34.8954 30.1046 34 29 34H14Z" fill="var(--pivotgrid-lines-color)" />
        <path d="M14 50C12.8954 50 12 50.8954 12 52C12 53.1046 12.8954 54 14 54H32C33.1046 54 34 53.1046 34 52C34 50.8954 33.1046 50 32 50H14Z" fill="var(--pivotgrid-lines-color)" />
        <path d="M12 68C12 66.8954 12.8954 66 14 66H24C25.1046 66 26 66.8954 26 68C26 69.1046 25.1046 70 24 70H14C12.8954 70 12 69.1046 12 68Z" fill="var(--pivotgrid-lines-color)" />
        <path d="M44 34C42.8954 34 42 34.8954 42 36C42 37.1046 42.8954 38 44 38H62C63.1046 38 64 37.1046 64 36C64 34.8954 63.1046 34 62 34H44Z" fill="var(--pivotgrid-lines-color)" />
        <path d="M72 36C72 34.8954 72.8954 34 74 34H82C83.1046 34 84 34.8954 84 36C84 37.1046 83.1046 38 82 38H74C72.8954 38 72 37.1046 72 36Z" fill="var(--pivotgrid-lines-color)" />
        <path d="M30 66C28.8954 66 28 66.8954 28 68C28 69.1046 28.8954 70 30 70C31.1046 70 32 69.1046 32 68C32 66.8954 31.1046 66 30 66Z" fill="var(--pivotgrid-lines-color)" />
        <path d="M86 36C86 34.8954 86.8954 34 88 34C89.1046 34 90 34.8954 90 36C90 37.1046 89.1046 38 88 38C86.8954 38 86 37.1046 86 36Z" fill="var(--pivotgrid-lines-color)" />
        <path d="M44 50C42.8954 50 42 50.8954 42 52C42 53.1046 42.8954 54 44 54H55C56.1046 54 57 53.1046 57 52C57 50.8954 56.1046 50 55 50H44Z" fill="var(--pivotgrid-lines-color)" />
        <path d="M72 52C72 50.8954 72.8954 50 74 50H90C91.1046 50 92 50.8954 92 52C92 53.1046 91.1046 54 90 54H74C72.8954 54 72 53.1046 72 52Z" fill="var(--pivotgrid-lines-color)" />
        <path d="M44 66C42.8954 66 42 66.8954 42 68C42 69.1046 42.8954 70 44 70H60C61.1046 70 62 69.1046 62 68C62 66.8954 61.1046 66 60 66H44Z" fill="var(--pivotgrid-lines-color)" />
    </symbol>
	<symbol id="filemanager" width="104" height="104" viewBox="0 0 104 104">
        <path d="M8 54H96V88C96 91.3137 93.3137 94 90 94H14C10.6863 94 8 91.3137 8 88V54Z" fill="var(--filemanager-shadow-color)" />
        <rect x="8" y="12" width="88" height="80" rx="6" fill="var(--filemanager-bg)" />
        <path d="M8 18C8 14.6863 10.6863 12 14 12H90C93.3137 12 96 14.6863 96 18V28H8V18Z" fill="var(--filemanager-header-bg)" />
        <rect x="66" y="18" width="24" height="4" rx="2" fill="var(--filemanager-header-lines-color)" />
        <rect x="44" y="18" width="4" height="4" rx="2" fill="var(--filemanager-header-lines-color)" />
        <rect x="50" y="18" width="4" height="4" rx="2" fill="var(--filemanager-header-lines-color)" />
        <rect x="56" y="18" width="4" height="4" rx="2" fill="var(--filemanager-header-lines-color)" />
        <rect x="12" y="16" width="8" height="8" rx="4" fill="var(--filemanager-accent-color)" />
        <path d="M17 40C17 38.8954 17.8954 38 19 38H25L27 40H31C32.1046 40 33 40.8954 33 42V50C33 51.1046 32.1046 52 31 52H19C17.8954 52 17 51.1046 17 50V40Z" fill="var(--filemanager-back-folder-bg)" />
        <path d="M19 41L18 42V44H26V41H19Z" fill="var(--filemanager-file-bg)" />
        <path d="M17 42H25L27 40H33C34.1046 40 35 40.8954 35 42V52C35 53.1046 34.1046 54 33 54H19C17.8954 54 17 53.1046 17 52V42Z" fill="var(--filemanager-front-folder-bg)" />
        <path d="M43 40C43 38.8954 43.8954 38 45 38H51L53 40H57C58.1046 40 59 40.8954 59 42V50C59 51.1046 58.1046 52 57 52H45C43.8954 52 43 51.1046 43 50V40Z" fill="var(--filemanager-back-folder-bg)" />
        <path d="M45 41L44 42V44H52V41H45Z" fill="var(--filemanager-file-bg)" />
        <path d="M43 42H51L53 40H59C60.1046 40 61 40.8954 61 42V52C61 53.1046 60.1046 54 59 54H45C43.8954 54 43 53.1046 43 52V42Z" fill="var(--filemanager-front-folder-bg)" />
        <path d="M69 40C69 38.8954 69.8954 38 71 38H77L79 40H83C84.1046 40 85 40.8954 85 42V50C85 51.1046 84.1046 52 83 52H71C69.8954 52 69 51.1046 69 50V40Z" fill="var(--filemanager-back-folder-bg)" />
        <path d="M71 41L70 42V44H78V41H71Z" fill="var(--filemanager-file-bg)" />
        <path d="M69 42H77L79 40H85C86.1046 40 87 40.8954 87 42V52C87 53.1046 86.1046 54 85 54H71C69.8954 54 69 53.1046 69 52V42Z" fill="var(--filemanager-front-folder-bg)" />
        <path d="M17 66C17 64.8954 17.8954 64 19 64H25L27 66H31C32.1046 66 33 66.8954 33 68V76C33 77.1046 32.1046 78 31 78H19C17.8954 78 17 77.1046 17 76V66Z" fill="var(--filemanager-back-folder-bg)" />
        <path d="M19 67L18 68V70H26V67H19Z" fill="var(--filemanager-file-bg)" />
        <path d="M17 68H25L27 66H33C34.1046 66 35 66.8954 35 68V78C35 79.1046 34.1046 80 33 80H19C17.8954 80 17 79.1046 17 78V68Z" fill="var(--filemanager-front-folder-bg)" />
        <path d="M43 66C43 64.8954 43.8954 64 45 64H51L53 66H57C58.1046 66 59 66.8954 59 68V76C59 77.1046 58.1046 78 57 78H45C43.8954 78 43 77.1046 43 76V66Z" fill="var(--filemanager-back-folder-bg)" />
        <path d="M45 67L44 68V70H52V67H45Z" fill="var(--filemanager-file-bg)" />
        <path d="M43 68H51L53 66H59C60.1046 66 61 66.8954 61 68V78C61 79.1046 60.1046 80 59 80H45C43.8954 80 43 79.1046 43 78V68Z" fill="var(--filemanager-front-folder-bg)" />
        <path d="M69 66C69 64.8954 69.8954 64 71 64H77L79 66H83C84.1046 66 85 66.8954 85 68V76C85 77.1046 84.1046 78 83 78H71C69.8954 78 69 77.1046 69 76V66Z" fill="var(--filemanager-back-folder-bg)" />
        <path d="M71 67L70 68V70H78V67H71Z" fill="var(--filemanager-file-bg)" />
        <path d="M69 68H77L79 66H85C86.1046 66 87 66.8954 87 68V78C87 79.1046 86.1046 80 85 80H71C69.8954 80 69 79.1046 69 78V68Z" fill="var(--filemanager-front-folder-bg)" />
        <circle cx="84" cy="82" r="18" fill="var(--filemanager-download-shadow-color)"/>
        <circle cx="84" cy="80" r="18" fill="var(--filemanager-download-bg)" />
        <path d="M80 71V81H74L84 91L94 81H88V71H80Z" fill="var(--filemanager-download-color)" />
	</symbol>
	<symbol id="utility" width="104" height="104" viewBox="0 0 104 104">
        <path d="M8 26C8 22.6863 10.6863 20 14 20H90C93.3137 20 96 22.6863 96 26V44C96 47.3137 93.3137 50 90 50H14C10.6863 50 8 47.3137 8 44V26Z" fill="var(--utilities-shadow-color)" />
        <rect x="8" y="16" width="88" height="32" rx="6" fill="var(--utilities-panel-bg)" />
        <path d="M8 64C8 60.6863 10.6863 58 14 58H90C93.3137 58 96 60.6863 96 64V82C96 85.3137 93.3137 88 90 88H14C10.6863 88 8 85.3137 8 82V64Z" fill="var(--utilities-shadow-color)" />
        <rect x="8" y="54" width="88" height="32" rx="6" fill="var(--utilities-panel-bg)" />
        <path d="M42 26C40.8954 26 40 26.8954 40 28C40 29.1046 40.8954 30 42 30H54C55.1046 30 56 29.1046 56 28C56 26.8954 55.1046 26 54 26H42Z" fill="var(--utilities-lines-color)" />
        <path d="M42 34C40.8954 34 40 34.8954 40 36C40 37.1046 40.8954 38 42 38H71C72.1046 38 73 37.1046 73 36C73 34.8954 72.1046 34 71 34H42Z" fill="var(--utilities-lines-color)" />
        <path d="M60 28C60 26.8954 60.8954 26 62 26H78C79.1046 26 80 26.8954 80 28C80 29.1046 79.1046 30 78 30H62C60.8954 30 60 29.1046 60 28Z" fill="var(--utilities-lines-color)" />
        <path d="M86 26C84.8954 26 84 26.8954 84 28C84 29.1046 84.8954 30 86 30C87.1046 30 88 29.1046 88 28C88 26.8954 87.1046 26 86 26Z" fill="var(--utilities-lines-color)" />
        <circle cx="24" cy="32" r="6.5" stroke="var(--utilities-loading-bg)" fill="var(--utilities-panel-bg)" stroke-width="3" />
        <path d="M18 72C16.8954 72 16 72.8954 16 74C16 75.1046 16.8954 76 18 76H33C34.1046 76 35 75.1046 35 74C35 72.8954 34.1046 72 33 72H18Z" fill="var(--utilities-lines-color)" />
        <path d="M41 72C39.8954 72 39 72.8954 39 74C39 75.1046 39.8954 76 41 76H70C71.1046 76 72 75.1046 72 74C72 72.8954 71.1046 72 70 72H41Z" fill="var(--utilities-lines-color)" />
        <path d="M29.3397 35.6712C30.0314 36.1468 30.2153 37.1064 29.6176 37.6959C28.9044 38.3992 28.0622 38.9656 27.1322 39.3613C25.7335 39.9565 24.1943 40.1408 22.6946 39.8928C21.195 39.6448 19.797 38.9746 18.6645 37.9609C17.5319 36.9471 16.7116 35.6317 16.2995 34.1686C15.8875 32.7055 15.9008 31.1553 16.3379 29.6994C16.775 28.2436 17.6178 26.9425 18.7677 25.9483C19.9175 24.9542 21.3268 24.3082 22.8304 24.086C23.8302 23.9382 24.8443 23.9819 25.8197 24.2097C26.6372 24.4006 26.9811 25.3151 26.6392 26.0818C26.2973 26.8485 25.3935 27.1663 24.5594 27.0716C24.1342 27.0234 23.7024 27.0301 23.2749 27.0933C22.3426 27.2311 21.4688 27.6316 20.756 28.248C20.0431 28.8643 19.5205 29.6711 19.2495 30.5737C18.9785 31.4763 18.9702 32.4374 19.2257 33.3445C19.4812 34.2516 19.9898 35.0672 20.692 35.6957C21.3942 36.3243 22.2609 36.7398 23.1907 36.8935C24.1205 37.0473 25.0748 36.933 25.942 36.564C26.3397 36.3948 26.7115 36.1752 27.049 35.9122C27.7111 35.3961 28.6479 35.1956 29.3397 35.6712Z" fill="var(--utilities-accent-color)" />
        <rect x="16" y="64" width="72" height="4" rx="2" fill="var(--utilities-loading-bg)" />
        <rect x="16" y="64" width="48" height="4" rx="2" fill="var(--utilities-accent-color)" />
	</symbol>
</svg>
