<?xml version="1.0" encoding="utf-8"?>
<!-- Generator: Adobe Illustrator 24.2.1, SVG Export Plug-In . SVG Version: 6.00 Build 0)  -->
<svg version="1.1" id="_x31_" xmlns="http://www.w3.org/2000/svg" xmlns:xlink="http://www.w3.org/1999/xlink" x="0px" y="0px"
	 viewBox="0 0 16 16" style="enable-background:new 0 0 16 16;" xml:space="preserve">
<style type="text/css">
	.st0{fill:FFFFFF;}
</style>
<g id="_x32_">
	<path id="_x33_" class="st0" d="M5,13H2c-1.1,0-2-0.9-2-2V2c0-1.1,0.9-2,2-2h12c1.1,0,2,0.9,2,2v9c0,1.1-0.9,2-2,2H9.9L5,16V13z
		 M12,10V9c0-1.3-2.7-2-4-2C6.7,7,4,7.7,4,9v1H12 M8,2C6.9,2,6,2.9,6,4c0,1.1,0.9,2,2,2c1.1,0,2-0.9,2-2C10,2.9,9.1,2,8,2z"/>
</g>
</svg>
