<svg version="1.1" id="_x31_" xmlns="http://www.w3.org/2000/svg" xmlns:xlink="http://www.w3.org/1999/xlink" x="0px" y="0px"
	 viewBox="0 0 62 62" style="enable-background:new 0 0 62 62;" xml:space="preserve">
<style type="text/css">
	.st0{fill-rule:evenodd;clip-rule:evenodd;}
</style>
<path id="_x32_" class="st0" d="M31,61C14.4,61,1,47.6,1,31S14.4,1,31,1s30,13.4,30,30S47.6,61,31,61z M31,5C16.6,5,5,16.6,5,31
	s11.6,26,26,26s26-11.6,26-26S45.4,5,31,5z M52,34.5L49.5,37L46,33.5L42.5,37L40,34.5l3.5-3.5L40,27.5l2.5-2.5l3.5,3.5l3.5-3.5
	l2.5,2.5L48.5,31L52,34.5z M43,44c0,1.1-0.9,2-2,2H21c-1.1,0-2-0.9-2-2s0.9-2,2-2h20C42.1,42,43,42.9,43,44z M19.5,37L16,33.5
	L12.5,37L10,34.5l3.5-3.5L10,27.5l2.5-2.5l3.5,3.5l3.5-3.5l2.5,2.5L18.5,31l3.5,3.5L19.5,37z"/>
</svg>
