<?xml version="1.0" encoding="utf-8"?>
<!-- Generator: Adobe Illustrator 21.1.0, SVG Export Plug-In . SVG Version: 6.00 Build 0)  -->
<svg version="1.1" id="_x31__1_" xmlns="http://www.w3.org/2000/svg" xmlns:xlink="http://www.w3.org/1999/xlink" x="0px" y="0px"
	 viewBox="0 0 26 26" style="enable-background:new 0 0 26 26;" xml:space="preserve">
<style type="text/css">
	.st0{fill:#FFFFFF;}
	.st1{fill:#0F2161;}
	.st2{opacity:0.5;fill:#0F2161;enable-background:new    ;}
</style>
<path id="_x33_" class="st0" d="M5,3h16c1.1,0,2,0.9,2,2v16c0,1.1-0.9,2-2,2H5c-1.1,0-2-0.9-2-2V5C3,3.9,3.9,3,5,3z"/>
<path id="_x32_" class="st1" d="M7,6h12c1.1,0,2,0.9,2,2v2c0,1.1-0.9,2-2,2H7c-1.1,0-2-0.9-2-2V8C5,6.9,5.9,6,7,6z"/>
<path id="_x31_" class="st2" d="M7,14h12c1.1,0,2,0.9,2,2v2c0,1.1-0.9,2-2,2H7c-1.1,0-2-0.9-2-2v-2C5,14.9,5.9,14,7,14z"/>
<circle id="e_1_" class="st0" cx="8" cy="9" r="2"/>
<circle id="e" class="st0" cx="18" cy="17" r="2"/>
</svg>
