<?xml version="1.0" encoding="utf-8"?>
<!-- Generator: Adobe Illustrator 24.1.2, SVG Export Plug-In . SVG Version: 6.00 Build 0)  -->
<svg version="1.1" id="_x31_" xmlns="http://www.w3.org/2000/svg" xmlns:xlink="http://www.w3.org/1999/xlink" x="0px" y="0px"
	 viewBox="0 0 20 20" style="enable-background:new 0 0 20 20;" xml:space="preserve">
<style type="text/css">
	.st0{fill-rule:evenodd;clip-rule:evenodd;fill:#FFFFFF;}
</style>
<path id="_x32_" class="st0" d="M16,17H4c-1.1,0-2-0.9-2-2V5c0-1.1,0.9-2,2-2h12c1.1,0,2,0.9,2,2v10C18,16.1,17.1,17,16,17z M4,15h5
	v-2H4V15z M4,11h5V9H4V11z M16,5H4v2h12V5z M16,9h-5v2h5V9z M16,13h-5v2h5V13z"/>
</svg>
