<?xml version="1.0" encoding="utf-8"?>
<!-- Generator: Adobe Illustrator 24.1.2, SVG Export Plug-In . SVG Version: 6.00 Build 0)  -->
<svg version="1.1" id="_x31_" xmlns="http://www.w3.org/2000/svg" xmlns:xlink="http://www.w3.org/1999/xlink" x="0px" y="0px"
	 viewBox="0 0 20 20" style="enable-background:new 0 0 20 20;" xml:space="preserve">
<style type="text/css">
	.st0{fill-rule:evenodd;clip-rule:evenodd;fill:#FFFFFF;}
</style>
<path id="_x32_" class="st0" d="M15,18H5c-1.1,0-2-0.9-2-2V8h14v8C17,17.1,16.1,18,15,18z M7,10H5v2h2V10z M7,14H5v2h2V14z M11,10H9
	v2h2V10z M11,14H9v2h2V14z M15,10h-2v2h2V10z M15,14h-2v2h2V14z M3,5c0-1.1,0.9-2,2-2c0-0.6,0.4-1,1-1s1,0.4,1,1h6c0-0.6,0.4-1,1-1
	c0.6,0,1,0.4,1,1c1.1,0,2,0.9,2,2v1H3V5z"/>
</svg>
