<?xml version="1.0" encoding="utf-8"?>
<!-- Generator: Adobe Illustrator 23.1.0, SVG Export Plug-In . SVG Version: 6.00 Build 0)  -->
<svg version="1.1" id="_x31_" xmlns="http://www.w3.org/2000/svg" xmlns:xlink="http://www.w3.org/1999/xlink" x="0px" y="0px"
	 viewBox="0 0 32 32" style="enable-background:new 0 0 32 32;" xml:space="preserve">
<style type="text/css">
	.st0{fill-rule:evenodd;clip-rule:evenodd;fill:#FFFFFF;}
</style>
<g id="_x32_">
	<path id="_x33_" class="st0" d="M28,27H4c-2.2,0-4-1.8-4-4L0,9c0-2.2,1.8-4,4-4h24c2.2,0,4,1.8,4,4v14C32,25.2,30.2,27,28,27z
		 M28,25c1.1,0,2-0.9,2-2V9c0-1.1-0.9-2-2-2H4C2.9,7,2,7.9,2,9v3c1.1,0,2,0.9,2,2v4c0,1.1-0.9,2-2,2v3c0,1.1,0.9,2,2,2H28z"/>
</g>
</svg>
