<svg version="1.1" id="_x31_" xmlns="http://www.w3.org/2000/svg" xmlns:xlink="http://www.w3.org/1999/xlink" x="0px" y="0px"
	 viewBox="0 0 6 15" style="enable-background:new 0 0 6 15;" xml:space="preserve">
<style type="text/css">
	.st0{fill-rule:evenodd;clip-rule:evenodd;fill:currentColor;opacity:0.5;}
</style>
<path id="_x32_" class="st0" d="M1,15L1,15c0.6,0,1-0.4,1-1V1c0-0.6-0.4-1-1-1h0C0.4,0,0,0.4,0,1v13C0,14.6,0.4,15,1,15z M4,1v13
	c0,0.6,0.4,1,1,1h0c0.6,0,1-0.4,1-1V1c0-0.6-0.4-1-1-1h0C4.4,0,4,0.4,4,1z"/>
</svg>
