<svg version="1.1" id="_x31_" xmlns="http://www.w3.org/2000/svg" xmlns:xlink="http://www.w3.org/1999/xlink" x="0px" y="0px"
	 viewBox="0 0 20 20" style="enable-background:new 0 0 20 20;" xml:space="preserve">
<style type="text/css">
	.st0{fill-rule:evenodd;clip-rule:evenodd;fill:currentColor;}
</style>
<path id="_x32_" class="st0" d="M17.9,11.7l-3,5.1c-0.3,0.7-1,1.2-1.8,1.2H6c-0.1,0-1,0-1,0c-2,0-3-1-3-3v-5c0,0-0.1-2,1-2
	c0,0,0.9-0.7,1.6-1.4L11,0l1.2,1.1c0.3,0.3,0.4,0.6,0.4,1l0,0.3L11.7,7H16c1.1,0,2,0.9,2,2v2C18,11.3,17.9,11.5,17.9,11.7z"/>
</svg>
