<svg width="16" height="16" viewBox="0 0 16 16" xmlns="http://www.w3.org/2000/svg">
<path d="M12.1998 7.76C13.4631 6.99429 14.3487 5.73714 14.3487 4.57143C14.3487 1.98857 12.0696 0 9.13935 0H0.999817V16H10.1682C12.89 16 14.9998 14.0571 14.9998 11.6686C14.9998 9.93143 13.8798 8.44571 12.1998 7.76ZM4.90679 2.85714H8.81377C9.8947 2.85714 10.7673 3.62286 10.7673 4.57143C10.7673 5.52 9.8947 6.28571 8.81377 6.28571H4.90679V2.85714ZM9.46493 13.1429H4.90679V9.71429H9.46493C10.5459 9.71429 11.4184 10.48 11.4184 11.4286C11.4184 12.3771 10.5459 13.1429 9.46493 13.1429Z" />
</svg>
