<svg width="16" height="16" viewBox="0 0 16 16" xmlns="http://www.w3.org/2000/svg">
<path fill-rule="evenodd" clip-rule="evenodd" d="M3.17065 4C3.06006 3.68726 3 3.35059 3 3C3 1.34314 4.34326 0 6 0C6.76831 0 7.46924 0.288818 8 0.763916C8.53076 0.288818 9.23169 0 10 0C11.6567 0 13 1.34314 13 3C13 3.35059 12.9399 3.68726 12.8293 4H14C14.5305 4 15.0391 4.21069 15.4143 4.58582C15.7893 4.96082 16 5.4696 16 6V9C16 9.26526 15.8945 9.51953 15.707 9.70715C15.5195 9.89465 15.2651 10 15 10V14C15 14.5304 14.7893 15.0392 14.4143 15.4142C14.0391 15.7893 13.5305 16 13 16H3C2.46948 16 1.96094 15.7893 1.58569 15.4142C1.21069 15.0392 1 14.5304 1 14V10C0.734863 10 0.480469 9.89465 0.292969 9.70715C0.105469 9.51953 0 9.26526 0 9V6C0 5.4696 0.210693 4.96082 0.585693 4.58582C0.960938 4.21069 1.46948 4 2 4H3.17065ZM3 10V14H13V10H3ZM6 4C6.55225 4 7 3.55225 7 3C7 2.44775 6.55225 2 6 2C5.44775 2 5 2.44775 5 3C5 3.55225 5.44775 4 6 4ZM14 6V8H2V6H14ZM10 4C10.5522 4 11 3.55225 11 3C11 2.44775 10.5522 2 10 2C9.44775 2 9 2.44775 9 3C9 3.55225 9.44775 4 10 4Z" />
</svg>
