<svg width="16" height="16" viewBox="0 0 16 16" xmlns="http://www.w3.org/2000/svg">
<path fill-rule="evenodd" clip-rule="evenodd" d="M4 0.00012207C3.44771 0.00012207 3 0.44783 3 1.00012V2.00012C1.89543 2.00012 1 2.89555 1 4.00012V14.0001C1 15.1047 1.89543 16.0001 3 16.0001H13C14.1046 16.0001 15 15.1047 15 14.0001V4.00012C15 2.89555 14.1046 2.00012 13 2.00012V1.00012C13 0.44783 12.5523 0.00012207 12 0.00012207C11.4477 0.00012207 11 0.44783 11 1.00012V2.00012H5V1.00012C5 0.44783 4.55229 0.00012207 4 0.00012207ZM5 14.0001V12.0001H3V14.0001H5ZM5 8.00012V10.0001H3V8.00012H5ZM9 12.0001H7V14.0001H9V12.0001ZM7 8.00012H9V10.0001H7V8.00012ZM13 14.0001V12.0001H11V14.0001H13ZM13 8.00012V10.0001H11V8.00012H13ZM4 4.00012C3.44771 4.00012 3 4.44783 3 5.00012V6.00012H13V5.00012C13 4.44783 12.5523 4.00012 12 4.00012H4Z" />
</svg>
