<svg width="16" height="16" viewBox="0 0 16 16" xmlns="http://www.w3.org/2000/svg">
<path d="M15 11C15 12.1 14.1749 13.0001 13.1666 13.0001H13V2.00006H4C4.00001 0.900069 4.8249 6.10352e-05 5.83322 6.10352e-05H13.1666C14.1749 6.10352e-05 15 0.900074 15 2.00007V11Z" />
<path fill-rule="evenodd" clip-rule="evenodd" d="M12 14V5.00004C12 3.90004 11.1749 3.00003 10.1666 3.00003H2.83322C1.82489 3.00003 1 3.90004 1 5.00004V14C1 15.1 1.82489 16 2.83322 16H10.1666C11.1749 16 12 15.1 12 14ZM10 14H3V5.00005H10V14Z" />
</svg>
