<svg width="16" height="16" viewBox="0 0 16 16" xmlns="http://www.w3.org/2000/svg">
<path d="M13 2.00006H3C1.34315 2.00006 0 3.34321 0 5.00006V11.0001C0 12.6569 1.34315 14.0001 3 14.0001H13C14.6569 14.0001 16 12.6569 16 11.0001V5.00006C16 3.34321 14.6569 2.00006 13 2.00006Z" fill="#FFC107"/>
<path d="M4 14.0001H13C14.6569 14.0001 16 12.657 16 11.0001V5.00006C16 3.34321 14.6569 2.00006 13 2.00006H9.4L4 14.0001Z" fill="#343A40"/>
<path d="M9 12.0001C10.1046 12.0001 11 11.1046 11 10.0001C11 8.89549 10.1046 8.00006 9 8.00006C7.89543 8.00006 7 8.89549 7 10.0001C7 11.1046 7.89543 12.0001 9 12.0001Z" fill="#EB4656"/>
<path d="M12 12.0001C13.1046 12.0001 14 11.1046 14 10.0001C14 8.89549 13.1046 8.00006 12 8.00006C10.8954 8.00006 10 8.89549 10 10.0001C10 11.1046 10.8954 12.0001 12 12.0001Z" fill="#FFC107"/>
<path d="M6 4.00006H3C2.44772 4.00006 2 4.44778 2 5.00006C2 5.55235 2.44772 6.00006 3 6.00006H6C6.55228 6.00006 7 5.55235 7 5.00006C7 4.44778 6.55228 4.00006 6 4.00006Z" fill="white"/>
</svg>
