<svg xmlns="http://www.w3.org/2000/svg" version="1.1" viewBox="0 0 20 20" width="20" height="20">
  <path style="fill:var(--dxds-icon-color-blue, #1E8BCD)" d="M3 12C4.10457 12 5 12.8954 5 14C5 14.2761 4.77614 14.5 4.5 14.5C4.22386 14.5 4 14.2761 4 14C4 13.4477 3.55228 13 3 13C2.44772 13 2 13.4477 2 14V16C2 16.5523 2.44772 17 3 17C3.55228 17 4 16.5523 4 16C4 15.7239 4.22386 15.5 4.5 15.5C4.77614 15.5 5 15.7239 5 16C5 17.1046 4.10457 18 3 18C1.89543 18 1 17.1046 1 16V14C1 12.8954 1.89543 12 3 12ZM7.5 12C8.32843 12 9 12.6716 9 13.5C9 13.7761 8.77614 14 8.5 14C8.25829 14 8.05629 13.8286 8.00977 13.6006L7.99023 13.3994C7.94371 13.1714 7.74171 13 7.5 13C7.22386 13 7 13.2239 7 13.5V13.7363L7.00684 13.8389C7.04027 14.0763 7.18888 14.2854 7.40723 14.3945L8.04004 14.7109C8.62811 15.005 8.9999 15.6062 9 16.2637V16.5C9 17.3284 8.32843 18 7.5 18C6.67157 18 6 17.3284 6 16.5C6 16.2239 6.22386 16 6.5 16C6.74171 16 6.94371 16.1714 6.99023 16.3994L7.00977 16.6006C7.05629 16.8286 7.25829 17 7.5 17C7.77614 17 8 16.7761 8 16.5V16.2637C7.9999 15.985 7.84206 15.7301 7.59277 15.6055L6.95996 15.2891C6.40849 15.0133 6.04679 14.4675 6.00391 13.8584L6 13.7363V13.5C6 12.6716 6.67157 12 7.5 12ZM13.2783 12.335C13.3695 12.0743 13.6544 11.9371 13.915 12.0283C14.1755 12.1196 14.3128 12.4045 14.2217 12.665L12.4717 17.665C12.4015 17.8654 12.2123 17.9999 12 18C11.7876 18 11.5986 17.8654 11.5283 17.665L9.77832 12.665C9.68713 12.4044 9.82434 12.1195 10.085 12.0283C10.3456 11.9372 10.6305 12.0744 10.7217 12.335L12 15.9873L13.2783 12.335Z"/>
  <path style="fill:var(--dxds-icon-color-black, #3A3A38)" d="M10.5859 2C10.9837 2.00004 11.3652 2.15818 11.6465 2.43945L15.5605 6.35352C15.8418 6.63478 16 7.01629 16 7.41406V16C16 17.1046 15.1046 18 14 18H13.6631L13.665 17.9951L14.0127 16.999C14.5591 16.9922 15 16.548 15 16V8H11.5C10.6716 8 10 7.32843 10 6.5V3H6C5.44772 3 5 3.44772 5 4V11.7686C4.71146 11.5091 4.37292 11.3044 4 11.1719V4C4 2.89543 4.89543 2 6 2H10.5859ZM11 6.5C11 6.77614 11.2239 7 11.5 7H14.793L11 3.20703V6.5Z"/>
</svg>
