<svg width="16" height="16" viewBox="0 0 16 16" fill="none" xmlns="http://www.w3.org/2000/svg">
<path fill-rule="evenodd" clip-rule="evenodd" d="M5.6 10.3333H4C4 11.7256 5.376 13.1033 7 13.5V15H9V13.5C10.624 13.1033 12 11.7256 12 10.3333C12 8.50576 10.4912 7.85617 9 7.44996V4.25803C9.81912 4.50957 10.4 5.05514 10.4 5.66667H12C12 4.27444 10.624 2.89667 9 2.5V1H7V2.5C5.376 2.89667 4 4.27444 4 5.66667C4 7.49424 5.50884 8.14383 7 8.55004V11.742C6.18088 11.4904 5.6 10.9449 5.6 10.3333ZM9 11.742C9.81912 11.4904 10.4 10.9449 10.4 10.3333C10.4 9.70149 9.94622 9.36659 9 9.06861V11.742ZM7 6.93139V4.25803C6.18088 4.50957 5.6 5.05514 5.6 5.66667C5.6 6.29851 6.05378 6.63341 7 6.93139Z" fill="black"/>
</svg>
