<svg width="16" height="16" viewBox="0 0 16 16" fill="none" xmlns="http://www.w3.org/2000/svg">
<path d="M10.2631 13.0556C8.28945 13.0556 6.56839 11.9511 5.71576 10.3333H10V8.77778H5.19471C5.15523 8.52111 5.13155 8.26444 5.13155 8C5.13155 7.73556 5.15523 7.47889 5.19471 7.22222H10V5.66667H5.71576C6.56839 4.04889 8.28945 2.94444 10.2631 2.94444C11.5342 2.94444 12.7026 3.40333 13.6026 4.16556L15 2.78889C13.7447 1.67667 12.0789 1 10.2631 1C7.16839 1 4.54734 2.94444 3.5526 5.66667H1V7.22222H3.20523C3.15787 7.47889 3.15787 7.73556 3.15787 8C3.15787 8.26444 3.15787 8.52111 3.20523 8.77778H1V10.3333H3.5526C4.54734 13.0556 7.16839 15 10.2631 15C12.0868 15 13.7447 14.3233 15 13.2111L13.5947 11.8344C12.7026 12.5967 11.5421 13.0556 10.2631 13.0556Z" fill="black"/>
</svg>
