<svg width="16" height="16" viewBox="0 0 16 16" xmlns="http://www.w3.org/2000/svg">
<g clip-path="url(#clip0_875_17891)">
<path d="M6.5 7C7.32837 7 8 6.32843 8 5.5C8 4.67157 7.32837 4 6.5 4C5.67163 4 5 4.67157 5 5.5C5 6.32843 5.67163 7 6.5 7Z" />
<path d="M4 12L6 9L6.94739 10.4211L9 7L12 12H4Z" />
<path fill-rule="evenodd" clip-rule="evenodd" d="M2 0C0.895386 0 0 0.895447 0 2V14C0 15.1046 0.895386 16 2 16H14C15.1046 16 16 15.1046 16 14V2C16 0.895447 15.1046 0 14 0H2ZM14 2H2V14H14V2Z" />
</g>
<defs>
<clipPath id="clip0_875_17891">
<rect width="16" height="16" fill="white"/>
</clipPath>
</defs>
</svg>
