<svg width="120" height="20" viewBox="0 0 120 20" xmlns="http://www.w3.org/2000/svg">
<g clip-path="url(#clip0_1087_26449)">
<path d="M28.6396 2.63692C27.3304 2.63692 26.103 2.75862 25.162 2.92089V16.0649C25.8575 16.146 26.8394 16.2272 28.1077 16.2272C30.4398 16.2272 32.3219 15.6998 33.5493 14.6045C34.5721 13.6714 35.595 12.0081 35.595 9.12779C35.595 6.69371 34.8585 5.07099 33.5493 4.01623C32.4037 3.12373 30.8899 2.63692 28.6396 2.63692ZM28.7214 14.1988C28.3532 14.1988 27.985 14.1988 27.7395 14.1582V4.78702C28.0259 4.74645 28.4351 4.66531 28.9669 4.66531C31.3808 4.66531 32.8537 6.16633 32.8537 9.16836C32.8537 12.6978 31.1763 14.1988 28.7214 14.1988Z" />
<path d="M41.3229 6.24746C38.4589 6.24746 36.8633 8.64097 36.8633 11.4402C36.8633 14.4422 38.5817 16.3083 41.6093 16.3083C42.8367 16.3083 43.9414 16.1055 44.7596 15.7404L44.3914 13.9554C43.7368 14.1988 42.9594 14.3611 42.0184 14.3611C40.6273 14.3611 39.4408 13.712 39.359 12.0487H45.2097C45.2506 11.7647 45.2915 11.3996 45.2915 11.0345C45.2506 7.91075 43.6959 6.24746 41.3229 6.24746ZM39.3181 10.2637C39.3999 9.29006 39.9318 8.03245 41.1592 8.03245C42.4276 8.03245 42.8367 9.24949 42.8367 10.2637H39.3181Z" />
<path d="M52.4923 6.4503L51.2649 11.1562C51.0603 12.0081 50.8967 12.7789 50.733 13.6308H50.6921C50.5285 12.7789 50.3648 12.0081 50.1602 11.1562L48.8919 6.4503H46.1098L49.3829 16.146H51.8786L55.1926 6.4503H52.4923Z" />
<path d="M1.30924 15.213C0.818275 15.8215 0.450051 16.3895 0.204569 16.8763C0.122741 16.998 0 17.3631 0 17.6065V17.9716C0 18.5801 0.490965 19.0669 1.10467 19.0669H18.1248C18.7385 19.0669 19.2295 18.5801 19.2295 17.9716V4.98986C9.90113 6.61258 4.25503 11.6024 1.30924 15.213Z" />
<path d="M59.2431 10.2637H63.6618V8.15416H59.2431V4.90872H63.9073V2.75862H56.6655V16.1055H64.1937V13.9554H59.2431V10.2637Z" />
<path d="M73.972 6.4503H71.2308L70.3716 8.19473C70.1262 8.68154 69.8807 9.20892 69.6352 9.73631H69.5943C69.3488 9.24949 69.1033 8.76268 68.8578 8.19473L67.9168 6.4503H65.0528L67.9577 11.2373L65.0119 16.146H67.7941L68.6942 14.2799C68.9397 13.7931 69.1851 13.2657 69.4306 12.7383H69.4715C69.717 13.2657 69.9625 13.7525 70.208 14.2799L71.1899 16.146H74.0948L71.149 11.1562L73.972 6.4503Z" />
<path d="M80.5592 6.24746C79.2908 6.24746 78.3089 6.77485 77.6543 7.78905H77.6134L77.4906 6.4503H75.2404C75.2813 7.3428 75.3222 8.357 75.3222 9.6146V20H77.8998V15.1724H77.9407C78.3498 15.8215 79.1681 16.3083 80.2318 16.3083C82.1957 16.3083 84.2414 14.7262 84.2414 11.1968C84.2823 8.19473 82.6867 6.24746 80.5592 6.24746ZM79.6591 14.2799C78.7999 14.2799 77.9407 13.5903 77.9407 12.211V10.3854C77.9407 9.20893 78.718 8.27586 79.7409 8.27586C81.0092 8.27586 81.7047 9.53347 81.7047 11.2373C81.6638 13.0223 80.9683 14.2799 79.6591 14.2799Z" />
<path d="M88.4555 8.11359H88.3737L88.2509 6.40974H86.0416C86.0825 7.26166 86.1234 8.23529 86.1234 9.45233V16.1055H88.701V11.1156C88.701 9.45233 89.6011 8.68154 90.7467 8.68154C90.9922 8.68154 91.2376 8.68154 91.4013 8.72211V6.28803C91.2376 6.24746 91.074 6.24746 90.8285 6.24746C89.9284 6.24746 88.9056 6.85598 88.4555 8.11359Z" />
<path d="M96.8019 6.24746C93.938 6.24746 92.3423 8.64097 92.3423 11.4402C92.3423 14.4422 94.0607 16.3083 97.0883 16.3083C98.3157 16.3083 99.4204 16.1055 100.239 15.7404L99.8704 13.9554C99.2158 14.1988 98.4385 14.3611 97.4975 14.3611C96.1064 14.3611 94.9199 13.712 94.8381 12.0487H100.648C100.689 11.7647 100.73 11.3996 100.73 11.0345C100.73 7.91075 99.1749 6.24746 96.8019 6.24746ZM94.7971 10.2637C94.879 9.29006 95.4108 8.03245 96.6383 8.03245C97.9066 8.03245 98.3157 9.24949 98.3157 10.2637H94.7971Z" />
<path d="M106.089 10.2637C104.985 9.77688 104.616 9.53347 104.616 8.96552C104.616 8.43813 105.026 8.03245 105.844 8.03245C106.58 8.03245 107.276 8.31643 107.685 8.51927L108.176 6.69371C107.603 6.40974 106.744 6.16633 105.762 6.16633C103.594 6.16633 102.203 7.50507 102.203 9.20893C102.203 10.2637 102.857 11.2779 104.698 12.0081C105.762 12.4544 106.089 12.7789 106.089 13.3469C106.089 13.9554 105.639 14.3205 104.739 14.3205C103.921 14.3205 102.98 13.9554 102.448 13.6714L101.957 15.5375C102.612 15.9026 103.635 16.1866 104.698 16.1866C107.153 16.1866 108.544 14.9696 108.544 13.144C108.503 11.8864 107.767 10.9533 106.089 10.2637Z" />
<path d="M113.863 10.2637C112.758 9.77688 112.39 9.53347 112.39 8.96552C112.39 8.43813 112.799 8.03245 113.617 8.03245C114.354 8.03245 115.049 8.31643 115.459 8.51927L115.95 6.69371C115.377 6.40974 114.518 6.16633 113.536 6.16633C111.367 6.16633 109.976 7.50507 109.976 9.20893C109.976 10.2637 110.631 11.2779 112.472 12.0081C113.536 12.4544 113.863 12.7789 113.863 13.3469C113.863 13.9554 113.413 14.3205 112.513 14.3205C111.695 14.3205 110.753 13.9554 110.222 13.6714L109.731 15.5375C110.385 15.9026 111.408 16.1866 112.472 16.1866C114.927 16.1866 116.318 14.9696 116.318 13.144C116.277 11.8864 115.499 10.9533 113.863 10.2637Z" />
<path d="M18.1248 0H1.10467C0.490965 0 0 0.486815 0 1.09533V11.1968C3.35493 7.70791 9.36925 3.85396 18.493 2.79919C18.7385 2.79919 19.2295 2.67748 19.2295 2.0284V1.09533C19.2295 0.486815 18.7385 0 18.1248 0Z" />
<path d="M118.773 5.88235C119.059 5.80122 119.223 5.63895 119.223 5.39554C119.223 5.23327 119.182 5.11156 119.059 5.03043C118.936 4.94929 118.773 4.90872 118.527 4.90872H117.954V6.69371H118.323V5.96349H118.486C118.609 5.96349 118.691 6.04462 118.732 6.2069L118.895 6.65314H119.304L119.1 6.16633C118.977 6.00406 118.895 5.88235 118.773 5.88235ZM118.527 5.67951H118.282V5.15213H118.486C118.732 5.15213 118.814 5.23327 118.814 5.39554C118.814 5.47667 118.773 5.51724 118.732 5.59838C118.691 5.67951 118.65 5.67951 118.527 5.67951Z" />
<path d="M119.591 4.78702C119.304 4.50304 118.977 4.38134 118.568 4.38134C118.159 4.38134 117.791 4.50304 117.545 4.78702C117.259 5.07099 117.136 5.39554 117.136 5.80122C117.136 6.2069 117.259 6.53144 117.545 6.81542C117.832 7.05882 118.159 7.2211 118.568 7.2211C118.977 7.2211 119.304 7.09939 119.591 6.81542C119.877 6.53144 120 6.2069 120 5.80122C120 5.39554 119.877 5.07099 119.591 4.78702ZM119.427 6.65314C119.182 6.89655 118.895 7.01826 118.568 7.01826C118.241 7.01826 117.954 6.89655 117.709 6.69371C117.463 6.4503 117.341 6.16633 117.341 5.84178C117.341 5.51724 117.463 5.23327 117.709 4.98986C117.954 4.74645 118.241 4.62475 118.568 4.62475C118.895 4.62475 119.223 4.74645 119.427 4.98986C119.673 5.23327 119.795 5.51724 119.795 5.84178C119.755 6.12576 119.632 6.40974 119.427 6.65314Z" />
</g>
<defs>
<clipPath id="clip0_1087_26449">
<rect width="120" height="20" fill="white"/>
</clipPath>
</defs>
</svg>
