<svg width="16" height="16" viewBox="0 0 16 16" xmlns="http://www.w3.org/2000/svg">
<path d="M12 7V9H4V7H12Z" />
<path fill-rule="evenodd" clip-rule="evenodd" d="M2 0H14C14.5304 0 15.0392 0.210709 15.4142 0.585785C15.7893 0.960861 16 1.46957 16 2V14C16 14.5304 15.7893 15.0391 15.4142 15.4142C15.0392 15.7893 14.5304 16 14 16H2C1.46957 16 0.960846 15.7893 0.585785 15.4142C0.210724 15.0391 0 14.5304 0 14V2C0 1.46957 0.210724 0.960861 0.585785 0.585785C0.960846 0.210709 1.46957 0 2 0ZM2 14H14V2H2V14Z" />
</svg>
