<svg width="16" height="16" viewBox="0 0 16 16" xmlns="http://www.w3.org/2000/svg">
<path fill-rule="evenodd" clip-rule="evenodd" d="M1.99982 2C1.99982 0.895431 2.89525 0 3.99982 0H11.9998C13.1044 0 13.9998 0.895431 13.9998 2V14C13.9998 15.1046 13.1044 16 11.9998 16H3.99982C2.89525 16 1.99982 15.1046 1.99982 14V2ZM3.99982 2H11.9998V13H3.99982V2ZM7.49984 14C7.2237 14 6.99984 14.2239 6.99984 14.5C6.99984 14.7761 7.2237 15 7.49984 15H8.49984C8.77599 15 8.99984 14.7761 8.99984 14.5C8.99984 14.2239 8.77599 14 8.49984 14H7.49984Z" />
</svg>
