<svg width="16" height="16" viewBox="0 0 16 16" xmlns="http://www.w3.org/2000/svg">
<path d="M10 7C10 5.9 9.1 5 8 5C6.9 5 6 5.9 6 7C6 8.1 6.9 9 8 9C9.1 9 10 8.1 10 7Z" />
<path d="M4 12V13H12V12C12 10.9 10.2 10 8 10C5.8 10 4 10.9 4 12Z" />
<path fill-rule="evenodd" clip-rule="evenodd" d="M4 0.00012207C3.44771 0.00012207 3 0.44783 3 1.00012V2.00012C1.89543 2.00012 1 2.89555 1 4.00012V14.0001C1 15.1047 1.89543 16.0001 3 16.0001H13C14.1046 16.0001 15 15.1047 15 14.0001V4.00012C15 2.89555 14.1046 2.00012 13 2.00012V1.00012C13 0.44783 12.5523 0.00012207 12 0.00012207C11.4477 0.00012207 11 0.44783 11 1.00012V2.00012H5V1.00012C5 0.44783 4.55229 0.00012207 4 0.00012207ZM13 5V14.0001H3V5C3 4.5 3.5 4 4 4C4.0925 4 4.4075 4 4.86265 3.99999C6.86765 3.99996 11.5925 3.9999 12 4C12.5 4.00012 13 4.5 13 5Z" />
</svg>
