<svg width="16" height="16" viewBox="0 0 16 16" xmlns="http://www.w3.org/2000/svg">
<path fill-rule="evenodd" clip-rule="evenodd" d="M16 14.4762L14.4762 16L10.3401 11.8639C9.2517 12.6258 7.94558 13.0612 6.53061 13.0612C2.93878 13.0612 0 10.1224 0 6.53061C0 2.93878 2.93878 0 6.53061 0C10.1224 0 13.0612 2.93878 13.0612 6.53061C13.0612 7.94558 12.6258 9.2517 11.8639 10.3401L16 14.4762ZM6.53061 2.17687C4.13605 2.17687 2.17687 4.13605 2.17687 6.53061C2.17687 8.92517 4.13605 10.8844 6.53061 10.8844C8.92517 10.8844 10.8844 8.92517 10.8844 6.53061C10.8844 4.13605 8.92517 2.17687 6.53061 2.17687Z" />
</svg>
