<svg width="16" height="16" viewBox="0 0 16 16" xmlns="http://www.w3.org/2000/svg">
<path d="M8 13.8C6 13.8 4.2 12.8 3.2 11.2C3.2 9.60003 6.4 8.70003 8 8.70003C9.6 8.70003 12.8 9.60003 12.8 11.2C11.8 12.7 10 13.8 8 13.8ZM8 2.40003C9.3 2.40003 10.4 3.50003 10.4 4.80003C10.4 6.10003 9.3 7.20003 8 7.20003C6.7 7.20003 5.6 6.10003 5.6 4.80003C5.6 3.50003 6.7 2.40003 8 2.40003ZM8 3.05176e-05C3.6 3.05176e-05 0 3.60003 0 8.00003C0 12.4 3.6 16 8 16C12.4 16 16 12.4 16 8.00003C16 3.60003 12.4 3.05176e-05 8 3.05176e-05Z" />
</svg>
