<?xml version="1.0" encoding="utf-8"?>
<!-- Generator: Adobe Illustrator 26.1.0, SVG Export Plug-In . SVG Version: 6.00 Build 0)  -->
<svg version="1.1" id="Layer_1" xmlns="http://www.w3.org/2000/svg" xmlns:xlink="http://www.w3.org/1999/xlink" x="0px" y="0px"
	 viewBox="0 0 16 16" style="enable-background:new 0 0 16 16;" xml:space="preserve">
<style type="text/css">
	.st0{fill-rule:evenodd;clip-rule:evenodd;fill-opacity:0.64;}
</style>
<path class="st0" d="M3,1c0-0.6,0.4-1,1-1c0.6,0,1,0.4,1,1v1h6V1c0-0.6,0.4-1,1-1s1,0.4,1,1v1h1c1.1,0,2,0.9,2,2v10c0,1.1-0.9,2-2,2
	H2c-1.1,0-2-0.9-2-2V4c0-1.1,0.9-2,2-2h1V1z M14,5H2v9h12V5z M10,7h2v2h-2V7z M12,10h-2v2h2V10z M7,7h2v2H7V7z M9,10H7v2h2V10z M4,7
	h2v2H4V7z M6,10H4v2h2V10z"/>
</svg>
