<?xml version="1.0" encoding="utf-8"?>
<!-- Generator: Adobe Illustrator 26.1.0, SVG Export Plug-In . SVG Version: 6.00 Build 0)  -->
<svg version="1.1" id="Layer_1" xmlns="http://www.w3.org/2000/svg" xmlns:xlink="http://www.w3.org/1999/xlink" x="0px" y="0px"
	 viewBox="0 0 16 16" style="enable-background:new 0 0 16 16;" xml:space="preserve">
<style type="text/css">
	.st0{fill-rule:evenodd;clip-rule:evenodd;fill-opacity:0.64;}
</style>
<path class="st0" d="M2,2c0-1.1,0.9-2,2-2h8c1.1,0,2,0.9,2,2v12c0,1.1-0.9,2-2,2H4c-1.1,0-2-0.9-2-2V2z M4,2h8v11H4V2z M7.5,14
	C7.2,14,7,14.2,7,14.5S7.2,15,7.5,15h1C8.8,15,9,14.8,9,14.5S8.8,14,8.5,14H7.5z"/>
</svg>
